<svg width="40" height="40" viewBox="0 0 40 40" fill="none" xmlns="http://www.w3.org/2000/svg">
<path fill-rule="evenodd" clip-rule="evenodd" d="M20 40C31.0457 40 40 31.0457 40 20C40 14.822 38.0322 10.1035 34.8037 6.55168L36.1734 5.18198C36.7591 4.5962 36.7591 3.64645 36.1734 3.06066C35.5876 2.47488 34.6378 2.47488 34.052 3.06066L32.625 4.48764C29.1821 1.68215 24.7875 0 20 0C8.9543 0 0 8.9543 0 20C0 24.7875 1.68215 29.1821 4.48764 32.625L3.06066 34.052C2.47487 34.6378 2.47487 35.5876 3.06066 36.1734C3.64645 36.7591 4.5962 36.7591 5.18198 36.1734L6.55168 34.8037C10.1035 38.0322 14.822 40 20 40ZM20 3C23.9587 3 27.6013 4.35309 30.4907 6.62201L22.6092 14.5035C21.9513 13.9812 21.0129 13.72 19.7939 13.72H15.7939C15.4846 13.72 15.2393 13.8053 15.0579 13.976C14.8873 14.1467 14.8019 14.3867 14.8019 14.696V22.3108L13.1069 24.0058C13.0742 23.8327 12.9946 23.6948 12.8681 23.592C12.6974 23.4427 12.4574 23.368 12.1481 23.368H7.39606V20.072H11.8281C12.1374 20.072 12.3774 20.0027 12.5481 19.864C12.7187 19.7253 12.8041 19.528 12.8041 19.272C12.8041 19.0053 12.7187 18.8027 12.5481 18.664C12.3774 18.5253 12.1374 18.456 11.8281 18.456H7.39606V15.352H12.1481C12.4574 15.352 12.6974 15.2827 12.8681 15.144C13.0387 14.9947 13.1241 14.7867 13.1241 14.52C13.1241 14.264 13.0387 14.0667 12.8681 13.928C12.6974 13.7893 12.4574 13.72 12.1481 13.72H6.37206C6.06273 13.72 5.8174 13.8053 5.63606 13.976C5.4654 14.1467 5.38006 14.3867 5.38006 14.696V24.024C5.38006 24.3333 5.4654 24.5733 5.63606 24.744C5.8174 24.9147 6.06273 25 6.37206 25H12.1127L6.62201 30.4907C4.35309 27.6013 3 23.9587 3 20C3 10.6112 10.6112 3 20 3ZM21.2959 15.8168L18.2247 18.888H16.8179V15.32H19.5059C20.2846 15.32 20.8553 15.464 21.2179 15.752C21.2449 15.7726 21.2709 15.7942 21.2959 15.8168ZM16.4096 24.9458L8.67585 32.6795C11.6824 35.3665 15.6504 37 20 37C29.3888 37 37 29.3888 37 20C37 15.6504 35.3665 11.6824 32.6795 8.67585L27.6353 13.72H30.9189C32.1989 13.72 33.1696 14.008 33.8309 14.584C34.5029 15.1493 34.8389 15.9707 34.8389 17.048C34.8389 17.9227 34.5883 18.6427 34.0869 19.208C33.5963 19.7627 32.8976 20.12 31.9909 20.28C32.3003 20.3547 32.5723 20.488 32.8069 20.68C33.0416 20.872 33.2709 21.1387 33.4949 21.48L34.9509 23.704C35.0789 23.896 35.1429 24.0827 35.1429 24.264C35.1429 24.5093 35.0416 24.712 34.8389 24.872C34.6469 25.032 34.4176 25.112 34.1509 25.112C33.9803 25.112 33.8149 25.0747 33.6549 25C33.5056 24.9147 33.3776 24.792 33.2709 24.632L31.1429 21.4C30.9296 21.0587 30.7003 20.8187 30.4549 20.68C30.2203 20.5413 29.9109 20.472 29.5269 20.472H27.9589V24.056C27.9589 24.376 27.8683 24.632 27.6869 24.824C27.5056 25.0053 27.2603 25.096 26.9509 25.096C26.6416 25.096 26.3909 25.0053 26.1989 24.824C26.0176 24.632 25.9269 24.376 25.9269 24.056V15.4284L23.6644 17.6909C23.5687 18.2821 23.3346 18.7878 22.9619 19.208C22.5197 19.7079 21.9086 20.0475 21.1285 20.2268L21.0293 20.326C21.272 20.4046 21.4895 20.5226 21.6819 20.68C21.9166 20.872 22.1459 21.1387 22.3699 21.48L23.8259 23.704C23.9539 23.896 24.0179 24.0827 24.0179 24.264C24.0179 24.5093 23.9166 24.712 23.7139 24.872C23.5219 25.032 23.2926 25.112 23.0259 25.112C22.8553 25.112 22.6899 25.0747 22.5299 25C22.3806 24.9147 22.2526 24.792 22.1459 24.632L20.0179 21.4C20.0099 21.3871 20.0018 21.3743 19.9937 21.3617L16.6704 24.6849C16.6388 24.7345 16.6027 24.7809 16.5619 24.824C16.5154 24.8706 16.4646 24.9112 16.4096 24.9458ZM32.3429 18.456C31.9803 18.744 31.4096 18.888 30.6309 18.888H27.9429V15.32H30.6309C31.4096 15.32 31.9803 15.464 32.3429 15.752C32.7056 16.0293 32.8869 16.4773 32.8869 17.096C32.8869 17.704 32.7056 18.1573 32.3429 18.456Z" fill="white"/>
</svg>
