<svg width="40" height="40" viewBox="0 0 40 40" fill="none" xmlns="http://www.w3.org/2000/svg">
<path d="M0 10.5C0 9.11929 1.14799 8 2.5641 8H37.4359C38.852 8 40 9.11929 40 10.5C40 11.8807 38.852 13 37.4359 13H2.5641C1.14799 13 0 11.8807 0 10.5Z" fill="white"/>
<path d="M0 30.5C0 29.1193 1.14799 28 2.5641 28H37.4359C38.852 28 40 29.1193 40 30.5C40 31.8807 38.852 33 37.4359 33H2.5641C1.14799 33 0 31.8807 0 30.5Z" fill="white"/>
<path d="M0 20.5C0 19.1193 1.14799 18 2.5641 18H37.4359C38.852 18 40 19.1193 40 20.5C40 21.8807 38.852 23 37.4359 23H2.5641C1.14799 23 0 21.8807 0 20.5Z" fill="white"/>
</svg>
