<svg width="574" height="362" viewBox="0 0 574 362" fill="none" xmlns="http://www.w3.org/2000/svg">
<path fill-rule="evenodd" clip-rule="evenodd" d="M314.215 244.174C314.954 245.935 316.914 247.409 317.248 249.945C317.515 251.969 316.535 255.25 315.496 256.148C312.552 258.695 304.824 256.65 301.035 255.933C295.93 254.969 291.777 253.952 287.829 252.671C278.955 249.791 270.979 247.269 263.496 242.426C261.562 238.915 254.671 237.062 253.69 231.619C252.894 227.202 257.207 219.443 262.018 221.067C265.974 216.872 269.614 212.068 273.181 206.904C276.523 202.064 281.036 198.078 284.69 193.18C290.01 186.051 297.285 180.366 304.242 174.056C307.075 171.486 308.974 167.705 312.829 166.765C317.03 165.741 318.214 170.264 318.001 174.408C317.924 175.913 316.992 177.609 316.848 178.965C316.304 184.081 317.063 189.63 317.097 194.962C317.123 199.097 316.576 203.277 316.563 207.547C316.55 211.598 315.974 215.711 315.684 219.69C315.076 228.012 314.801 236.331 314.215 244.174ZM312.965 229.139C308.908 225.766 309.132 216.623 314.556 215.837C315.663 201.725 315.187 186.532 315.461 171.851C316.166 170.312 315.861 168.862 314.333 167.998C311.131 168.852 309.165 171.637 306.869 173.795C304.59 175.936 301.95 177.706 299.694 179.789C297.51 181.808 295.58 184.332 293.389 186.377C291.012 188.596 288.707 190.347 286.794 192.766C284.955 195.09 283.025 197.448 281.067 199.75C279.105 202.058 276.595 203.917 274.761 206.338C271.09 211.188 268.282 216.676 263.944 220.944C264.929 221.946 263.658 221.941 263.634 222.787C277.878 233.174 292.639 242.717 312.645 243.718C312.364 238.457 313.591 233.129 313.321 228.559C313.335 228.843 313.149 228.989 312.965 229.139ZM255.316 232.319C255.807 233.951 259.028 236.538 260.799 238.118C267.173 243.804 273.456 246.824 281.158 249.143C286.483 250.747 290.814 252.286 296.391 253.791C298.815 254.444 301.426 254.918 304.541 255.244C307.347 255.54 311.223 256.425 313.224 255.83C316.393 254.889 316.758 248.1 313.616 245.821C312.107 244.727 307.709 244.664 305.176 244.168C297.539 242.67 291.137 240.961 284.943 237.956C283.692 237.35 282.761 236.32 281.468 235.584C279.729 234.592 277.861 234.23 276.3 233.288C271.055 230.119 267.333 226.869 261.698 223.933C261.142 223.416 261.849 222.172 260.605 222.365C257.066 223.025 254.364 229.151 255.316 232.319ZM313.733 228.223C313.88 224.375 314.118 221.837 314.068 217.97C314.311 217.908 314.18 217.622 313.778 217.772C310.614 219.335 311.338 225.018 313.733 228.223Z" fill="#525252"/>
<path fill-rule="evenodd" clip-rule="evenodd" d="M312.077 186.958C311.272 187.819 310.482 187.409 309.666 188.198C310.525 190.007 310.237 191.655 311.256 192.993C311.018 194.067 310.512 194.958 309.942 195.806C305.361 196.841 299.21 195.698 298.003 190.745C297.234 187.587 299.849 183.065 303.97 184.721C304.646 182.639 306.526 180.284 309.626 180.544C311.815 181.386 312.892 184.58 312.077 186.958ZM305.255 184.978C305.255 185.085 306.77 185.9 305.591 186.445C304.314 186.286 303.585 185.236 301.973 185.623C301.37 189.916 304.871 191.654 308.943 190.383C307.518 188.228 308.58 185.752 310.915 186.164C312.738 180.766 305.229 180.765 305.255 184.978ZM309.85 193.269C309.303 190.709 306.33 192.205 304.714 192.235C302.677 191.227 300.435 189.396 300.21 186.48C296.425 192.564 307.038 196.969 309.85 193.269Z" fill="#525252"/>
<path fill-rule="evenodd" clip-rule="evenodd" d="M283.104 204.642C283.944 204.045 285.538 203.963 286.806 203.657C287.021 199.361 292.936 200.768 293.898 203.544C296.431 210.841 282.431 215.463 283.104 204.642ZM292.77 205.046C292.341 200.418 287.935 202.046 286.908 205.174C286.056 205.697 284.474 204.472 284.559 205.636C286.294 209.467 293.178 209.442 292.77 205.046Z" fill="#525252"/>
<path fill-rule="evenodd" clip-rule="evenodd" d="M310.53 198.915C310.054 199.62 309.143 200.026 309.63 201.388C309.72 201.578 309.92 201.586 309.976 201.831C312.421 201.965 312.1 197.795 309.894 198.275C309.658 196.803 312.003 197.33 312.47 197.769C314.951 202.028 308.648 205.334 308.056 200.932C307.895 199.729 308.778 197.864 310.53 198.915Z" fill="#525252"/>
<path fill-rule="evenodd" clip-rule="evenodd" d="M307.243 218.354C306.136 217.024 305.387 215.112 303.89 214.418C302.102 215.651 299.844 216.775 300.279 218.959C299.686 219.295 298.488 218.035 299.53 217.828C293.793 215.129 297.589 206.239 302.398 205.774C308.237 205.207 313.535 215.372 307.243 218.354ZM298.831 211.581C298.27 211.61 297.941 211.797 297.716 212.056C297.925 213.422 297.985 215.637 299.25 216.607C301.139 215.561 301.299 213.335 304.604 213.256C305.929 213.895 306.286 216.109 307.609 216.751C312.97 210.78 299.318 202.271 298.831 211.581Z" fill="#525252"/>
<path fill-rule="evenodd" clip-rule="evenodd" d="M281.287 230.084C281.107 228.796 282.803 228.789 283.524 228.116C285.567 224.316 282.173 218.856 278.247 218.961C277.177 220.698 274.411 221.277 274.755 223.979C275.784 224.758 277.438 224.52 278.832 224.707C280.364 226.116 281.078 228.31 280.062 230.071C278.279 229.758 279.948 227.624 278.756 226.505C277.399 225.365 274.661 226.477 273.52 224.986C272.566 221.113 275.267 219.735 277.266 217.88C282.663 216.302 286.92 223.561 284.983 228.085C284.538 229.121 282.748 231.176 281.287 230.084Z" fill="#525252"/>
<path fill-rule="evenodd" clip-rule="evenodd" d="M289.259 222.149C290.918 221.675 292.062 222.036 293.034 222.678C293.255 224.538 293.249 226.243 292.694 227.572C289.466 228.537 288.241 224.458 289.259 222.149ZM292.005 226.692C292.148 225.638 292.342 223.719 291.868 222.907C291.247 223.029 290.625 223.151 290.004 223.273C290.325 224.891 290.312 226.667 292.005 226.692Z" fill="#525252"/>
<path fill-rule="evenodd" clip-rule="evenodd" d="M305 225.572C305.978 227.411 306.538 227.504 306.54 229.091C306.543 230.59 304.337 231.474 304.406 232.569C304.529 234.547 310.129 235.837 307.084 238.923C304.041 239.637 302.612 237.723 300.867 236.322C299.115 237.026 296.669 238.923 295.321 236.648C294.857 235.864 294.543 233.044 294.96 231.877C295.134 231.391 296.026 231.108 296.551 230.29C296.969 229.64 296.932 228.57 297.273 228.11C299.338 225.318 302.895 224.248 305 225.572ZM297.7 232.103C296.994 232.367 296.89 231.384 296.475 232.089C295.817 233.246 296.038 235.294 297.248 236.524C298.12 236.502 298.314 236.018 298.773 235.715C297.971 232.499 300.704 228.385 305.137 229.367C304.304 223.117 296.536 228.783 297.7 232.103ZM299.652 235.287C303.251 233.58 303.353 239.273 306.459 237.261C305.368 234.994 301.557 233.966 303.491 230.711C300.553 231.104 299.872 233.038 299.652 235.287Z" fill="#525252"/>
<path fill-rule="evenodd" clip-rule="evenodd" d="M290.404 249.426C296.943 249.398 304.813 251.302 311.22 251.573C311.53 252.638 309.375 252.561 308.724 252.595C302.821 252.905 295.719 250.533 290.404 249.426Z" fill="#525252"/>
<path fill-rule="evenodd" clip-rule="evenodd" d="M238.731 60.2785C237.756 69.6721 217.179 72.1999 206.152 71.5088C202.897 69.9665 198.94 69.3387 197.388 65.5733C188.466 63.3017 181.126 57.4918 175.414 50.2335C173.06 47.2441 169.754 43.1841 169.158 40.4468C169.118 40.2621 169.062 38.5098 169.119 38.1827C169.532 35.7826 176.932 30.008 180.192 28.9483C181.215 28.6161 181.981 28.4984 182.684 28.8815C182.652 25.6297 187.723 23.468 190.734 25.329C192.471 22.0997 196.541 21.7118 200.164 20.8446C200.652 21.0766 201.327 21.0631 201.521 21.6783C204.434 19.1508 213.566 15.4199 216.747 19.477C218.517 18.9917 221.062 17.7599 222.621 18.4723C226.126 14.6657 234.532 14.0497 239.109 16.3606C245.726 14.8105 256.198 14.6532 260.94 18.8591C262.679 20.4021 263.148 24.8917 262.79 27.4469C260.869 41.1337 250.755 55.2832 238.731 60.2785ZM225.9 22.5902C229.648 23.5001 230.072 19.8882 231.607 18.3292C232.856 18.4371 233.328 19.5596 233.679 20.8378C235.236 19.907 238.229 19.6209 238.902 18.6559C237.467 16.9656 232.999 16.0399 229.845 16.2858C228.427 16.3977 225.224 17.1094 225.947 19.0541C226.861 18.9319 229.737 16.751 230.686 18.952C228.612 19.0455 226.462 20.6154 225.9 22.5902ZM202.3 23.8474C202.254 23.523 201.576 23.6198 201.561 23.9419C202.81 24.2271 203.003 25.445 203.355 26.2337C204.816 24.9902 207.169 24.4423 209.841 24.1436C211.136 22.6213 211.961 20.7326 214.596 20.2558C211.111 17.3902 203.538 20.7454 202.3 23.8474ZM192.52 25.6047C195.92 25.9467 197.338 23.9677 199.712 23.1714C200.455 22.9215 201.186 23.7128 201.371 22.4541C198.168 22.6664 193.969 22.9448 192.52 25.6047ZM260.114 20.2254C257.308 17.2618 247.067 16.1013 242.435 16.9425C241.74 17.0686 240.678 17.1697 240.562 17.9396C244.038 18.1614 249.081 16.2177 252.168 18.7227C252.127 20.0298 251.712 21.0462 251.628 22.3208C255.1 21.6525 256.375 23.8485 257.399 26.3723C260.463 25.5285 262.373 22.6106 260.114 20.2254ZM209.913 26.6548C213.771 25.2918 219.367 24.4694 223.297 25.6968C222.72 23.7506 222.11 21.2878 221.796 19.8385C215.862 20.4256 210.85 22.9184 209.913 26.6548ZM224.519 23.5233C224.074 21.9862 225.247 21.7098 225.122 20.4208C224.692 19.9209 224.321 19.3423 223.272 19.6491C223.672 20.9625 223.72 22.7331 224.519 23.5233ZM184.288 29.6843C186.905 29.3417 187.715 27.5916 188.828 26.0775C185.965 26.2286 183.921 27.0166 184.288 29.6843ZM226.09 24.0792C227.034 26.4349 230.318 29.488 232.79 29.524C233.934 29.5397 235.192 28.5148 236.386 28.3062C240.188 27.645 243.8 28.4792 247.008 29.2154C247.474 27.664 246.877 24.4883 245.753 23.3252C241.425 28.424 233.922 25.017 231.647 20.5937C230.823 22.4594 228.671 24.3066 226.09 24.0792ZM234.759 21.4556C236.513 25.1962 243.178 25.311 245.285 21.6205C246.194 22.0757 247.329 22.235 247.754 23.3214C249.385 22.4548 250.59 22.1354 250.54 19.6858C245.859 17.7535 240.081 20.295 234.759 21.4556ZM199.688 24.9387C198.212 25.2737 197.615 26.2017 196.155 26.651C194.076 27.2928 191.611 26.5796 189.971 27.1917C188.241 27.8371 187.813 29.8913 186.415 30.6724C188.648 31.0962 189.056 30.4429 191.432 30.7871C194.272 28.55 198.506 29.4482 203.364 28.2494C203.515 28.8228 204.548 28.2476 204.475 29.1166C205.879 28.0513 208.356 27.8234 208.555 25.8202C206.36 26.1935 204.974 27.1982 203.054 27.7846C202.729 25.7958 200.686 26.0505 199.688 24.9387ZM171.666 36.5955C168.226 41.072 176.345 43.3846 180.431 42.5331C178.558 42.1226 177.97 40.7575 177.708 38.8481C176.845 39.6645 176.162 40.6198 175.843 41.859C173.963 41.0245 175.484 38.3491 176.843 37.9496C175.52 33.2142 181.469 32.513 183.367 30.3062C179.5 30.2105 173.857 33.7458 171.666 36.5955ZM205.832 29.9503C207.267 31.4572 207.918 33.9855 208.873 36.1161C212.205 34.3064 216.535 30.621 220.891 32.3078C220.907 30.3115 221.485 28.7511 222.256 27.3431C217.881 25.1748 209.617 27.2981 205.832 29.9503ZM228.266 29.3466C226.613 28.6739 225.51 25.8445 224.066 25.8507C224.261 26.4721 226.113 27.4206 225.805 29.6618C226.635 29.3709 228.174 29.6333 228.266 29.3466ZM180.795 33.6617C181.839 33.9403 182.117 35.218 183.264 35.3625C183.568 33.8873 184.861 33.1833 185.59 32.0394C183.766 31.2991 181.779 32.4707 180.795 33.6617ZM194.941 30.8415C195.358 32.6131 196.533 34.4745 195.854 36.0192C198.207 35.1732 200.403 34.2055 203.324 33.802C202.096 31.4683 204.059 30.785 204.014 29.4273C200.115 29.8822 197.081 30.4575 194.941 30.8415ZM248.866 24.1865C248.011 25.5229 249.069 25.805 248.818 27.7226C252.109 26.6313 253.701 28.5826 256.082 27.8009C255.927 24.7903 252.737 22.4024 248.866 24.1865ZM194.528 35.4318C194.63 33.6644 194.273 32.2741 193.25 31.3092C192.694 32.0957 193.475 34.9469 194.528 35.4318ZM184.804 35.6697C185.418 35.9297 186.254 35.9004 186.868 36.1604C187.567 34.3987 190.277 34.2024 190.607 32.1522C188.968 32.4999 188.6 32.2655 187.13 32.3451C186.889 33.8703 184.89 34.0245 184.804 35.6697ZM223.019 33.2962C223.658 32.3415 224.775 29.5066 223.4 28.4576C222.72 29.4958 221.067 32.3107 223.019 33.2962ZM178.652 36.4577C178.833 35.8537 179.014 35.2502 179.446 34.843C178.792 34.944 177.793 35.9173 178.652 36.4577ZM207.087 35.8405C205.841 35.053 206.468 31.8221 204.578 31.8756C204.809 33.7993 205.899 36.1311 207.087 35.8405ZM190.218 42.7915C190.492 40.3252 192.46 39.1785 192.965 36.8937C192.344 36.0623 192.13 34.7005 191.567 33.7943C189.985 34.2933 189.391 35.9032 188.257 37.2446C187.856 37.7187 187.105 37.9317 186.661 38.4564C185.075 40.3399 185.048 42.3236 183.478 42.8979C183.638 42.8405 181.564 42.6058 182.986 42.9609C184.924 43.523 188.015 42.5773 190.218 42.7915ZM179.74 39.0915C180.133 38.2205 181.794 36.4168 180.557 35.7092C180.219 36.6416 179.131 38.1632 179.74 39.0915ZM188.41 59.9155C194.639 64.1762 203.362 65.7807 212.685 65.8833C228.397 66.0543 243.252 57.5162 251.368 49.5828C255.875 42.4521 260.079 35.0846 261.551 25.5878C261.517 25.4384 261.476 25.2978 261.273 25.371C251.224 34.9923 231.702 36.927 216.311 41.4661C204.149 41.7384 189.155 45.174 176.683 44.5242C175.647 43.5592 174.105 43.2552 172.491 43.0444C176.505 49.5318 182.045 55.5623 188.41 59.9155ZM225.503 31.2127C224.258 37.4208 220.661 32.6247 215.819 33.7147C218.683 36.8768 223.797 35.594 229.092 35.7962C229.762 34.2349 230.205 32.4957 230.981 31.0156C229.304 31.0314 226.81 30.7355 225.503 31.2127ZM180.7 40.7329C183.379 43.446 184.545 39.6033 185.797 37.5597C184.685 37.1748 183.666 36.6711 182.192 36.7596C182.34 38.5871 180.74 39.0526 180.7 40.7329ZM232.124 32.1302C231.033 33.4056 231.178 35.2194 230.203 36.6624C229.876 36.6704 228.418 36.853 229.251 37.0356C237.763 34.1778 246.523 33.9535 252.764 29.2355C249.689 27.6494 246.65 32.2651 244.342 31.8264C243.424 31.1148 244.926 31.1483 244.643 30.2755C240.823 29.9501 234.8 29.0021 232.124 32.1302ZM200.379 36.1958C201.424 36.377 202.46 36.5686 202.816 37.6494C202.358 37.9624 201.82 38.2122 201.713 38.7982C202.271 38.9401 202.085 40.0513 202.642 40.1922C202.707 38.5312 204.255 38.0253 205.245 37.0859C205.119 34.0558 201.714 35.4143 200.379 36.1958ZM191.973 42.8192C193.5 42.3959 194.087 42.5997 195.108 41.9128C194.336 39.1527 196.379 38.5862 197.243 37.1008C196.492 37.1866 196.353 37.7483 195.862 38.0349C195.432 37.7289 195.503 36.7669 194.719 36.9203C194.021 39.0567 192.232 40.3414 191.973 42.8192ZM214.16 34.4309C211.968 35.879 209.839 38.3699 206.571 37.6722C205.042 38.4149 204.249 39.7332 203.785 41.3067C206.639 41.7648 208.723 39.1662 211.779 39.2733C212.662 39.3061 213.514 40.1304 214.399 40.1998C218.949 40.5567 223.23 37.8457 227.282 37.2877C224.905 37.2764 221.381 36.7428 219.376 38.0491C218.212 36.0918 215.691 35.9081 214.16 34.4309ZM196.307 41.5073C197.675 42.4965 200.105 41.6424 202.801 41.4328C202.634 40.506 202.201 40.3769 201.475 40.8454C200.831 39.8876 199.675 38.9276 200.848 37.9012C198.437 37.4755 196.496 39.0083 196.307 41.5073ZM212.661 67.651C212.031 67.6046 211.59 67.3114 211.089 67.0951C208.901 67.5548 203.656 66.6337 202.104 67.2385C201.799 68.454 203.566 68.4404 204.295 68.7226C213.321 72.216 232.817 68.494 236.921 61.7702C236.854 61.4709 236.772 61.1918 236.365 61.3365C229.316 65.0615 220.706 66.753 212.661 67.651Z" fill="#525252"/>
<path fill-rule="evenodd" clip-rule="evenodd" d="M422.098 66.445C418.725 66.8972 414.59 65.0114 410.23 64.7187C406.069 64.4406 402.17 63.6935 399.226 62.7768C399.191 62.5267 399.274 62.394 399.442 62.3457C406.089 63.6743 416.122 63.5942 422.098 66.445Z" fill="#525252"/>
<path fill-rule="evenodd" clip-rule="evenodd" d="M462.015 71.6233C461.974 72.6084 459.299 75.4479 457.699 75.5071C455.864 75.5778 453.412 74.603 450.795 73.9972C445.889 72.8629 440.138 71.9866 436.985 70.9771C436.985 70.833 436.985 70.6892 436.985 70.5451C436.925 70.1597 437.19 70.1026 437.201 70.3291C444.601 71.4688 450.747 73.3 457.699 74.2129C459.399 73.7532 460.408 71.458 462.015 71.6233Z" fill="#525252"/>
<path fill-rule="evenodd" clip-rule="evenodd" d="M433.102 41.6321C437.35 42.2019 441.365 43.0061 442.595 46.5945C453.357 46.7392 459.296 54.921 463.093 63.2091C465.044 67.4673 465.209 70.816 464.604 76.3716C464.22 79.8903 463.293 83.0898 460.289 84.139C458.875 88.7059 458.194 93.434 456.405 97.5165C455.093 100.508 452.389 102.475 450.795 105.069C449.86 105.283 449.597 104.827 449.068 104.637C446.413 105.241 444.392 103.824 441.732 103.127C435.825 101.577 429.42 102.274 423.392 100.321C422.391 99.9974 421.497 99.3055 420.587 99.0265C417.581 98.1028 414.134 97.8764 410.877 97.0845C408.995 96.6282 407.129 95.5781 405.268 94.7115C401.044 92.744 397.582 92.3154 394.694 89.5331C394.687 84.8214 394.533 79.7203 394.479 74.8607C394.448 72.1102 395.328 69.2648 395.126 67.0936C394.999 65.7259 393.743 64.0391 394.047 62.5623C394.218 61.7345 395.803 60.2927 396.636 59.7573C400.538 57.248 407.887 55.6974 412.819 53.9311C415.295 53.0444 417.131 52.3235 419.292 50.911C419.962 50.6275 419.907 50.969 420.802 50.911C421.686 48.702 423.666 47.5888 426.196 47.0268C427.776 45.0111 428.552 42.1912 431.59 41.6327C431.201 39.1446 428.721 37.5994 428.138 36.0226C431.162 35.6741 431.908 39.4354 433.102 41.6321ZM427.708 48.9681C429.785 50.3815 431.98 51.6048 434.396 51.5572C437.611 51.4941 438.808 47.6827 440.869 46.1631C437.86 41.5838 426.659 41.4142 427.708 48.9681ZM437.417 51.9886C434.079 52.747 429.727 52.4685 427.492 50.6944C426.523 49.9252 426.791 48.8789 425.766 48.3204C419.783 49.5547 422.901 55.144 425.334 57.8147C428.045 59.2089 430.894 60.7128 435.044 60.6197C437.969 60.5538 440.753 58.9982 443.243 59.3249C446.282 59.7245 448.63 62.842 450.795 60.4037C452.205 53.5029 445.923 52.4915 444.321 47.8893C440.522 46.9139 439.173 49.8095 437.417 51.9886ZM451.874 60.8348C450.852 61.8269 449.368 62.3573 447.558 62.5617C444.087 59.2246 438.848 61.8865 434.612 61.9146C427.957 61.9584 421.391 57.9812 420.587 51.9883C418 52.3181 415.926 54.2093 413.251 55.2253C407.596 57.3704 402.113 58.2606 397.715 60.8348C396.558 61.5125 394.676 62.7477 395.558 64.503C402.431 65.8823 410.803 66.0069 417.35 67.525C419.523 68.0283 421.196 69.1967 423.392 69.8974C425.021 70.418 426.829 70.6145 428.57 71.1922C430.289 71.764 432.033 72.1897 433.749 72.7034C437.38 73.7892 441.069 74.2546 444.537 75.2915C448.093 76.3555 451.902 78.6594 451.873 82.4118C453.851 81.5846 454.879 79.8076 457.483 79.6074C458.475 80.6294 459.124 81.9937 460.72 82.4118C463.54 79.6064 464.683 70.8078 463.309 66.6613C462.549 64.3661 460.987 60.6929 459.21 58.0307C458.542 57.0317 457.245 56.0667 456.404 55.0096C453.63 51.52 450.225 49.4708 446.047 48.1053C448.116 52.1308 453.784 54.1878 451.874 60.8348ZM449.501 79.6074C446.14 76.7285 441.902 76.5504 437.201 75.2912C435.677 74.8837 434.223 74.2603 432.67 73.7813C429.574 72.8251 426.333 72.1727 423.177 71.1922C420.609 70.395 418.575 69.1465 416.057 68.6032C410.155 67.3301 402.458 66.741 396.422 66.0142C396.198 68.0201 396.141 70.1923 395.99 72.2714C398.599 72.3373 399.71 72.8333 401.816 73.5656C402.777 73.9005 403.958 74.0626 404.836 74.4296C407.367 75.4848 409.698 78.0694 411.956 78.3135C415.575 78.7033 419.013 74.9932 422.53 75.7235C425.425 76.3255 426.807 79.8322 429.002 81.3336C430.739 82.5216 433.205 83.2916 434.828 83.2756C436.493 83.2579 437.522 81.7568 440.006 81.3336C447.312 80.0896 448.283 89.0721 454.895 87.3748C455.348 85.6691 456.174 83.1904 455.758 81.3336C454.327 82.2046 453.372 83.5512 451.442 83.9227C450.623 82.6556 449.969 81.2229 449.501 79.6074ZM395.774 78.5283C399.165 79.1227 402.022 79.3573 405.268 80.2545C408.272 81.0851 410.803 83.2844 413.467 83.2756C414.695 83.2712 415.886 82.5275 416.919 82.4118C421.183 81.9394 425.48 82.8508 428.355 85.6489C429.369 86.6366 430.171 88.6208 431.376 89.3171C434.999 91.412 437.191 89.5779 439.79 88.4543C441.3 87.8018 442.949 87.0897 444.753 87.3751C448.019 87.8923 449.819 92.9531 453.6 92.1225C454.236 91.3199 454.096 89.7412 454.463 88.6703C448.384 89.3253 446.734 83.3427 442.811 82.6282C439.915 82.1015 437.652 84.4947 433.965 84.3544C427.97 84.128 425.86 77.0937 421.018 76.8033C419.174 76.6917 418.093 77.919 416.487 78.5292C411.194 80.5408 409.041 78.0492 405.052 76.1562C402.36 74.8781 399.178 73.5479 395.773 73.5662C396.083 74.8065 396.157 77.3003 395.774 78.5283ZM443.459 88.454C440.661 88.3679 438.8 91.0685 436.122 91.4741C434.394 91.7374 431.926 91.2123 430.513 90.3959C428.967 89.5022 428.509 87.576 426.845 86.0797C424.403 83.8864 420.17 83.0454 416.703 83.4916C415.274 83.6748 414.043 84.496 412.388 84.3534C410.637 84.204 408.89 82.8224 406.778 81.9804C403.645 80.731 399.627 80.2078 395.99 79.8231C396.014 81.3087 395.874 82.9593 396.206 84.1387C399.465 86.1465 402.862 86.0112 406.778 86.9437C408.995 87.4707 411.162 88.5101 413.467 88.8857C426.467 91.0026 439.575 95.2807 451.874 98.379C452.203 96.6222 453.014 95.3476 453.384 93.6317C448.641 94.2413 447.596 88.5801 443.459 88.454ZM456.405 86.512C456.536 86.8841 457.429 86.4959 457.484 86.9437C456.545 88.1632 455.291 89.0657 455.326 91.259C457.629 90.9282 458.677 87.6813 457.915 85.6489C459.724 84.4156 458.897 82.4989 457.268 81.766C456.722 83.0895 456.833 85.0699 456.405 86.512ZM399.874 91.4741C403.064 91.8446 405.696 93.8884 408.72 95.1423C411.458 96.2785 414.988 96.3466 418.214 97.0842C420.249 97.5497 421.958 98.5837 424.04 99.2421C427.299 100.273 431.576 100.71 435.476 101.184C440.614 101.808 445.41 103.524 449.716 103.126C450.498 101.822 450.957 100.196 451.658 98.8101C451.053 99.0681 450.169 99.0473 449.285 99.0261C432.521 94.5204 415.804 89.3915 397.069 86.2957C396.897 85.8208 396.635 85.4345 395.99 85.4338C395.381 89.3505 398.467 89.5725 399.874 91.4741ZM452.737 100.321C454.492 98.1211 455.832 95.504 456.621 92.3381C453.567 93.0966 453.827 98.3185 452.737 100.321Z" fill="#525252"/>
<path fill-rule="evenodd" clip-rule="evenodd" d="M529.095 252.639C530.23 254.569 530.613 256.804 530.02 259.428C532.749 262.133 534.095 265.391 539.351 267.081C545.358 274.351 548.281 280.041 546.691 291.481C545.847 297.557 547.679 302.753 542.989 306.962C544.141 314.056 537.797 317.863 532.601 321.866C526.841 326.307 521.186 331.227 514.396 332.744C503.882 335.092 494.034 330.005 483.07 329.352C462.17 323.859 440.199 308.539 431.453 291.776C431.44 290.698 431.257 289.685 432.234 288.209C429.192 283.761 423.879 276.49 422.949 270.774C422.162 265.928 426.351 255.297 428.773 250.862C430.693 247.349 435.259 244.946 438.753 241.655C442.382 238.233 445.73 233.982 449.114 232.62C450.975 231.869 454.119 231.881 457.146 231.353C459.645 230.917 462.646 229.925 464.796 229.913C470.954 229.883 477.154 233.192 483.895 232.674C487.451 232.401 493.694 230.26 498.029 234.171C499.828 235.792 499.933 239.352 501.441 240.615C503.985 242.75 507.646 243.261 509.831 244.412C514.012 246.613 516.863 249.519 521.459 251.144C523.621 250.473 526.158 250.941 529.095 252.639ZM488.665 234.342C489.862 235.924 493.369 236.579 493.04 238.771C489.998 239.022 487.221 236.643 485.225 234.744C478.627 234.112 471.83 232.867 465.169 232.042C461.063 233.387 457.018 234.927 452.165 234C450.644 235.888 447.437 235.936 447.176 238.602C451.445 241.157 454.658 239.411 457.097 242.111C461.377 246.848 451.782 252.869 452.623 259.204C461.629 267.432 466.261 253.95 474.612 256.902C476.594 263.946 481.234 266.217 488.532 263.69C492.437 267.334 494.921 271.546 496.5 276.118C494.377 284.714 494.633 299.142 505.591 293.957C507.101 291.625 508.779 289.799 510.022 286.648C513.833 283.954 518.825 282.734 523.213 285.266C525.991 286.871 527.314 290.028 531.215 290.848C534.356 291.509 536.911 289.017 540.203 289.525C541.474 290.1 542.745 290.675 544.016 291.25C548.797 276.748 536.383 269.138 527.34 260.177C527.705 257.427 528.522 254.496 525.079 253.271C523.671 255.091 526.56 256.346 524.488 257.415C521.379 256.936 520.504 255.314 519.73 252.812C512.103 249.488 506.433 243.939 498.569 241.764C498.007 236.893 494.41 232.463 488.665 234.342ZM458.861 315.944C465.189 320.294 474.618 324.977 482.321 326.07C487.752 326.842 495.328 322.644 499.329 326.414C496.763 327.179 493.921 327.099 491.296 327.68C503.992 331.724 517.223 332.113 524.947 324.284C523.19 324.564 519.869 325.281 518.642 323.88C526.841 321.803 535.444 320.953 540.496 309.262C539.262 308.531 536.769 309.052 536.488 307.939C542.955 306.267 543.961 300.116 544.196 293.781C536.897 290.19 532.264 295.218 525.098 291.021C521.61 288.979 520.907 286.484 518.242 285.957C511.988 284.724 512.907 290.453 507.88 294.993C504.496 298.049 497.396 298.028 494.503 294.821C492.376 292.462 492.134 284.648 492.657 280.262C492.873 278.469 493.966 277.093 493.636 275.312C493.184 272.884 489.74 267.673 487.559 266.682C484.488 265.284 480.49 268.62 476.67 266.163C474.075 264.496 475.08 261.361 471.732 259.029C469.096 258.143 467.906 261.559 465.219 262.942C459.934 265.664 451.212 263.58 449.563 259.778C447.539 255.113 455.047 249.228 455.176 244.183C452.115 240.631 447.099 242.666 444.302 239.753C440.785 243.72 433.874 246.569 430.868 252.299C427.587 258.553 429.027 265.623 432.313 270.599C429.957 269.526 428.271 266.127 426.803 263.695C423.968 269.369 427.308 272.852 429.037 276.469C430.306 279.121 430.464 282.487 431.488 283.949C432.409 285.263 434.237 285.539 435.297 286.654C435.719 287.096 435.306 288.019 436.052 288.956C436.985 290.126 437.638 291.287 438.518 292.523C440.88 295.833 445.083 297.01 447.274 300.407C442.818 299.878 438.603 294.797 435.648 293.673C440.763 301.1 449.527 309.526 458.861 315.944Z" fill="#525252"/>
<path fill-rule="evenodd" clip-rule="evenodd" d="M497.531 245.777C496.483 245.878 494.598 244.046 493.704 243.051C495.362 241.706 498.705 243.493 497.531 245.777Z" fill="#525252"/>
<path fill-rule="evenodd" clip-rule="evenodd" d="M476.343 239.431C475.945 240.139 476.403 240.502 475.95 241.231C476.878 241.736 477.315 240.745 478.065 240.707C479.938 246.644 467.806 244.172 466.934 239.606C469.421 237.559 472.634 237.739 476.343 239.431ZM470.193 240.591C470.95 241.313 472.46 242.596 473.642 242.157C474.715 239.847 471.079 240.016 470.193 240.591Z" fill="#525252"/>
<path fill-rule="evenodd" clip-rule="evenodd" d="M498.15 253.393C498.167 255.35 496.919 257.816 496.394 259.99C490.52 260.312 486.03 253.828 483.593 249.752C487.665 244.399 494.401 250.422 498.15 253.393ZM486.854 249.75C488.356 252.856 490.647 255.644 494.678 257.734C495.13 256.788 495.582 255.844 496.033 254.899C493.499 252.126 490.883 250.332 486.854 249.75Z" fill="#525252"/>
<path fill-rule="evenodd" clip-rule="evenodd" d="M513.898 263.261C512.548 265.087 510.975 266.23 509.298 267.053C504.968 265.803 502.366 261.498 504.571 256.59C508.454 256.33 514.287 259.764 513.898 263.261ZM506.662 259.006C504.274 261.546 508.697 267.968 511.607 263.202C510.741 261.625 509.102 258.899 506.662 259.006Z" fill="#525252"/>
<path fill-rule="evenodd" clip-rule="evenodd" d="M538.692 275.26C539.8 279.86 534.394 284.326 529.708 280.479C529.09 278.997 529.359 277.158 528.203 275.889C531.121 273.918 534.298 272.728 538.692 275.26ZM531.055 277.668C530.548 279.062 532.945 279.291 534.095 280.021C535.294 279.367 536.652 278.601 536.588 276.751C534.325 275.778 532.423 275.91 531.055 277.668Z" fill="#525252"/>
<path fill-rule="evenodd" clip-rule="evenodd" d="M522.108 277.159C519.667 278.239 513.88 277.283 512.927 273.984C515.978 270.139 523.62 271.464 522.108 277.159ZM516.18 274.965C517.442 274.84 519.223 276.304 520.012 274.734C518.797 275.002 516.851 273.039 516.18 274.965Z" fill="#525252"/>
<path fill-rule="evenodd" clip-rule="evenodd" d="M465.479 270.983C469.269 274.615 472.816 276.52 477.425 279.464C473.312 278.936 465.67 276.081 464.315 272.457C464.788 272.226 465.169 271.715 465.479 270.983Z" fill="#525252"/>
<path fill-rule="evenodd" clip-rule="evenodd" d="M535.96 305.272C532.213 308.344 527.453 308.323 522.789 308.599C524.875 306.053 530.89 306.947 533.869 303.837C534.833 304.209 535.733 304.604 535.96 305.272Z" fill="#525252"/>
<path fill-rule="evenodd" clip-rule="evenodd" d="M452.601 279.744C448.227 278.871 441.283 274.439 444.374 270.56C447.4 272.226 448.014 277.619 452.601 279.744Z" fill="#525252"/>
<path fill-rule="evenodd" clip-rule="evenodd" d="M492.296 312.237C486.233 314.48 475.892 312.949 467.877 308.072C464.453 305.988 462.591 301.673 459.184 299.484C452.77 295.357 442.838 294.997 440.214 290.721C441.586 288.349 442.133 290.356 443.316 291.136C449.136 294.091 455.594 294.05 460.746 297.155C464.727 299.554 466.527 304.401 470.405 306.696C477.493 310.897 484.311 309.396 492.296 312.237Z" fill="#525252"/>
<path fill-rule="evenodd" clip-rule="evenodd" d="M521.707 318.554C518.936 321.035 514.84 319.462 511.357 319.767C514.303 318.391 518.93 317.163 521.707 318.554Z" fill="#525252"/>
<path fill-rule="evenodd" clip-rule="evenodd" d="M452.349 292.272C459.832 294.052 465.622 304.516 472.42 308.579C480.91 313.65 490.685 312.881 498.331 317.467C493.124 317.732 486.153 317.069 480.334 314.746C477.188 313.488 473.144 312.264 470.473 310.715C466.91 308.645 465.927 303.518 461.982 303.778C459.588 299.609 456.385 295.77 452.349 292.272Z" fill="#525252"/>
<path fill-rule="evenodd" clip-rule="evenodd" d="M73.7752 133C77.5914 137.016 85.2226 132.549 91.5927 134.843C93.5672 135.554 95.43 137.589 97.4302 137.915C100.801 138.465 104.576 136.694 108.488 137.609C110.881 138.798 113.466 139.798 115.247 141.601C116.151 141.941 117.991 141.887 118.933 142.216C125.895 144.642 135.84 153.283 139.516 160.648C140.688 162.998 140.957 166.266 141.973 169.863C142.853 172.98 144.384 176.945 142.895 179.385C141.117 182.298 134.255 182.045 132.144 181.843C123.81 181.048 115.603 178.724 106.645 178.465C88.7673 177.947 68.9591 178.215 52.8867 178.771C43.7389 179.088 35.1591 181.238 26.7754 181.537C18.6306 181.827 10.8176 179.002 8.03708 174.778C7.6164 167.762 10.8319 160.892 14.795 156.039C21.583 147.727 29.7777 141.227 43.6711 140.066C45.0261 140.498 43.6761 138.227 44.5924 138.222C47.8888 138.138 51.688 135.401 56.5737 134.536C61.7952 133.611 67.7926 133.669 73.1623 133.614C73.4955 133.539 73.3689 133.004 73.7752 133ZM81.1478 143.137C79.0565 139.982 75.708 137.804 72.8539 135.458C63.258 134.39 54.1924 136.435 47.6638 139.451C50.5072 143.271 55.1927 148.501 52.8854 155.426C50.9328 156.32 50.6679 153.591 50.1211 152.661C47.794 148.704 44.5956 145.516 41.5192 142.83C32.841 142.019 28.0042 146.132 23.7022 149.896C22.6202 150.843 21.0276 151.336 20.3227 152.046C19.2102 153.167 18.1735 155.134 16.9442 156.654C13.533 160.871 9.64844 167.113 9.87876 173.549C10.985 177.291 16.9406 179.158 21.5516 179.693C30.1732 180.693 39.0763 178.307 47.9705 177.851C65.9276 176.929 85.4772 176.107 103.573 176.928C113.985 177.402 123.807 179.629 132.756 180.308C137.145 180.64 139.049 180.26 141.357 178.771C142.565 175.768 141.543 172.793 140.744 170.17C138.903 171.611 136.237 173.853 133.064 172.936C135.296 171.277 138.562 170.651 140.128 168.328C137.538 156.685 129.721 150.268 120.469 145.289C119.809 149.204 122.557 155.89 118.625 157.268C117.159 151.406 115.058 144.736 110.946 142.524C110.723 141.583 111.476 141.618 111.254 140.68C108.86 139.679 105.937 138.68 102.958 139.144C103.864 141.629 104.073 145.44 103.881 148.36C103.768 150.064 104.673 152.974 102.652 153.275C99.6001 149.569 97.5559 144.854 95.8938 139.759C93.7863 139.809 93.3701 137.228 91.5927 136.379C89.2055 135.239 86.139 135.699 82.9917 135.764C83.7514 137.217 85.6213 139.094 86.3702 141.601C87.2314 144.487 88.4288 149.121 85.7565 150.817C83.2961 148.891 82.8175 145.653 81.1478 143.137ZM78.3835 136.994C80.7311 140.686 84.005 143.453 85.756 147.746C85.1301 142.451 84.0315 136.273 78.3835 136.994ZM98.0435 140.066C99.1498 143.465 100.377 146.743 102.345 149.281C103.08 145.614 102.241 141.863 100.808 139.451C100.167 139.936 99.192 140.089 98.0435 140.066ZM46.435 140.986C44.9574 140.739 45.3251 142.335 43.6702 141.909C46.299 145.424 49.8234 148.044 51.9645 152.046C51.789 146.692 48.9816 143.97 46.435 140.986ZM115.554 144.366C117.164 146.237 117.468 149.415 119.24 151.123C119.411 148.496 119.003 146.446 118.625 144.366C117.738 143.846 116.31 143.471 115.554 144.366Z" fill="#525252"/>
<path fill-rule="evenodd" clip-rule="evenodd" d="M122.619 172.321C118.091 173.65 113.203 171.815 108.181 171.092C103.092 170.358 97.4302 170.048 91.8998 169.863C75.9963 169.333 58.7835 169.473 44.2844 170.478C47.8924 168.926 52.2681 168.642 56.5724 168.328C71.9088 167.206 90.4209 168.182 106.338 169.248C112.119 169.636 117.637 171.49 122.619 172.321Z" fill="#525252"/>
<path fill-rule="evenodd" clip-rule="evenodd" d="M174.522 316.35C174.808 317.793 175.17 318.879 175.013 321.017C174.427 328.942 170.957 331.565 165.936 335.262C159.915 339.697 151.805 342.881 143.614 344.84C137.17 346.382 130.223 347.561 124.726 348.77C123.867 348.729 123.954 349.635 123.5 349.998C122.834 350.174 123.675 348.839 123.009 349.015C121.82 349.129 120.622 349.839 119.33 349.998C117.009 350.284 113.54 349.183 111.48 350.98C110.543 351.182 111.191 349.797 110.253 349.998C104.587 350.492 100.369 349.853 95.7806 347.542C89.4368 344.348 83.128 342.714 81.0623 335.508C73.3873 333.209 75.8216 323.098 79.3454 318.07C83.3392 313.803 87.4248 308.643 92.8365 305.299C100.265 300.708 109.88 298.302 120.555 295.965C124.782 295.041 131.535 293.974 137.235 294C142.912 294.028 150.298 295.576 156.369 296.703C159.648 297.311 163.985 297.48 166.181 298.667C167.339 299.293 169 300.974 170.596 302.105C173.502 304.168 178.177 307.678 176.728 313.649C176.372 315.123 175.44 315.107 174.522 316.35ZM140.425 295.229C139.802 296.815 138.156 297.378 137.482 298.914C148.109 298.848 157.883 299.57 163.729 304.808C164.815 303.534 168.267 304.307 167.408 306.281C168.509 306.079 168.504 306.985 169.125 307.264C169.125 306.609 169.125 305.953 169.125 305.3C166.563 302.38 163.519 299.942 159.313 298.668C159.079 299.125 160.048 299.488 159.313 299.65C158.024 299.412 158.164 298.388 157.596 297.93C152.041 296.927 146.094 295.338 140.425 295.229ZM125.953 302.843C128.093 302.447 130.409 302.23 133.067 302.352C133.756 299.277 136.79 298.548 137.727 295.72C129.978 294.266 129.157 299.747 125.953 302.843ZM106.329 301.124C105.406 301.638 104.451 302.49 104.366 303.58C106.041 303.571 107.37 302.069 109.027 302.843C112.629 300.18 119.944 300.937 124.48 299.895C124.969 300.143 125.041 300.808 125.462 301.124C126.23 299.274 127.862 298.288 128.896 296.703C120.866 297.303 111.592 298.19 106.329 301.124ZM134.783 302.352C138.366 302.04 140.782 302.895 142.143 304.808C142.523 302.897 143.944 302.028 144.841 300.633C141.268 300.601 135.945 299.06 134.783 302.352ZM147.048 300.633C143.329 303.457 142.324 309 141.162 314.385C143.948 314.707 146.474 315.289 148.766 316.105C150.168 310.96 151.668 305.913 153.917 301.615C151.877 301.037 149.272 301.026 147.048 300.633ZM104.367 305.544C104.541 306.132 106.1 304.828 106.084 306.035C104.644 309.023 102.168 313.079 101.668 317.825C104.367 317.16 106.276 317.21 109.273 316.842C111.338 312.279 113.503 307.815 116.632 304.316C117.559 303.96 117.103 304.992 117.858 304.808C119.672 303.431 123.848 304.419 124.481 301.86C117.002 301.234 110.052 303.059 104.367 305.544ZM102.895 302.597C102.867 302.298 102.821 302.016 102.404 302.106C97.2505 303.577 93.7507 306.705 91.6111 311.194C93.6227 310.916 95.2393 310.242 97.253 309.965C98.0737 306.448 100.448 304.486 102.895 302.597ZM154.653 303.334C156.156 302.983 157.583 303.992 158.577 303.334C157.285 303.072 156.65 302.153 155.143 302.106C155.181 302.717 154.758 302.866 154.653 303.334ZM138.218 303.58C127.235 303.765 115.643 303.603 112.952 312.667C113.9 312.619 114.759 312.659 115.405 312.913C121.114 309.607 131.097 309.887 138.463 308.983C139.589 308.756 139.648 309.597 140.671 309.474C141.156 308.16 141.683 306.886 141.897 305.3C140.073 305.325 139.124 304.474 138.218 303.58ZM170.597 307.509C168.42 309.017 169.505 311.739 168.88 314.14C167.973 317.624 164.57 319.063 161.766 321.263C159.063 321.389 155.46 322.867 153.426 324.455C152.092 325.499 151.44 327.125 149.992 327.649C148.251 328.277 147.001 327.816 145.822 328.14C143.649 328.736 142.683 329.594 141.161 330.596C136.933 332.804 132.841 333.331 126.688 333.789C124.083 333.983 121.306 334.851 118.838 335.016C115.757 335.223 113.21 334.313 110.743 334.525C106.937 334.853 104.509 336.937 101.177 336.735C98.8624 336.596 94.7076 334.978 92.8365 334.28C89.4532 333.017 88.1891 331.62 86.459 329.122C83.4159 328.7 80.5589 326.269 78.8549 323.719C75.2677 328.247 78.7373 335.298 84.9873 334.524C88.5545 336.651 91.7768 341.675 97.4972 341.402C99.9487 341.285 102.161 339.319 104.611 339.437C109.391 339.667 113.045 343.947 117.857 343.612C123.443 343.222 125.803 338.079 132.085 338.209C132.935 338.34 133.391 338.865 134.292 338.945C134.834 338.588 134.777 337.63 135.518 337.472C136.476 337.92 135.135 339.152 136.5 339.191C143.512 339.362 143.226 332.872 150.482 332.315C153.316 332.098 156.02 332.821 158.331 332.069C161.284 331.108 164.015 328.252 164.219 324.947C167.487 322.211 174.982 322.783 173.049 315.614C173.75 314.597 174.904 314.033 175.502 312.913C175.382 308.203 173.469 305.287 170.105 303.825C170.257 305.066 170.559 306.156 170.597 307.509ZM98.9699 309.229C100.751 309.25 101.946 307.797 103.385 308.246C103.48 307.44 104.102 307.163 104.367 306.527C103.436 306.714 102.092 306.95 102.159 305.544C102.508 304.736 103.091 305.31 103.14 304.562C101.579 304.992 100.138 307.594 98.9699 309.229ZM151.709 311.684C158.386 311.062 163.331 313.467 167.163 314.877C167.924 312.968 167.315 310.447 168.144 308.246C164.692 305.644 159.163 305.122 153.917 304.316C153.245 306.837 152.212 308.995 151.709 311.684ZM84.252 315.123C87.4291 313.31 90.5173 311.408 91.856 307.755C88.8689 309.595 85.8764 312.737 84.252 315.123ZM81.063 319.789C80.9293 319.432 81.3498 318.52 80.8178 318.561C80.5252 319.824 79.511 320.364 79.3461 321.754C80.7235 323.568 81.5595 325.924 84.252 326.42C84.2555 325.433 84.9586 323.865 84.4975 323.228C84.0501 323.845 83.9017 324.76 82.5351 324.455C82.5454 324.117 82.4193 323.916 82.2895 323.719C85.6459 317.827 94.5212 317.464 100.932 314.631C101.09 312.74 102.557 310.859 102.404 309.474C94.2555 312.413 85.766 313.494 81.063 319.789ZM121.537 311.93C121.96 313.704 120.81 315.697 119.82 316.842C118.816 321.075 117.406 324.904 115.404 328.14C115.211 330.321 114.352 331.835 113.688 333.544C117.924 334.219 121.142 332.968 124.971 332.56C125.57 328.084 126.061 324.16 126.934 320.28C127.694 316.905 129.102 313.387 131.103 311.44C131.929 312.063 131.175 312.807 131.594 313.65C127.696 317.986 127.591 325.485 126.688 332.316C130.027 332.882 133.281 332.1 135.764 331.087C134.771 329.196 136.1 326.029 136.5 323.965C134.875 322.883 130.032 325.533 129.877 322.982C136.8 322.217 145.927 322.549 150.973 325.193C151.827 323.592 153.843 323.154 154.897 321.754C150.349 317.226 142.867 314.866 134.047 315.369C133.315 315.656 131.183 317.214 130.858 315.614C132.724 313.813 136.433 313.928 139.689 314.14C139.602 312.825 140.418 312.415 140.18 310.948C134.084 309.571 127.559 311.637 121.537 311.93ZM93.3277 329.368C99.446 327.143 105.126 324.479 113.442 324.455C114.192 324.687 114.211 325.65 115.16 325.684C117.3 321.277 118.262 315.692 121.292 312.175C118.114 312.842 115.532 314.104 111.971 314.385C111.623 315.103 111.051 315.594 110.989 316.596C112.552 317.413 116.348 314.824 116.386 317.824C109.727 318.065 101.694 318.269 97.0071 321.509C96.0549 322.167 95.7362 323.521 94.3086 323.474C93.6812 323.298 94.1659 321.642 93.8181 322.736C93.0595 324.351 93.4058 327.072 93.3277 329.368ZM151.218 313.404C150.832 314.572 150.434 315.729 149.992 316.842C152.837 317.596 154.523 319.511 156.615 321.018C160.093 319.915 164.151 319.394 165.691 316.351C161.929 314.066 156.852 312.476 151.218 313.404ZM94.3089 321.754C96.0918 319.936 99.023 319.269 101.178 317.824C100.21 318.137 100.541 317.152 100.196 316.842C93.7235 318.63 85.2579 318.423 85.7237 327.157C89.0248 328.846 89.754 333.109 94.8001 333.051C94.7753 332.044 94.7517 331.038 95.0453 330.35C94.13 330.743 93.4173 331.34 91.8563 331.087C91.8044 326.04 91.6 320.841 94.5549 318.807C96.2496 319.549 93.9963 321.119 94.3089 321.754ZM171.578 323.474C171.846 325.846 171.038 326.998 171.578 328.631C171.952 326.302 173.498 323.842 173.295 321.754C172.911 322.517 171.942 322.691 171.578 323.474ZM137.236 330.841C140.39 329.906 142.405 327.829 145.577 326.912C145.523 326.121 146.011 325.872 145.822 324.947C142.794 324.042 140.68 324.237 137.973 323.965C137.445 325.896 136.32 328.992 137.236 330.841ZM168.634 324.21C168.543 326.656 168.862 329.513 168.39 331.579C171.015 330.489 170.023 327.058 170.352 323.965C169.501 323.767 169.409 324.33 168.634 324.21ZM165.445 326.175C166.074 328.61 165.174 331.185 165.2 333.789C166.162 333.605 166.533 332.831 167.408 332.56C167.056 329.919 167.867 326.958 166.672 324.947C166.203 325.297 165.795 325.705 165.445 326.175ZM147.048 326.42C147.986 326.459 148.835 326.408 149.256 325.929C148.71 325.413 146.892 324.993 147.048 326.42ZM107.31 326.42C107.043 329.428 104.885 331.85 105.347 334.771C107.889 334.287 109.565 332.936 112.706 333.051C112.478 330.567 114.221 328.275 114.914 325.929C112.59 326.366 109.882 325.828 107.31 326.42ZM97.253 329.122C96.4145 330.165 96.3159 331.95 96.0262 333.544C98.1841 334.412 99.9645 335.658 103.385 335.262C103.469 332.116 105.91 328.836 105.348 326.666C102.84 327.676 100.041 328.394 97.253 329.122ZM161.766 336C162.836 335.924 163.346 335.289 163.974 334.771C163.84 332.483 164.512 330.921 163.974 329.368C162.315 330.543 161.174 333.366 161.766 336ZM158.577 333.297C158.85 334.865 158.083 337.506 158.823 337.964C159.431 337.673 159.637 336.977 160.54 336.981C160.627 334.657 160.944 331.167 158.577 333.297ZM148.275 341.894C149.025 342.071 149.169 341.642 149.747 341.648C149.078 339.37 150.206 336.22 149.011 333.789C147.789 335.512 149.092 339.765 148.275 341.894ZM150.973 341.157C152.47 340.989 151.792 339.218 151.709 337.719C151.632 336.31 152.021 333.921 150.728 333.789C151.331 335.737 150.28 338.698 150.973 341.157ZM153.181 340.42C153.475 339.178 154.485 335.04 152.936 333.789C153.048 336.686 153.061 339.236 153.181 340.42ZM154.898 334.034C155.025 336.208 154.758 337.988 154.653 339.929C155.792 339.596 156.714 339.045 157.351 338.21C157.411 336.594 156.919 335.531 157.106 333.789C156.119 333.619 155.705 334.024 154.898 334.034ZM145.577 342.631C146.067 342.631 146.558 342.631 147.048 342.631C147.466 339.996 147.279 337.128 147.048 335.016C145.109 336.104 146.196 340.221 145.577 342.631ZM82.7803 336.491C83.394 336.532 83.5482 336.114 83.7615 335.754C83.0682 335.956 83.1262 335.407 82.5354 335.508C82.4798 335.972 82.8111 336.05 82.7803 336.491ZM87.1953 341.648C86.9946 339.847 84.8353 338.821 85.7237 336.735C84.9686 336.919 85.2526 336.062 84.4975 336.245C84.1921 339.252 85.6466 340.497 87.1953 341.648ZM141.407 339.683C141.34 341.172 141.033 342.419 140.916 343.859C142.03 343.582 143.308 343.47 144.35 343.121C144.413 341.325 145.052 338.91 144.35 337.473C143.688 338.528 142.477 339.036 141.407 339.683ZM91.856 344.105C91.7477 340.857 89.0406 340.209 87.4409 338.456C88.0443 341.06 89.2202 344.347 91.856 344.105ZM128.16 347.051C128.945 346.691 129.748 346.348 130.859 346.314C131.275 344.577 131.162 341.934 130.859 340.174C126.933 339.153 128.203 345.804 128.16 347.051ZM132.086 346.069C133.066 346.068 133.558 345.578 134.539 345.578C134.199 344.165 134.454 342.185 134.293 340.665C133.718 340.423 133.088 340.235 132.331 340.174C131.976 342.368 132.182 343.617 132.086 346.069ZM135.764 340.91C135.519 342.212 135.552 343.373 135.519 345.332C136.853 344.703 138.728 344.614 139.934 343.858C139.934 342.63 139.934 341.402 139.934 340.173C138.476 340.351 137.276 340.787 135.764 340.91ZM105.593 348.771C106.165 348.771 106.737 348.771 107.31 348.771C106.396 346.575 106.2 343.66 105.593 341.157C104.819 341.277 104.727 340.715 103.876 340.91C104.111 343.867 105.029 346.143 105.593 348.771ZM100.196 341.894C100.08 344.793 101.326 346.329 101.914 348.525C102.649 348.525 103.385 348.525 104.121 348.525C103.393 346.225 102.573 344.016 102.404 341.157C101.33 341.064 101.143 341.858 100.196 341.894ZM124.236 347.542C125.136 347.379 126.101 347.281 126.934 347.051C126.477 345.282 127.298 343.131 126.689 341.157C124.502 341.914 124.866 345.227 124.236 347.542ZM96.0262 346.314C96.1495 344.635 95.2812 343.949 95.2905 342.385C94.2612 342.515 93.9199 341.956 93.0828 341.894C92.8555 344.576 94.2691 345.617 96.0262 346.314ZM108.537 349.015C108.567 348.474 109.577 348.911 110.009 348.77C109.781 346.541 109.498 344.368 109.027 342.384C108.482 342.194 108.071 341.868 107.31 341.894C107.837 344.688 107.84 346.494 108.537 349.015ZM100.196 347.542C99.3984 346.213 98.5555 344.928 98.7247 342.631C98.0704 342.631 97.4161 342.631 96.7622 342.631C97.357 344.656 97.3993 348.54 100.196 347.542ZM111.48 348.771C112.467 348.613 114.088 349.09 114.669 348.525C114.002 347.718 113.744 346.503 113.688 345.086C113.251 344.868 113.064 344.401 112.216 344.595C113.082 343.743 110.721 343.095 110.499 343.367C111.249 344.744 111.191 346.931 111.48 348.771ZM119.575 345.823C119.641 346.657 119.385 347.814 119.821 348.28C121.421 348.49 122.095 347.773 123.5 347.788C122.955 346.403 123.961 344.826 123.009 344.105C122.288 345.1 120.684 345.215 119.575 345.823ZM115.16 348.771C116.657 348.96 117.455 348.449 118.839 348.525C118.475 347.742 118.838 346.234 118.349 345.578C117.065 346.461 116.452 345.501 115.16 345.578C114.505 346.559 115.911 347.752 115.16 348.771Z" fill="#525252"/>
</svg>
