<svg width="26" height="26" viewBox="0 0 26 26" fill="none" xmlns="http://www.w3.org/2000/svg">
<path d="M25.4829 0.51706C24.7935 -0.172354 23.6758 -0.172353 22.9864 0.51706L13 10.5034L3.01365 0.517062C2.32423 -0.172351 1.20647 -0.172351 0.51706 0.517063C-0.172353 1.20648 -0.172353 2.32424 0.517061 3.01365L10.5034 13L0.51706 22.9863C-0.172354 23.6758 -0.172353 24.7935 0.51706 25.4829C1.20647 26.1723 2.32423 26.1723 3.01365 25.4829L13 15.4966L22.9864 25.4829C23.6758 26.1724 24.7935 26.1724 25.4829 25.4829C26.1724 24.7935 26.1724 23.6758 25.4829 22.9864L15.4966 13L25.4829 3.01365C26.1724 2.32423 26.1724 1.20647 25.4829 0.51706Z" fill="white"/>
</svg>
