<svg width="40" height="40" viewBox="0 0 40 40" fill="none" xmlns="http://www.w3.org/2000/svg">
<path d="M8.57313 25.144C7.75179 25.144 6.97313 25.0373 6.23713 24.824C5.51179 24.6 4.91979 24.3013 4.46112 23.928C4.21579 23.7467 4.09312 23.4907 4.09312 23.16C4.09312 22.936 4.15712 22.744 4.28512 22.584C4.42379 22.4133 4.58379 22.328 4.76513 22.328C4.95713 22.328 5.17579 22.4027 5.42112 22.552C5.87979 22.8827 6.35979 23.1227 6.86112 23.272C7.36246 23.4213 7.91713 23.496 8.52513 23.496C9.30379 23.496 9.90113 23.3627 10.3171 23.096C10.7331 22.8187 10.9411 22.4187 10.9411 21.896C10.9411 21.4907 10.7438 21.1813 10.3491 20.968C9.96512 20.744 9.31979 20.5307 8.41313 20.328C7.47446 20.1253 6.71179 19.8907 6.12512 19.624C5.53846 19.3573 5.09579 19.016 4.79712 18.6C4.49846 18.184 4.34912 17.656 4.34912 17.016C4.34912 16.3547 4.53579 15.7627 4.90913 15.24C5.28246 14.7173 5.79979 14.312 6.46113 14.024C7.13313 13.7253 7.88512 13.576 8.71712 13.576C10.2425 13.576 11.4851 13.9813 12.4451 14.792C12.5838 14.9093 12.6798 15.0267 12.7331 15.144C12.7971 15.2507 12.8291 15.3893 12.8291 15.56C12.8291 15.784 12.7598 15.9813 12.6211 16.152C12.4931 16.312 12.3385 16.392 12.1571 16.392C12.0505 16.392 11.9491 16.376 11.8531 16.344C11.7678 16.312 11.6505 16.2533 11.5011 16.168C11.0638 15.848 10.6371 15.6133 10.2211 15.464C9.81579 15.304 9.31446 15.224 8.71712 15.224C7.99179 15.224 7.41579 15.3733 6.98913 15.672C6.57313 15.96 6.36513 16.3653 6.36513 16.888C6.36513 17.3253 6.55179 17.6613 6.92513 17.896C7.29846 18.1307 7.93313 18.3493 8.82913 18.552C9.77846 18.7653 10.5465 19.0053 11.1331 19.272C11.7305 19.528 12.1838 19.8587 12.4931 20.264C12.8131 20.6693 12.9731 21.176 12.9731 21.784C12.9731 22.4453 12.7865 23.032 12.4131 23.544C12.0505 24.0453 11.5331 24.44 10.8611 24.728C10.1998 25.0053 9.43713 25.144 8.57313 25.144Z" fill="white"/>
<path d="M30.9591 25.144C29.8711 25.144 28.9165 24.9093 28.0951 24.44C27.2845 23.9707 26.6605 23.2987 26.2231 22.424C25.7858 21.5493 25.5671 20.5253 25.5671 19.352C25.5671 18.1787 25.7858 17.16 26.2231 16.296C26.6605 15.4213 27.2845 14.7493 28.0951 14.28C28.9165 13.8107 29.8711 13.576 30.9591 13.576C31.6631 13.576 32.3245 13.6827 32.9431 13.896C33.5618 14.0987 34.1111 14.3973 34.5911 14.792C34.7298 14.8987 34.8258 15.0107 34.8791 15.128C34.9325 15.2453 34.9591 15.3893 34.9591 15.56C34.9591 15.7947 34.8951 15.992 34.7671 16.152C34.6391 16.312 34.4845 16.392 34.3031 16.392C34.0898 16.392 33.8711 16.3173 33.6471 16.168C33.1885 15.8267 32.7618 15.592 32.3671 15.464C31.9725 15.3253 31.5351 15.256 31.0551 15.256C29.9458 15.256 29.1031 15.6027 28.5271 16.296C27.9618 16.9893 27.6791 18.008 27.6791 19.352C27.6791 20.7067 27.9618 21.7307 28.5271 22.424C29.1031 23.1173 29.9458 23.464 31.0551 23.464C31.5138 23.464 31.9351 23.3947 32.3191 23.256C32.7138 23.1173 33.1565 22.8827 33.6471 22.552C33.7538 22.488 33.8605 22.4347 33.9671 22.392C34.0738 22.3493 34.1858 22.328 34.3031 22.328C34.4845 22.328 34.6391 22.408 34.7671 22.568C34.8951 22.728 34.9591 22.9253 34.9591 23.16C34.9591 23.32 34.9325 23.464 34.8791 23.592C34.8258 23.7093 34.7298 23.8213 34.5911 23.928C34.1111 24.3227 33.5618 24.6267 32.9431 24.84C32.3245 25.0427 31.6631 25.144 30.9591 25.144Z" fill="white"/>
<path fill-rule="evenodd" clip-rule="evenodd" d="M40 20C40 31.0457 31.0457 40 20 40C14.7624 40 9.99502 37.9867 6.42957 34.6917L5.00431 36.117C4.41852 36.7028 3.46877 36.7028 2.88299 36.117C2.2972 35.5312 2.2972 34.5815 2.88299 33.9957L4.38306 32.4956C1.6404 29.0723 0 24.7277 0 20C0 8.9543 8.9543 0 20 0C24.7277 0 29.0723 1.6404 32.4956 4.38306L33.9957 2.88299C34.5815 2.29721 35.5312 2.29721 36.117 2.88299C36.7028 3.46878 36.7028 4.41853 36.117 5.00431L34.6917 6.42957C37.9867 9.99502 40 14.7624 40 20ZM23.8963 23.704C24.0243 23.896 24.0882 24.0827 24.0882 24.264C24.0882 24.5093 23.9869 24.712 23.7843 24.872C23.5923 25.032 23.3629 25.112 23.0963 25.112C22.9256 25.112 22.7603 25.0747 22.6003 25C22.4509 24.9147 22.3229 24.792 22.2163 24.632L20.0882 21.4C20.0395 21.322 19.9899 21.2493 19.9395 21.1818L16.895 24.2263C16.8678 24.4681 16.7802 24.6674 16.6322 24.824C16.4782 24.9781 16.2779 25.0667 16.0315 25.0898L8.55285 32.5685C11.5737 35.3214 15.5908 37 20 37C29.3888 37 37 29.3888 37 20C37 15.5908 35.3214 11.5737 32.5685 8.55284L23.774 17.3473C23.7225 18.0883 23.4752 18.7085 23.0322 19.208C22.5416 19.7627 21.8429 20.12 20.9363 20.28C21.2456 20.3547 21.5176 20.488 21.7523 20.68C21.9869 20.872 22.2163 21.1387 22.4403 21.48L23.8963 23.704ZM14.8722 14.696C14.8722 14.3867 14.9576 14.1467 15.1283 13.976C15.3096 13.8053 15.5549 13.72 15.8643 13.72H19.8643C20.9786 13.72 21.8584 13.9383 22.5039 14.3748L30.359 6.51966C27.491 4.31246 23.8988 3 20 3C10.6112 3 3 10.6112 3 20C3 23.8988 4.31246 27.491 6.51966 30.359L14.8722 22.0064V14.696ZM16.8883 15.32H19.5763C20.291 15.32 20.8305 15.4413 21.1947 15.684L17.9907 18.888H16.8883V15.32Z" fill="white"/>
</svg>
