<svg width="144" height="144" viewBox="0 0 144 144" fill="none" xmlns="http://www.w3.org/2000/svg">
<rect width="144" height="144" rx="50" fill="#333333"/>
<path fill-rule="evenodd" clip-rule="evenodd" d="M72.5688 30.0597C72.7181 17.6222 67.1356 5.11862 56.9234 5.00083C46.7112 4.88305 40.8303 17.2544 40.6811 29.692C40.5319 42.1295 43.6174 50.7768 51.5204 56.6092L48.9848 135.043C48.9848 135.043 52.0257 138.602 54.5193 138.934C55.1379 139.016 55.4933 139.021 56.1137 138.952C58.6145 138.678 61.74 135.19 61.74 135.19L61.0868 56.7195C69.1276 51.0711 72.4196 42.4973 72.5688 30.0597ZM57.2607 50.4671C55.8929 50.5224 54.4609 50.2011 53.2794 49.186L53.6947 48.7212C54.7251 49.6065 55.9847 49.9002 57.2347 49.8497C58.4885 49.799 59.7153 49.4015 60.641 48.9268C63.2774 47.575 65.4591 44.9925 67.0021 41.7409C68.5436 38.4925 69.4355 34.6003 69.5085 30.6679C69.7064 19.9909 66.5787 13.4882 62.7627 9.12939L63.2409 8.7269C67.1651 13.2093 70.3391 19.8624 70.1386 30.6791C70.0642 34.6911 69.1549 38.6692 67.5735 42.0016C65.9937 45.3309 63.7308 48.0398 60.9331 49.4744C59.942 49.9826 58.6247 50.4119 57.2607 50.4671ZM50.7878 100.968L49.8627 133.73L49.9394 133.82L49.972 133.793C49.9395 133.82 49.9394 133.82 49.9394 133.82L49.9402 133.821L49.9419 133.823L49.948 133.83L49.9709 133.856C49.991 133.879 50.0203 133.913 50.0581 133.955C50.1337 134.039 50.2436 134.159 50.3819 134.303C50.6581 134.592 51.0489 134.981 51.5072 135.379C51.9647 135.776 52.4943 136.188 53.0482 136.519C53.5989 136.849 54.1927 137.111 54.7759 137.188C55.3199 137.261 55.6438 137.265 56.1894 137.205C56.7743 137.14 57.3743 136.892 57.9327 136.575C58.4944 136.257 59.0338 135.858 59.5007 135.471C59.9683 135.084 60.3684 134.704 60.6514 134.422C60.7931 134.28 60.9059 134.163 60.9835 134.081C61.0223 134.039 61.0524 134.007 61.073 133.985L61.0966 133.959L61.1029 133.952L61.1046 133.95L61.1051 133.949C61.1052 133.949 61.1054 133.949 60.8687 133.745C60.6319 133.541 60.632 133.541 60.632 133.541L60.6306 133.543L60.6256 133.548L60.6045 133.571C60.5926 133.584 60.5768 133.601 60.5575 133.622C60.5464 133.634 60.5341 133.647 60.5206 133.661C60.4468 133.74 60.3386 133.852 60.202 133.989C59.9285 134.261 59.5429 134.627 59.0939 134.999C58.6442 135.372 58.1359 135.746 57.6172 136.041C57.0953 136.337 56.5821 136.54 56.1192 136.591C55.6252 136.645 55.3534 136.642 54.8608 136.576C54.3993 136.515 53.8911 136.3 53.3764 135.992C52.8649 135.686 52.3658 135.299 51.9251 134.916C51.4852 134.534 51.1085 134.16 50.8416 133.881C50.7083 133.741 50.6028 133.626 50.531 133.546L50.4993 133.511L51.4178 100.985L50.7878 100.968Z" fill="white"/>
<path fill-rule="evenodd" clip-rule="evenodd" d="M81.0706 136.61L79.2484 136.589L75.057 99.311C75.0792 97.4605 76.0125 95.6206 77.8569 93.7911L83.3899 88.3028C83.9593 87.738 84.3232 86.4628 84.3232 86.4628L83.4113 10.5729C83.4113 10.5729 86.9647 6.91243 89.8332 6.94551C92.7017 6.9786 96.1664 10.72 96.1664 10.72L96.1204 11.9952C95.8906 11.7828 95.6323 11.5553 95.3526 11.3268C94.7993 10.8746 94.1566 10.4136 93.4799 10.0572C92.8057 9.70224 92.0788 9.44119 91.3615 9.41114L91.3346 10.0285C91.921 10.0531 92.5522 10.2701 93.1818 10.6016C93.8088 10.9318 94.4157 11.3655 94.9491 11.8014C95.3957 12.1664 95.7867 12.5296 96.0904 12.8285L95.0528 41.6324L94.8803 44.628L94.9447 44.6316L93.434 86.5679C93.434 86.5679 93.7671 87.8511 94.3229 88.4289L99.7227 94.0433C101.523 95.9148 102.412 97.7758 102.389 99.6262L97.208 136.806L95.3859 136.785L97.723 108.826C97.723 108.826 97.7341 107.901 95.9119 107.88C94.0898 107.859 94.0787 108.784 94.0787 108.784L91.9008 136.74L90.0787 136.719L90.4343 108.742C90.4343 108.742 90.3932 107.816 88.6233 107.796C86.8534 107.775 86.79 108.7 86.79 108.7L86.427 136.674L84.6048 136.653L83.1457 108.658C83.1457 108.658 83.1568 107.733 81.3347 107.712C79.5125 107.691 79.5014 108.616 79.5014 108.616L81.0706 136.61ZM79.2011 94.8753C77.6335 96.3369 76.7779 97.8663 76.7084 99.4627L77.338 99.4891C77.3983 98.1063 78.1394 96.7179 79.6353 95.3231L84.2306 91.0385L83.7964 90.5907L79.2011 94.8753Z" fill="white"/>
<path d="M33.8029 25.465C19.9055 36.3342 11 53.0803 11 71.8658C11 92.2372 21.4725 110.21 37.4267 120.891L37.1564 113.775C24.6654 103.921 16.6719 88.8088 16.6719 71.8658C16.6719 56.362 23.3652 42.391 34.0731 32.5795L33.8029 25.465Z" fill="white"/>
<path d="M108.95 111.131C119.644 101.321 126.328 87.3587 126.328 71.8658C126.328 54.9339 118.345 39.8302 105.868 29.976L105.597 22.8566C121.538 33.5396 132 51.5048 132 71.8658C132 90.6411 123.104 107.379 109.22 118.249L108.95 111.131Z" fill="white"/>
</svg>
