<svg width="46" height="46" viewBox="0 0 46 46" fill="none" xmlns="http://www.w3.org/2000/svg">
<g clip-path="url(#clip0_21:1104)">
<path d="M37.7377 35.3846H18.63C17.4641 35.3869 16.3298 35.0052 15.4025 34.2985C14.4751 33.5918 13.8063 32.5994 13.4992 31.4746L8.84615 14.6139C8.77459 14.3514 8.7645 14.076 8.81666 13.8091C8.86883 13.5421 8.98184 13.2908 9.14692 13.0746C9.3189 12.8508 9.54194 12.6714 9.7974 12.5514C10.0529 12.4313 10.3333 12.3742 10.6154 12.3846H44.2308C44.4907 12.3842 44.7475 12.441 44.983 12.5511C45.2184 12.6612 45.4267 12.8218 45.5931 13.0215C45.7573 13.2215 45.8757 13.455 45.9399 13.7057C46.0041 13.9563 46.0125 14.218 45.9646 14.4723L42.9569 31.0323C42.7334 32.2537 42.0888 33.3581 41.1352 34.1533C40.1816 34.9485 38.9794 35.3842 37.7377 35.3846ZM12.9685 15.9231L16.9492 30.5369C17.0529 30.9229 17.2842 31.2624 17.6055 31.5001C17.9267 31.7379 18.319 31.8598 18.7185 31.8462H37.8262C38.2451 31.853 38.6528 31.7109 38.9768 31.4453C39.3008 31.1796 39.52 30.8075 39.5954 30.3954L42.1077 15.9231H12.9685Z" fill="white"/>
<path d="M10.6154 15.9231C10.2183 15.9378 9.82781 15.8183 9.50685 15.584C9.1859 15.3497 8.95317 15.0142 8.84615 14.6315L6.10385 4.83001C5.99683 4.44732 5.7641 4.1118 5.44314 3.8775C5.12219 3.64321 4.73171 3.52378 4.33461 3.53847H1.76923C1.3 3.53847 0.849991 3.35207 0.518196 3.02027C0.1864 2.68848 0 2.23847 0 1.76924C0 1.30001 0.1864 0.849996 0.518196 0.518201C0.849991 0.186406 1.3 5.30717e-06 1.76923 5.30717e-06H4.40538C5.56139 -0.00162891 6.68633 0.374193 7.60922 1.07035C8.53211 1.76651 9.20249 2.74494 9.51846 3.85693L12.3846 13.6762C12.4565 13.9085 12.4798 14.1531 12.4529 14.3949C12.426 14.6366 12.3496 14.8702 12.2284 15.081C12.1072 15.2919 11.9438 15.4755 11.7485 15.6204C11.5531 15.7652 11.33 15.8683 11.0931 15.9231C10.9349 15.9488 10.7736 15.9488 10.6154 15.9231Z" fill="white"/>
<path d="M23 46C22.3002 46 21.616 45.7925 21.0341 45.4037C20.4522 45.0149 19.9987 44.4622 19.7309 43.8157C19.4631 43.1691 19.393 42.4576 19.5295 41.7712C19.6661 41.0848 20.0031 40.4543 20.4979 39.9595C20.9928 39.4646 21.6233 39.1276 22.3097 38.9911C22.9961 38.8545 23.7075 38.9246 24.3541 39.1924C25.0007 39.4602 25.5533 39.9138 25.9421 40.4957C26.3309 41.0776 26.5385 41.7617 26.5385 42.4615C26.5385 43.4 26.1657 44.3 25.5021 44.9636C24.8385 45.6272 23.9385 46 23 46Z" fill="white"/>
<path d="M33.6154 46C32.9155 46 32.2314 45.7925 31.6495 45.4037C31.0676 45.0149 30.6141 44.4622 30.3463 43.8157C30.0785 43.1691 30.0084 42.4576 30.1449 41.7712C30.2814 41.0848 30.6185 40.4543 31.1133 39.9595C31.6082 39.4646 32.2387 39.1276 32.9251 38.9911C33.6115 38.8545 34.3229 38.9246 34.9695 39.1924C35.6161 39.4602 36.1687 39.9138 36.5575 40.4957C36.9463 41.0776 37.1538 41.7617 37.1538 42.4615C37.1538 43.4 36.781 44.3 36.1175 44.9636C35.4539 45.6272 34.5538 46 33.6154 46Z" fill="white"/>
<path d="M33.6154 24.7692H23C22.5308 24.7692 22.0808 24.5828 21.749 24.251C21.4172 23.9192 21.2308 23.4692 21.2308 23C21.2308 22.5308 21.4172 22.0808 21.749 21.749C22.0808 21.4172 22.5308 21.2308 23 21.2308H33.6154C34.0846 21.2308 34.5346 21.4172 34.8664 21.749C35.1982 22.0808 35.3846 22.5308 35.3846 23C35.3846 23.4692 35.1982 23.9192 34.8664 24.251C34.5346 24.5828 34.0846 24.7692 33.6154 24.7692Z" fill="white"/>
</g>
<defs>
<clipPath id="clip0_21:1104">
<rect width="46" height="46" fill="white"/>
</clipPath>
</defs>
</svg>
