<svg width="197" height="55" viewBox="0 0 197 55" fill="none" xmlns="http://www.w3.org/2000/svg">
<path d="M17.5 4.16926L17.3471 3.69321C7.28394 6.9256 0 16.3615 0 27.5C0 38.6385 7.28394 48.0744 17.3471 51.3068L17.5 50.8307V50.305C7.91764 47.1555 1 38.135 1 27.5C1 16.865 7.91764 7.84448 17.5 4.69499V4.16926Z" fill="white"/>
<path d="M33.5 50.4853L33.6735 50.9543C43.2046 47.4284 50 38.2584 50 27.5C50 16.7416 43.2046 7.57159 33.6735 4.04571L33.5 4.51465V5.04853C42.5602 8.48052 49 17.2388 49 27.5C49 37.7612 42.5602 46.5195 33.5 49.9515V50.4853Z" fill="white"/>
<path d="M19.0158 42.4539C18.0341 41.2721 17.6684 38.9055 17.6684 38.9055C17.6684 38.9055 20.0263 39.0954 21.8789 40.2995C23.2043 41.161 23.9 42.7074 24.5737 43.8479C25.1237 44.7792 26.2579 45.4954 26.2579 45.4954C26.2579 45.4954 26.0507 43.2143 26.2579 42.7074C26.7142 41.591 28.3167 40.5464 29.6263 39.9194C31.4789 39.0323 33.1632 38.9055 33.1632 38.9055C33.1632 38.9055 32.3187 41.5383 31.1421 43.0876C29.7947 44.8617 26.0895 46.6359 26.0895 46.6359V55H24.5737V46.6359C24.5737 46.6359 20.7 44.4816 19.0158 42.4539Z" fill="white"/>
<path d="M17.5 32.1889C17.5 32.1889 17.5127 34.2221 18.3421 35.4839C19.229 36.833 20.0263 37.5115 22.2158 38.6521C23.7453 39.4489 25.2474 41.0599 25.2474 41.0599C25.2474 41.0599 26.9449 39.6082 28.279 38.9055C29.9632 38.0184 31.2865 37.3278 32.1526 36.1175C33.3316 34.47 33.5 32.1889 33.5 32.1889C33.5 32.1889 30.9296 32.7827 29.4579 33.8364C28.2946 34.6693 26.5947 35.9231 26.5947 37.1313C26.5947 38.0184 26.0895 39.2857 26.0895 39.2857C26.0895 39.2857 24.0631 35.8587 22.5526 34.3433C21.0422 32.8279 17.5 32.1889 17.5 32.1889Z" fill="white"/>
<path d="M19.5211 18.8825C19.5211 18.8825 19.4667 21.6951 20.3632 23.318C20.9519 24.3839 21.7105 25.2189 22.8895 26.106C24.0752 26.9982 25.4158 28.2604 25.4158 28.2604C25.4158 28.2604 26.4304 27.2435 28.1105 25.9793C29.2895 25.0922 30.6853 23.3893 30.9737 22.3041C31.3105 21.0369 31.4789 18.8825 31.4789 18.8825C31.4789 18.8825 29.7736 19.6542 28.6158 20.2765C27.4368 20.9101 27.1369 21.5081 26.7631 22.5576C26.4733 23.3717 26.5947 25.2189 26.5947 25.2189C26.5947 25.2189 23.97 21.6805 22.7211 20.53C21.3039 19.2245 19.5211 18.8825 19.5211 18.8825Z" fill="white"/>
<path d="M18.0053 25.3456C18.0053 25.3456 18.1266 28.2645 19.3526 29.9078C20.2336 31.0886 21.8439 32.1656 23.3458 33.17L23.3947 33.2028C24.6851 34.0658 25.4158 35.2304 25.4158 35.2304C25.4158 35.2304 26.4187 33.8296 27.4368 33.2028C29.2895 32.0622 31.8158 30.0346 32.3211 28.3871C32.8263 26.7396 32.6579 26.9931 32.8263 25.3456C32.8263 25.3456 30.7441 26.0391 29.4579 26.9931C28.2107 27.9182 26.9316 28.7673 26.5947 29.9078C26.309 30.8753 26.0895 32.5691 26.0895 32.5691C26.0895 32.5691 25.2474 31.8088 24.7421 30.7949C24.108 29.5225 23.2263 28.1336 21.5421 26.9931C20.1724 26.0655 18.0053 25.3456 18.0053 25.3456Z" fill="white"/>
<path d="M24.2368 0.506912C24.2368 0.226952 24.5385 0 24.9105 0H25.2474C25.6194 0 25.921 0.226952 25.921 0.506912V10.1383C25.921 10.4182 25.6194 10.6452 25.2474 10.6452H24.9105C24.5385 10.6452 24.2368 10.4182 24.2368 10.1383V0.506912Z" fill="white"/>
<path d="M29.6263 7.85714C29.6263 7.57718 29.9279 7.35023 30.3 7.35023H30.6368C31.0089 7.35023 31.3105 7.57718 31.3105 7.85714V17.235C31.3105 17.515 31.0089 17.7419 30.6368 17.7419H30.3C29.9279 17.7419 29.6263 17.515 29.6263 17.235V7.85714Z" fill="white"/>
<path d="M18.5105 7.85714C18.5105 7.57718 18.8121 7.35023 19.1842 7.35023H19.5211C19.8931 7.35023 20.1947 7.57718 20.1947 7.85714V17.235C20.1947 17.515 19.8931 17.7419 19.5211 17.7419H19.1842C18.8121 17.7419 18.5105 17.515 18.5105 17.235V7.85714Z" fill="white"/>
<path d="M24.9105 12.1659C24.9105 12.1659 23.3947 14.0668 23.0579 15.4608C22.9402 15.9478 22.8895 16.2332 22.8895 16.7281C22.8895 17.322 22.8639 17.6732 23.0579 18.2488C23.181 18.6142 23.3306 18.8021 23.5632 19.1359C24.1069 19.9164 25.4158 20.9101 25.4158 20.9101C25.4158 20.9101 26.2111 20.36 26.5947 19.6429C27.0614 18.7706 27.1 17.8687 27.1 16.9816C27.1 16.3856 27.0191 15.841 26.9316 15.4608C26.7682 14.7508 26.6605 14.3405 26.2579 13.6866C25.7526 12.8661 24.9105 12.1659 24.9105 12.1659Z" fill="white"/>
<path d="M68.919 28.126C68.513 28.126 68.191 28.007 67.953 27.769C67.715 27.517 67.596 27.181 67.596 26.761V14.518C67.596 14.126 67.722 13.811 67.974 13.573C68.226 13.321 68.548 13.195 68.94 13.195H78.852C79.244 13.195 79.559 13.321 79.797 13.573C80.049 13.811 80.175 14.126 80.175 14.518V26.782C80.175 27.188 80.049 27.517 79.797 27.769C79.559 28.007 79.244 28.126 78.852 28.126C78.446 28.126 78.124 28.007 77.886 27.769C77.648 27.517 77.529 27.188 77.529 26.782V15.358H70.263V26.782C70.263 27.188 70.137 27.517 69.885 27.769C69.647 28.007 69.325 28.126 68.919 28.126Z" fill="white"/>
<path d="M85.6685 28C85.2625 28 84.9405 27.888 84.7025 27.664C84.4785 27.44 84.3665 27.125 84.3665 26.719V14.476C84.3665 14.07 84.4785 13.755 84.7025 13.531C84.9405 13.307 85.2625 13.195 85.6685 13.195H93.2495C93.6555 13.195 93.9705 13.286 94.1945 13.468C94.4185 13.65 94.5305 13.909 94.5305 14.245C94.5305 14.595 94.4185 14.868 94.1945 15.064C93.9705 15.246 93.6555 15.337 93.2495 15.337H87.0125V19.411H92.8295C93.2355 19.411 93.5505 19.502 93.7745 19.684C93.9985 19.866 94.1105 20.132 94.1105 20.482C94.1105 20.818 93.9985 21.077 93.7745 21.259C93.5505 21.441 93.2355 21.532 92.8295 21.532H87.0125V25.858H93.2495C93.6555 25.858 93.9705 25.956 94.1945 26.152C94.4185 26.334 94.5305 26.6 94.5305 26.95C94.5305 27.286 94.4185 27.545 94.1945 27.727C93.9705 27.909 93.6555 28 93.2495 28H85.6685Z" fill="white"/>
<path d="M99.0557 28.126C98.6497 28.126 98.3277 28.007 98.0897 27.769C97.8517 27.517 97.7327 27.181 97.7327 26.761V14.413C97.7327 14.007 97.8517 13.685 98.0897 13.447C98.3417 13.195 98.6637 13.069 99.0557 13.069C99.4617 13.069 99.7837 13.195 100.022 13.447C100.274 13.685 100.4 14.007 100.4 14.413V19.39H102.206L106.91 13.594C107.19 13.258 107.519 13.09 107.897 13.09C108.205 13.09 108.471 13.202 108.695 13.426C108.933 13.65 109.052 13.916 109.052 14.224C109.052 14.518 108.947 14.791 108.737 15.043L104.747 19.894C105.251 20.076 105.657 20.286 105.965 20.524C106.287 20.762 106.574 21.063 106.826 21.427C107.092 21.791 107.435 22.337 107.855 23.065L109.556 26.11C109.696 26.348 109.766 26.593 109.766 26.845C109.766 27.195 109.633 27.496 109.367 27.748C109.115 27.986 108.821 28.105 108.485 28.105C108.023 28.105 107.652 27.86 107.372 27.37L105.23 23.548C104.824 22.82 104.418 22.309 104.012 22.015C103.606 21.721 103.018 21.574 102.248 21.574H100.4V26.761C100.4 27.167 100.274 27.496 100.022 27.748C99.7837 28 99.4617 28.126 99.0557 28.126Z" fill="white"/>
<path d="M126.384 26.383C126.468 26.565 126.51 26.747 126.51 26.929C126.51 27.251 126.377 27.524 126.111 27.748C125.859 27.972 125.565 28.084 125.229 28.084C125.005 28.084 124.795 28.028 124.599 27.916C124.403 27.79 124.249 27.601 124.137 27.349L122.877 24.535H115.485L114.225 27.349C114.113 27.601 113.959 27.79 113.763 27.916C113.567 28.028 113.35 28.084 113.112 28.084C112.79 28.084 112.496 27.972 112.23 27.748C111.964 27.524 111.831 27.251 111.831 26.929C111.831 26.747 111.873 26.565 111.957 26.383L117.753 13.93C117.879 13.65 118.068 13.44 118.32 13.3C118.586 13.146 118.866 13.069 119.16 13.069C119.454 13.069 119.727 13.146 119.979 13.3C120.245 13.44 120.441 13.65 120.567 13.93L126.384 26.383ZM116.409 22.435H121.953L119.181 16.198L116.409 22.435Z" fill="white"/>
<path d="M130.895 28.126C130.489 28.126 130.16 28.007 129.908 27.769C129.67 27.517 129.551 27.181 129.551 26.761V14.476C129.551 14.07 129.663 13.755 129.887 13.531C130.125 13.307 130.447 13.195 130.853 13.195H136.019C137.601 13.195 138.833 13.594 139.715 14.392C140.597 15.176 141.038 16.282 141.038 17.71C141.038 19.138 140.597 20.251 139.715 21.049C138.833 21.847 137.601 22.246 136.019 22.246H132.26V26.761C132.26 27.181 132.134 27.517 131.882 27.769C131.644 28.007 131.315 28.126 130.895 28.126ZM135.683 20.167C137.545 20.167 138.476 19.355 138.476 17.731C138.476 16.107 137.545 15.295 135.683 15.295H132.26V20.167H135.683Z" fill="white"/>
<path d="M155.985 13.09C156.391 13.09 156.713 13.216 156.951 13.468C157.189 13.706 157.308 14.028 157.308 14.434V26.761C157.308 27.167 157.182 27.496 156.93 27.748C156.692 28 156.377 28.126 155.985 28.126C155.579 28.126 155.257 28 155.019 27.748C154.781 27.496 154.662 27.167 154.662 26.761V21.574H147.081V26.761C147.081 27.167 146.955 27.496 146.703 27.748C146.465 28 146.143 28.126 145.737 28.126C145.345 28.126 145.023 28 144.771 27.748C144.533 27.496 144.414 27.167 144.414 26.761V14.434C144.414 14.028 144.533 13.706 144.771 13.468C145.009 13.216 145.331 13.09 145.737 13.09C146.143 13.09 146.465 13.216 146.703 13.468C146.955 13.706 147.081 14.028 147.081 14.434V19.39H154.662V14.434C154.662 14.028 154.781 13.706 155.019 13.468C155.257 13.216 155.579 13.09 155.985 13.09Z" fill="white"/>
<path d="M171.593 28.126C171.187 28.126 170.865 28.007 170.627 27.769C170.389 27.517 170.27 27.188 170.27 26.782V22.288H168.254C167.078 22.288 166.189 22.827 165.587 23.905L163.55 27.433C163.424 27.657 163.263 27.825 163.067 27.937C162.885 28.049 162.689 28.105 162.479 28.105C162.129 28.105 161.814 27.986 161.534 27.748C161.268 27.51 161.135 27.223 161.135 26.887C161.135 26.663 161.205 26.439 161.345 26.215L162.815 23.737C163.459 22.687 164.299 22.015 165.335 21.721C164.187 21.539 163.291 21.07 162.647 20.314C162.017 19.558 161.702 18.669 161.702 17.647C161.702 16.219 162.164 15.12 163.088 14.35C164.012 13.58 165.314 13.195 166.994 13.195H171.656C172.062 13.195 172.37 13.307 172.58 13.531C172.804 13.755 172.916 14.07 172.916 14.476V26.782C172.916 27.188 172.79 27.517 172.538 27.769C172.3 28.007 171.985 28.126 171.593 28.126ZM170.291 15.295H167.33C166.322 15.295 165.559 15.512 165.041 15.946C164.523 16.38 164.264 16.996 164.264 17.794C164.264 18.592 164.502 19.194 164.978 19.6C165.468 19.992 166.217 20.188 167.225 20.188H170.291V15.295Z" fill="white"/>
<path d="M69.666 43.091C69.042 43.091 68.4917 42.9567 68.015 42.688C67.547 42.4193 67.183 42.038 66.923 41.544C66.6717 41.0413 66.546 40.4607 66.546 39.802C66.546 39.1347 66.6717 38.554 66.923 38.06C67.183 37.5573 67.547 37.1717 68.015 36.903C68.4917 36.6343 69.042 36.5 69.666 36.5C70.29 36.5 70.836 36.6343 71.304 36.903C71.7807 37.1717 72.1447 37.5573 72.396 38.06C72.656 38.554 72.786 39.1347 72.786 39.802C72.786 40.4607 72.656 41.0413 72.396 41.544C72.1447 42.038 71.7807 42.4193 71.304 42.688C70.836 42.9567 70.29 43.091 69.666 43.091ZM69.666 42.051C70.2467 42.051 70.6887 41.8603 70.992 41.479C71.304 41.0977 71.46 40.5387 71.46 39.802C71.46 39.074 71.304 38.5193 70.992 38.138C70.68 37.748 70.238 37.553 69.666 37.553C69.094 37.553 68.652 37.748 68.34 38.138C68.028 38.5193 67.872 39.074 67.872 39.802C67.872 40.5387 68.0237 41.0977 68.327 41.479C68.639 41.8603 69.0853 42.051 69.666 42.051Z" fill="white"/>
<path d="M77.9649 43.091C77.3496 43.091 76.8079 42.9567 76.3399 42.688C75.8806 42.4193 75.5209 42.038 75.2609 41.544C75.0096 41.05 74.8839 40.478 74.8839 39.828C74.8839 39.1693 75.0139 38.5887 75.2739 38.086C75.5426 37.5833 75.9152 37.1933 76.3919 36.916C76.8686 36.6387 77.4146 36.5 78.0299 36.5C78.3592 36.5 78.6886 36.5477 79.0179 36.643C79.3559 36.7383 79.6549 36.8683 79.9149 37.033C80.1922 37.2237 80.3309 37.4447 80.3309 37.696C80.3309 37.8433 80.2919 37.969 80.2139 38.073C80.1359 38.1683 80.0362 38.216 79.9149 38.216C79.8369 38.216 79.7589 38.1987 79.6809 38.164C79.6029 38.1207 79.5032 38.06 79.3819 37.982C79.1652 37.8433 78.9616 37.7393 78.7709 37.67C78.5889 37.592 78.3679 37.553 78.1079 37.553C77.5186 37.553 77.0592 37.7523 76.7299 38.151C76.4092 38.5497 76.2489 39.1043 76.2489 39.815C76.2489 40.5257 76.4092 41.076 76.7299 41.466C77.0506 41.8473 77.5056 42.038 78.0949 42.038C78.3549 42.038 78.5846 41.999 78.7839 41.921C78.9832 41.843 79.1869 41.739 79.3949 41.609C79.4902 41.5483 79.5856 41.4963 79.6809 41.453C79.7762 41.4097 79.8629 41.388 79.9409 41.388C80.0622 41.388 80.1619 41.44 80.2399 41.544C80.3179 41.6393 80.3569 41.7607 80.3569 41.908C80.3569 42.0293 80.3222 42.142 80.2529 42.246C80.1922 42.3413 80.0839 42.441 79.9279 42.545C79.6679 42.7183 79.3646 42.8527 79.0179 42.948C78.6712 43.0433 78.3202 43.091 77.9649 43.091Z" fill="white"/>
<path d="M87.4981 41.401C87.6194 41.401 87.7191 41.4487 87.7971 41.544C87.8751 41.6393 87.9141 41.7607 87.9141 41.908C87.9141 42.1593 87.7581 42.3717 87.4461 42.545C87.1427 42.7183 86.8091 42.8527 86.4451 42.948C86.0897 43.0433 85.7474 43.091 85.4181 43.091C84.4127 43.091 83.6197 42.8007 83.0391 42.22C82.4584 41.6307 82.1681 40.829 82.1681 39.815C82.1681 39.165 82.2937 38.5887 82.5451 38.086C82.8051 37.5833 83.1647 37.1933 83.6241 36.916C84.0921 36.6387 84.6207 36.5 85.2101 36.5C86.0594 36.5 86.7311 36.773 87.2251 37.319C87.7191 37.865 87.9661 38.6017 87.9661 39.529C87.9661 39.8757 87.8101 40.049 87.4981 40.049H83.4811C83.5677 41.3923 84.2134 42.064 85.4181 42.064C85.7387 42.064 86.0161 42.0207 86.2501 41.934C86.4841 41.8473 86.7311 41.7347 86.9911 41.596C87.0171 41.5787 87.0864 41.544 87.1991 41.492C87.3204 41.4313 87.4201 41.401 87.4981 41.401ZM85.2361 37.462C84.7334 37.462 84.3304 37.6223 84.0271 37.943C83.7237 38.2637 83.5417 38.7143 83.4811 39.295H86.8351C86.8091 38.7057 86.6574 38.255 86.3801 37.943C86.1114 37.6223 85.7301 37.462 85.2361 37.462Z" fill="white"/>
<path d="M92.4425 43.065C92.2431 43.065 92.0828 43.0087 91.9615 42.896C91.8401 42.7833 91.7794 42.6317 91.7794 42.441V37.67H90.0895C89.9335 37.67 89.8078 37.6223 89.7125 37.527C89.6171 37.4317 89.5695 37.3103 89.5695 37.163C89.5695 37.0157 89.6171 36.8943 89.7125 36.799C89.8078 36.7037 89.9335 36.656 90.0895 36.656H94.7825C94.9471 36.656 95.0771 36.7037 95.1725 36.799C95.2678 36.8943 95.3155 37.0157 95.3155 37.163C95.3155 37.3103 95.2678 37.4317 95.1725 37.527C95.0771 37.6223 94.9471 37.67 94.7825 37.67H93.0925V42.441C93.0925 42.6317 93.0318 42.7833 92.9105 42.896C92.7978 43.0087 92.6418 43.065 92.4425 43.065Z" fill="white"/>
<path d="M101.671 36.994C101.792 36.8207 101.909 36.6993 102.022 36.63C102.134 36.5607 102.286 36.526 102.477 36.526C102.685 36.526 102.849 36.5867 102.971 36.708C103.092 36.8207 103.153 36.9767 103.153 37.176V42.428C103.153 42.6187 103.096 42.7747 102.984 42.896C102.871 43.0087 102.719 43.065 102.529 43.065C102.347 43.065 102.195 43.0087 102.074 42.896C101.961 42.7747 101.905 42.6187 101.905 42.428V38.294L98.7846 42.623C98.6633 42.7963 98.542 42.9133 98.4206 42.974C98.308 43.0347 98.165 43.065 97.9916 43.065C97.7923 43.065 97.6276 43.0087 97.4976 42.896C97.3763 42.7747 97.3156 42.6187 97.3156 42.428V37.163C97.3156 36.981 97.372 36.8293 97.4846 36.708C97.606 36.5867 97.762 36.526 97.9526 36.526C98.1346 36.526 98.282 36.5867 98.3946 36.708C98.516 36.8293 98.5766 36.981 98.5766 37.163V41.258L101.671 36.994Z" fill="white"/>
<path d="M106.596 43.065C106.396 43.065 106.236 43.0087 106.115 42.896C105.993 42.7833 105.933 42.6317 105.933 42.441V37.15C105.933 36.9593 105.993 36.8077 106.115 36.695C106.236 36.5823 106.396 36.526 106.596 36.526C106.795 36.526 106.951 36.5823 107.064 36.695C107.185 36.8077 107.246 36.9593 107.246 37.15V39.23H110.366V37.15C110.366 36.9593 110.426 36.8077 110.548 36.695C110.669 36.5823 110.829 36.526 111.029 36.526C111.228 36.526 111.384 36.5823 111.497 36.695C111.618 36.8077 111.679 36.9593 111.679 37.15L111.692 42.402C111.692 42.6013 111.631 42.7617 111.51 42.883C111.388 43.0043 111.228 43.065 111.029 43.065C110.829 43.065 110.669 43.0043 110.548 42.883C110.426 42.7617 110.366 42.6013 110.366 42.402V40.27H107.246V42.441C107.246 42.6317 107.185 42.7833 107.064 42.896C106.951 43.0087 106.795 43.065 106.596 43.065Z" fill="white"/>
<path d="M117.204 43.091C116.589 43.091 116.047 42.9567 115.579 42.688C115.12 42.4193 114.76 42.038 114.5 41.544C114.249 41.05 114.123 40.478 114.123 39.828C114.123 39.1693 114.253 38.5887 114.513 38.086C114.782 37.5833 115.154 37.1933 115.631 36.916C116.108 36.6387 116.654 36.5 117.269 36.5C117.598 36.5 117.928 36.5477 118.257 36.643C118.595 36.7383 118.894 36.8683 119.154 37.033C119.431 37.2237 119.57 37.4447 119.57 37.696C119.57 37.8433 119.531 37.969 119.453 38.073C119.375 38.1683 119.275 38.216 119.154 38.216C119.076 38.216 118.998 38.1987 118.92 38.164C118.842 38.1207 118.742 38.06 118.621 37.982C118.404 37.8433 118.201 37.7393 118.01 37.67C117.828 37.592 117.607 37.553 117.347 37.553C116.758 37.553 116.298 37.7523 115.969 38.151C115.648 38.5497 115.488 39.1043 115.488 39.815C115.488 40.5257 115.648 41.076 115.969 41.466C116.29 41.8473 116.745 42.038 117.334 42.038C117.594 42.038 117.824 41.999 118.023 41.921C118.222 41.843 118.426 41.739 118.634 41.609C118.729 41.5483 118.825 41.4963 118.92 41.453C119.015 41.4097 119.102 41.388 119.18 41.388C119.301 41.388 119.401 41.44 119.479 41.544C119.557 41.6393 119.596 41.7607 119.596 41.908C119.596 42.0293 119.561 42.142 119.492 42.246C119.431 42.3413 119.323 42.441 119.167 42.545C118.907 42.7183 118.604 42.8527 118.257 42.948C117.91 43.0433 117.559 43.091 117.204 43.091Z" fill="white"/>
<path d="M125.086 39.542C125.39 39.646 125.632 39.7933 125.814 39.984C126.005 40.1747 126.23 40.4953 126.49 40.946L127.192 42.129C127.253 42.2417 127.283 42.35 127.283 42.454C127.283 42.6273 127.218 42.7747 127.088 42.896C126.958 43.0087 126.807 43.065 126.633 43.065C126.408 43.065 126.226 42.9523 126.087 42.727L125.177 41.167C124.969 40.8203 124.77 40.5863 124.579 40.465C124.397 40.335 124.129 40.27 123.773 40.27H123.149V42.441C123.149 42.6317 123.089 42.7833 122.967 42.896C122.846 43.0087 122.686 43.065 122.486 43.065C122.287 43.065 122.127 43.0087 122.005 42.896C121.893 42.7833 121.836 42.6317 121.836 42.441V37.163C121.836 36.9637 121.893 36.8077 122.005 36.695C122.127 36.5823 122.287 36.526 122.486 36.526C122.686 36.526 122.846 36.5867 122.967 36.708C123.089 36.8207 123.149 36.9723 123.149 37.163V39.269H123.89L125.918 36.799C126.066 36.6257 126.23 36.539 126.412 36.539C126.56 36.539 126.685 36.591 126.789 36.695C126.902 36.799 126.958 36.9247 126.958 37.072C126.958 37.228 126.902 37.3753 126.789 37.514L125.086 39.542Z" fill="white"/>
<path d="M133.943 36.994C134.064 36.8207 134.181 36.6993 134.294 36.63C134.407 36.5607 134.558 36.526 134.749 36.526C134.957 36.526 135.122 36.5867 135.243 36.708C135.364 36.8207 135.425 36.9767 135.425 37.176V42.428C135.425 42.6187 135.369 42.7747 135.256 42.896C135.143 43.0087 134.992 43.065 134.801 43.065C134.619 43.065 134.467 43.0087 134.346 42.896C134.233 42.7747 134.177 42.6187 134.177 42.428V38.294L131.057 42.623C130.936 42.7963 130.814 42.9133 130.693 42.974C130.58 43.0347 130.437 43.065 130.264 43.065C130.065 43.065 129.9 43.0087 129.77 42.896C129.649 42.7747 129.588 42.6187 129.588 42.428V37.163C129.588 36.981 129.644 36.8293 129.757 36.708C129.878 36.5867 130.034 36.526 130.225 36.526C130.407 36.526 130.554 36.5867 130.667 36.708C130.788 36.8293 130.849 36.981 130.849 37.163V41.258L133.943 36.994Z" fill="white"/>
<path d="M143.197 41.401C143.319 41.401 143.418 41.4487 143.496 41.544C143.574 41.6393 143.613 41.7607 143.613 41.908C143.613 42.1593 143.457 42.3717 143.145 42.545C142.842 42.7183 142.508 42.8527 142.144 42.948C141.789 43.0433 141.447 43.091 141.117 43.091C140.112 43.091 139.319 42.8007 138.738 42.22C138.158 41.6307 137.867 40.829 137.867 39.815C137.867 39.165 137.993 38.5887 138.244 38.086C138.504 37.5833 138.864 37.1933 139.323 36.916C139.791 36.6387 140.32 36.5 140.909 36.5C141.759 36.5 142.43 36.773 142.924 37.319C143.418 37.865 143.665 38.6017 143.665 39.529C143.665 39.8757 143.509 40.049 143.197 40.049H139.18C139.267 41.3923 139.913 42.064 141.117 42.064C141.438 42.064 141.715 42.0207 141.949 41.934C142.183 41.8473 142.43 41.7347 142.69 41.596C142.716 41.5787 142.786 41.544 142.898 41.492C143.02 41.4313 143.119 41.401 143.197 41.401ZM140.935 37.462C140.433 37.462 140.03 37.6223 139.726 37.943C139.423 38.2637 139.241 38.7143 139.18 39.295H142.534C142.508 38.7057 142.357 38.255 142.079 37.943C141.811 37.6223 141.429 37.462 140.935 37.462Z" fill="white"/>
<path d="M151.177 43.065C150.978 43.065 150.817 43.0087 150.696 42.896C150.575 42.7833 150.514 42.6317 150.514 42.441V37.332C150.514 37.124 150.57 36.9593 150.683 36.838C150.796 36.7167 150.952 36.656 151.151 36.656H155.506C155.714 36.656 155.879 36.7123 156 36.825C156.121 36.9377 156.182 37.0937 156.182 37.293V42.441C156.182 42.6317 156.121 42.7833 156 42.896C155.879 43.0087 155.718 43.065 155.519 43.065C155.32 43.065 155.159 43.0087 155.038 42.896C154.925 42.7833 154.869 42.6317 154.869 42.441V37.67H151.827V42.441C151.827 42.6317 151.766 42.7833 151.645 42.896C151.532 43.0087 151.376 43.065 151.177 43.065Z" fill="white"/>
<path d="M163.308 36.994C163.43 36.8207 163.547 36.6993 163.659 36.63C163.772 36.5607 163.924 36.526 164.114 36.526C164.322 36.526 164.487 36.5867 164.608 36.708C164.73 36.8207 164.79 36.9767 164.79 37.176V42.428C164.79 42.6187 164.734 42.7747 164.621 42.896C164.509 43.0087 164.357 43.065 164.166 43.065C163.984 43.065 163.833 43.0087 163.711 42.896C163.599 42.7747 163.542 42.6187 163.542 42.428V38.294L160.422 42.623C160.301 42.7963 160.18 42.9133 160.058 42.974C159.946 43.0347 159.803 43.065 159.629 43.065C159.43 43.065 159.265 43.0087 159.135 42.896C159.014 42.7747 158.953 42.6187 158.953 42.428V37.163C158.953 36.981 159.01 36.8293 159.122 36.708C159.244 36.5867 159.4 36.526 159.59 36.526C159.772 36.526 159.92 36.5867 160.032 36.708C160.154 36.8293 160.214 36.981 160.214 37.163V41.258L163.308 36.994Z" fill="white"/>
<path d="M171.003 36.5C171.549 36.5 172.034 36.6387 172.459 36.916C172.892 37.1933 173.226 37.5833 173.46 38.086C173.702 38.5887 173.824 39.1693 173.824 39.828C173.824 40.478 173.707 41.05 173.473 41.544C173.239 42.038 172.905 42.4193 172.472 42.688C172.047 42.9567 171.557 43.091 171.003 43.091C170.526 43.091 170.106 42.9913 169.742 42.792C169.378 42.584 169.1 42.2893 168.91 41.908V44.807C168.91 44.989 168.849 45.132 168.728 45.236C168.615 45.3487 168.463 45.405 168.273 45.405C168.073 45.405 167.909 45.3487 167.779 45.236C167.657 45.1233 167.597 44.9717 167.597 44.781V37.163C167.597 36.9723 167.657 36.8207 167.779 36.708C167.9 36.5867 168.06 36.526 168.26 36.526C168.45 36.526 168.606 36.5867 168.728 36.708C168.849 36.8207 168.91 36.9723 168.91 37.163V37.696C169.1 37.3147 169.378 37.02 169.742 36.812C170.106 36.604 170.526 36.5 171.003 36.5ZM170.691 42.051C171.263 42.051 171.705 41.8603 172.017 41.479C172.329 41.089 172.485 40.5387 172.485 39.828C172.485 39.1087 172.324 38.5497 172.004 38.151C171.692 37.7523 171.254 37.553 170.691 37.553C170.119 37.553 169.677 37.748 169.365 38.138C169.061 38.528 168.91 39.0827 168.91 39.802C168.91 40.5213 169.061 41.076 169.365 41.466C169.677 41.856 170.119 42.051 170.691 42.051Z" fill="white"/>
<path d="M179.033 43.091C178.409 43.091 177.859 42.9567 177.382 42.688C176.914 42.4193 176.55 42.038 176.29 41.544C176.039 41.0413 175.913 40.4607 175.913 39.802C175.913 39.1347 176.039 38.554 176.29 38.06C176.55 37.5573 176.914 37.1717 177.382 36.903C177.859 36.6343 178.409 36.5 179.033 36.5C179.657 36.5 180.203 36.6343 180.671 36.903C181.148 37.1717 181.512 37.5573 181.763 38.06C182.023 38.554 182.153 39.1347 182.153 39.802C182.153 40.4607 182.023 41.0413 181.763 41.544C181.512 42.038 181.148 42.4193 180.671 42.688C180.203 42.9567 179.657 43.091 179.033 43.091ZM179.033 42.051C179.614 42.051 180.056 41.8603 180.359 41.479C180.671 41.0977 180.827 40.5387 180.827 39.802C180.827 39.074 180.671 38.5193 180.359 38.138C180.047 37.748 179.605 37.553 179.033 37.553C178.461 37.553 178.019 37.748 177.707 38.138C177.395 38.5193 177.239 39.074 177.239 39.802C177.239 40.5387 177.391 41.0977 177.694 41.479C178.006 41.8603 178.453 42.051 179.033 42.051Z" fill="white"/>
<path d="M185.252 43.065C185.053 43.065 184.892 43.0087 184.771 42.896C184.65 42.7833 184.589 42.6317 184.589 42.441V37.332C184.589 37.1327 184.645 36.9723 184.758 36.851C184.879 36.721 185.035 36.656 185.226 36.656H188.463C188.628 36.656 188.758 36.7037 188.853 36.799C188.948 36.8943 188.996 37.0157 188.996 37.163C188.996 37.3103 188.948 37.4317 188.853 37.527C188.758 37.6223 188.628 37.67 188.463 37.67H185.902V42.441C185.902 42.6317 185.841 42.7833 185.72 42.896C185.607 43.0087 185.451 43.065 185.252 43.065Z" fill="white"/>
<path d="M195.365 36.994C195.486 36.8207 195.603 36.6993 195.716 36.63C195.829 36.5607 195.98 36.526 196.171 36.526C196.379 36.526 196.544 36.5867 196.665 36.708C196.786 36.8207 196.847 36.9767 196.847 37.176V42.428C196.847 42.6187 196.791 42.7747 196.678 42.896C196.565 43.0087 196.414 43.065 196.223 43.065C196.041 43.065 195.889 43.0087 195.768 42.896C195.655 42.7747 195.599 42.6187 195.599 42.428V38.294L192.479 42.623C192.358 42.7963 192.236 42.9133 192.115 42.974C192.002 43.0347 191.859 43.065 191.686 43.065C191.487 43.065 191.322 43.0087 191.192 42.896C191.071 42.7747 191.01 42.6187 191.01 42.428V37.163C191.01 36.981 191.066 36.8293 191.179 36.708C191.3 36.5867 191.456 36.526 191.647 36.526C191.829 36.526 191.976 36.5867 192.089 36.708C192.21 36.8293 192.271 36.981 192.271 37.163V41.258L195.365 36.994Z" fill="white"/>
</svg>
