<svg width="200" height="200" viewBox="0 0 200 200" fill="none" xmlns="http://www.w3.org/2000/svg">
<path fill-rule="evenodd" clip-rule="evenodd" d="M101.064 37.4026C101.282 18.8392 93.1157 0.17705 78.1772 0.00124549C63.2388 -0.174559 54.6361 18.2902 54.4178 36.8537C54.1996 55.4171 58.713 68.3236 70.2737 77.0286L66.5646 194.094C66.5646 194.094 71.0128 199.406 74.6604 199.902C75.5653 200.025 76.0852 200.031 76.9927 199.929C80.651 199.519 85.2229 194.313 85.2229 194.313L84.2674 77.1933C96.0296 68.7628 100.845 55.9661 101.064 37.4026ZM78.6706 67.8613C76.6697 67.9439 74.575 67.4643 72.8467 65.9492L73.4543 65.2555C74.9616 66.5769 76.8041 67.0152 78.6326 66.9398C80.4666 66.8641 82.2612 66.2709 83.6154 65.5624C87.4719 63.5447 90.6634 59.6903 92.9205 54.8372C95.1754 49.9889 96.4801 44.1795 96.5867 38.3102C96.8763 22.3744 92.301 12.6689 86.719 6.16326L87.4185 5.56254C93.1589 12.2527 97.8019 22.1827 97.5085 38.327C97.3996 44.3151 96.0696 50.2525 93.7563 55.2263C91.4453 60.1953 88.1352 64.2384 84.0426 66.3797C82.5928 67.1382 80.6659 67.7789 78.6706 67.8613ZM69.202 143.236L67.8487 192.135L67.961 192.269L68.0087 192.229C67.9611 192.269 67.9609 192.269 67.961 192.269L67.9621 192.27L67.9645 192.273L67.9735 192.284L68.0071 192.323C68.0364 192.357 68.0792 192.407 68.1346 192.47C68.2452 192.595 68.406 192.774 68.6082 192.99C69.0122 193.421 69.584 194.001 70.2543 194.595C70.9235 195.188 71.6983 195.803 72.5085 196.297C73.3141 196.789 74.1828 197.18 75.0359 197.296C75.8316 197.404 76.3054 197.41 77.1035 197.32C77.9591 197.225 78.8367 196.854 79.6537 196.381C80.4753 195.906 81.2643 195.31 81.9473 194.733C82.6314 194.155 83.2166 193.588 83.6306 193.167C83.8379 192.956 84.0028 192.781 84.1164 192.658C84.1732 192.596 84.2172 192.548 84.2473 192.514L84.2818 192.476L84.291 192.465L84.2935 192.462L84.2942 192.462C84.2943 192.461 84.2946 192.461 83.9484 192.157C83.6021 191.852 83.6021 191.852 83.6021 191.852L83.6002 191.855L83.5928 191.863L83.5619 191.897C83.5445 191.917 83.5215 191.942 83.4932 191.973C83.4769 191.991 83.4589 192.011 83.4392 192.032C83.3313 192.149 83.173 192.317 82.9732 192.52C82.5731 192.928 82.0091 193.473 81.3523 194.028C80.6944 194.585 79.9509 195.144 79.1921 195.583C78.4287 196.025 77.6779 196.328 77.0009 196.404C76.2782 196.485 75.8806 196.48 75.16 196.382C74.4849 196.29 73.7415 195.969 72.9887 195.51C72.2404 195.053 71.5103 194.476 70.8657 193.905C70.2221 193.335 69.671 192.776 69.2807 192.359C69.0857 192.151 68.9314 191.979 68.8263 191.86L68.78 191.807L70.1235 143.262L69.202 143.236Z" fill="white"/>
<path fill-rule="evenodd" clip-rule="evenodd" d="M113.5 196.433L110.835 196.401L104.703 140.763C104.736 138.001 106.101 135.255 108.799 132.524L116.893 124.333C117.726 123.49 118.258 121.586 118.258 121.586L116.924 8.31771C116.924 8.31771 122.122 2.85437 126.318 2.90375C130.514 2.95313 135.582 8.53729 135.582 8.53729L135.515 10.4406C135.179 10.1236 134.801 9.78409 134.392 9.44292C133.582 8.76812 132.642 8.07993 131.652 7.54811C130.666 7.01827 129.603 6.62864 128.554 6.58379L128.514 7.50523C129.372 7.54189 130.295 7.86589 131.216 8.36065C132.134 8.85344 133.021 9.50082 133.802 10.1514C134.455 10.6961 135.027 11.2382 135.471 11.6843L133.953 54.6752L133.701 59.1463L133.795 59.1517L131.585 121.743C131.585 121.743 132.073 123.658 132.886 124.521L140.784 132.9C143.417 135.694 144.718 138.471 144.685 141.233L137.106 196.725L134.44 196.694L137.859 154.964C137.859 154.964 137.875 153.583 135.21 153.552C132.545 153.52 132.528 154.901 132.528 154.901L129.343 196.626L126.677 196.595L127.197 154.839C127.197 154.839 127.137 153.457 124.548 153.426C121.959 153.396 121.866 154.776 121.866 154.776L121.335 196.528L118.67 196.497L116.535 154.713C116.535 154.713 116.552 153.332 113.886 153.301C111.221 153.27 111.205 154.65 111.205 154.65L113.5 196.433ZM110.765 134.142C108.472 136.324 107.221 138.606 107.119 140.989L108.04 141.029C108.128 138.965 109.212 136.892 111.4 134.811L118.122 128.416L117.487 127.747L110.765 134.142Z" fill="white"/>
<path d="M44.3563 30.5448C24.0271 46.7674 11 71.7616 11 99.7998C11 130.205 26.3193 157.03 49.6572 172.972L49.2619 162.35C30.9899 147.643 19.2969 125.088 19.2969 99.7998C19.2969 76.6597 29.0879 55.8075 44.7515 41.1634L44.3563 30.5448Z" fill="white"/>
<path d="M154.282 158.405C169.926 143.763 179.703 122.923 179.703 99.7998C179.703 74.5282 168.025 51.9853 149.773 37.2777L149.378 26.6516C172.696 42.5964 188 69.4101 188 99.7998C188 127.823 174.987 152.805 154.677 169.028L154.282 158.405Z" fill="white"/>
</svg>
