<svg width="48" height="48" viewBox="0 0 48 48" fill="none" xmlns="http://www.w3.org/2000/svg">
<rect width="48" height="48" rx="24" fill="#333333"/>
<path d="M17.7 4.48702L17.5716 4.08887C9.11851 6.79232 3 14.6842 3 24C3 33.3158 9.11851 41.2077 17.5716 43.9111L17.7 43.513V43.0733C9.65082 40.4392 3.84 32.8947 3.84 24C3.84 15.1053 9.65082 7.56084 17.7 4.92672V4.48702Z" fill="white"/>
<path d="M31.14 43.2241L31.2857 43.6163C39.2918 40.6674 45 32.9979 45 24C45 15.002 39.2918 7.3326 31.2857 4.38368L31.14 4.77589V5.22241C38.7505 8.0928 44.16 15.4179 44.16 24C44.16 32.5821 38.7505 39.9072 31.14 42.7776V43.2241Z" fill="white"/>
<path d="M18.9733 36.5069C18.1487 35.5185 17.8415 33.5392 17.8415 33.5392C17.8415 33.5392 19.8221 33.698 21.3783 34.7051C22.4916 35.4255 23.076 36.7189 23.6419 37.6728C24.1039 38.4517 25.0566 39.0507 25.0566 39.0507C25.0566 39.0507 24.8826 37.1429 25.0566 36.7189C25.4399 35.7852 26.786 34.9116 27.8861 34.3871C29.4423 33.6452 30.857 33.5392 30.857 33.5392C30.857 33.5392 30.1477 35.7411 29.1594 37.0369C28.0276 38.5207 24.9152 40.0046 24.9152 40.0046V47H23.6419V40.0046C23.6419 40.0046 20.388 38.2028 18.9733 36.5069Z" fill="white"/>
<path d="M17.7 27.9217C17.7 27.9217 17.7107 29.6221 18.4074 30.6774C19.1524 31.8058 19.8221 32.3733 21.6613 33.3272C22.9461 33.9936 24.2078 35.341 24.2078 35.341C24.2078 35.341 25.6337 34.1269 26.7543 33.5392C28.1691 32.7972 29.2807 32.2196 30.0082 31.2074C30.9985 29.8295 31.14 27.9217 31.14 27.9217C31.14 27.9217 28.9809 28.4183 27.7446 29.2995C26.7675 29.9961 25.3396 31.0448 25.3396 32.0553C25.3396 32.7972 24.9152 33.8571 24.9152 33.8571C24.9152 33.8571 23.213 30.9909 21.9442 29.7235C20.6754 28.4561 17.7 27.9217 17.7 27.9217Z" fill="white"/>
<path d="M19.3977 16.7926C19.3977 16.7926 19.3521 19.145 20.1051 20.5023C20.5996 21.3938 21.2368 22.0922 22.2272 22.8341C23.2232 23.5803 24.3493 24.6359 24.3493 24.6359C24.3493 24.6359 25.2016 23.7854 26.6128 22.7281C27.6032 21.9862 28.7756 20.562 29.0179 19.6544C29.3008 18.5945 29.4423 16.7926 29.4423 16.7926C29.4423 16.7926 28.0098 17.4381 27.0373 17.9585C26.0469 18.4885 25.795 18.9886 25.481 19.8664C25.2375 20.5472 25.3396 22.0922 25.3396 22.0922C25.3396 22.0922 23.1348 19.1328 22.0857 18.1705C20.8953 17.0787 19.3977 16.7926 19.3977 16.7926Z" fill="white"/>
<path d="M18.1244 22.1982C18.1244 22.1982 18.2263 24.6394 19.2562 26.0138C19.9962 27.0014 21.3489 27.9021 22.6105 28.7422L22.6516 28.7696C23.7355 29.4914 24.3493 30.4654 24.3493 30.4654C24.3493 30.4654 25.1917 29.2938 26.0469 28.7696C27.6032 27.8157 29.7253 26.1198 30.1497 24.7419C30.5741 23.3641 30.4326 23.576 30.5741 22.1982C30.5741 22.1982 28.8251 22.7781 27.7446 23.576C26.697 24.3498 25.6225 25.0599 25.3396 26.0138C25.0996 26.823 24.9152 28.2396 24.9152 28.2396C24.9152 28.2396 24.2078 27.6037 23.7834 26.7558C23.2507 25.6915 22.5101 24.53 21.0954 23.576C19.9448 22.8002 18.1244 22.1982 18.1244 22.1982Z" fill="white"/>
<path d="M23.3589 1.42396C23.3589 1.18981 23.6123 1 23.9248 1H24.2078C24.5203 1 24.7737 1.18981 24.7737 1.42396V9.47926C24.7737 9.71341 24.5203 9.90322 24.2078 9.90322H23.9248C23.6123 9.90322 23.3589 9.71341 23.3589 9.47926V1.42396Z" fill="white"/>
<path d="M27.8861 7.57143C27.8861 7.33728 28.1395 7.14747 28.452 7.14747H28.7349C29.0475 7.14747 29.3008 7.33728 29.3008 7.57143V15.4147C29.3008 15.6489 29.0475 15.8387 28.7349 15.8387H28.452C28.1395 15.8387 27.8861 15.6489 27.8861 15.4147V7.57143Z" fill="white"/>
<path d="M18.5488 7.57143C18.5488 7.33728 18.8022 7.14747 19.1147 7.14747H19.3977C19.7102 7.14747 19.9636 7.33728 19.9636 7.57143V15.4147C19.9636 15.6489 19.7102 15.8387 19.3977 15.8387H19.1147C18.8022 15.8387 18.5488 15.6489 18.5488 15.4147V7.57143Z" fill="white"/>
<path d="M23.9248 11.1751C23.9248 11.1751 22.6516 12.765 22.3686 13.9309C22.2698 14.3381 22.2272 14.5769 22.2272 14.9908C22.2272 15.4875 22.2057 15.7812 22.3686 16.2627C22.472 16.5682 22.5977 16.7254 22.7931 17.0046C23.2498 17.6573 24.3493 18.4885 24.3493 18.4885C24.3493 18.4885 25.0173 18.0284 25.3396 17.4286C25.7316 16.699 25.764 15.9447 25.764 15.2028C25.764 14.7043 25.696 14.2488 25.6225 13.9309C25.4853 13.337 25.3948 12.9938 25.0566 12.447C24.6322 11.7607 23.9248 11.1751 23.9248 11.1751Z" fill="white"/>
</svg>
