<svg width="628" height="458" viewBox="0 0 628 458" fill="none" xmlns="http://www.w3.org/2000/svg">
<path fill-rule="evenodd" clip-rule="evenodd" d="M340.982 291.1C341.689 292.815 343.649 294.215 343.921 296.705C344.138 298.692 343.048 301.951 341.963 302.865C338.889 305.453 331.057 303.647 327.209 303.042C322.025 302.23 317.814 301.34 313.819 300.184C304.839 297.585 296.767 295.315 289.261 290.745C287.382 287.337 280.4 285.696 279.546 280.359C278.853 276.028 283.467 268.266 288.333 269.737C292.485 265.497 296.331 260.665 300.113 255.479C303.656 250.621 308.37 246.571 312.233 241.646C317.858 234.477 325.437 228.68 332.71 222.274C335.672 219.665 337.713 215.888 341.673 214.858C345.989 213.736 347.074 218.161 346.745 222.25C346.625 223.735 345.627 225.431 345.443 226.771C344.749 231.828 345.373 237.275 345.262 242.528C345.176 246.602 344.505 250.736 344.375 254.944C344.252 258.936 343.552 263.005 343.147 266.933C342.301 275.15 341.793 283.356 340.982 291.1ZM340.116 276.318C336.066 273.104 336.543 264.088 342.101 263.167C343.615 249.231 343.543 234.273 344.221 219.799C344.982 218.264 344.711 216.842 343.175 216.032C339.884 216.96 337.801 219.757 335.399 221.946C333.014 224.117 330.271 225.932 327.912 228.046C325.628 230.094 323.589 232.633 321.298 234.708C318.81 236.958 316.411 238.746 314.392 241.181C312.452 243.521 310.418 245.897 308.357 248.218C306.291 250.545 303.678 252.445 301.741 254.88C297.862 259.758 294.846 265.241 290.302 269.563C291.28 270.525 289.983 270.554 289.936 271.388C304.192 281.24 318.999 290.246 339.392 290.693C339.249 285.516 340.646 280.233 340.495 275.737C340.501 276.016 340.307 276.165 340.116 276.318ZM281.187 281.006C281.644 282.601 284.86 285.063 286.625 286.572C292.977 292.003 299.308 294.81 307.105 296.887C312.498 298.324 316.875 299.724 322.528 301.057C324.984 301.635 327.636 302.032 330.806 302.269C333.662 302.485 337.595 303.252 339.653 302.613C342.913 301.6 343.471 294.9 340.326 292.739C338.815 291.701 334.328 291.758 331.756 291.338C324.002 290.068 317.514 288.556 311.274 285.762C310.013 285.198 309.091 284.209 307.791 283.518C306.043 282.587 304.146 282.281 302.579 281.394C297.312 278.413 293.6 275.311 287.929 272.569C287.376 272.075 288.131 270.831 286.856 271.054C283.226 271.8 280.301 277.91 281.187 281.006ZM340.924 275.395C341.178 271.598 341.491 269.092 341.545 265.283C341.794 265.215 341.669 264.936 341.255 265.095C337.982 266.721 338.567 272.301 340.924 275.395Z" fill="#636363"/>
<path fill-rule="evenodd" clip-rule="evenodd" d="M339.245 234.815C338.403 235.682 337.611 235.301 336.759 236.098C337.584 237.852 337.246 239.479 338.247 240.766C337.975 241.827 337.436 242.716 336.833 243.565C332.145 244.705 325.917 243.747 324.823 238.913C324.127 235.832 326.91 231.319 331.058 232.835C331.802 230.771 333.779 228.408 336.926 228.579C339.131 229.347 340.14 232.457 339.245 234.815ZM332.358 233.053C332.355 233.159 333.875 233.918 332.66 234.485C331.365 234.364 330.652 233.351 329.001 233.775C328.272 238.009 331.786 239.622 335.965 238.264C334.572 236.185 335.721 233.724 338.085 234.066C340.087 228.714 332.446 228.915 332.358 233.053ZM336.809 241.075C336.322 238.575 333.256 240.124 331.611 240.197C329.566 239.261 327.334 237.522 327.184 234.664C323.168 240.742 333.847 244.785 336.809 241.075Z" fill="#636363"/>
<path fill-rule="evenodd" clip-rule="evenodd" d="M310.056 252.82C310.925 252.213 312.545 252.09 313.84 251.756C314.174 247.542 320.141 248.762 321.043 251.456C323.416 258.537 309.08 263.44 310.056 252.82ZM319.857 252.957C319.546 248.434 315.03 250.148 313.903 253.24C313.024 253.775 311.451 252.617 311.506 253.755C313.163 257.462 320.152 257.253 319.857 252.957Z" fill="#636363"/>
<path fill-rule="evenodd" clip-rule="evenodd" d="M337.564 246.936C337.06 247.642 336.12 248.066 336.579 249.393C336.666 249.577 336.869 249.579 336.92 249.818C339.407 249.884 339.192 245.792 336.933 246.323C336.733 244.882 339.107 245.337 339.57 245.756C341.982 249.879 335.471 253.3 334.989 248.986C334.857 247.807 335.808 245.949 337.564 246.936Z" fill="#636363"/>
<path fill-rule="evenodd" clip-rule="evenodd" d="M334.154 266.14C333.064 264.862 332.354 263.003 330.849 262.361C328.996 263.621 326.667 264.786 327.051 266.92C326.438 267.267 325.253 266.06 326.319 265.829C320.554 263.332 324.659 254.495 329.565 253.908C335.523 253.195 340.638 263.04 334.154 266.14ZM325.778 259.71C325.206 259.754 324.866 259.946 324.63 260.207C324.806 261.543 324.806 263.719 326.067 264.637C328.018 263.559 328.242 261.367 331.607 261.201C332.938 261.793 333.241 263.959 334.57 264.554C340.188 258.543 326.525 250.549 325.778 259.71Z" fill="#636363"/>
<path fill-rule="evenodd" clip-rule="evenodd" d="M308.167 277.943C308.018 276.68 309.748 276.627 310.502 275.945C312.689 272.147 309.376 266.86 305.368 267.07C304.229 268.809 301.391 269.454 301.669 272.106C302.698 272.846 304.391 272.567 305.808 272.713C307.333 274.06 308.002 276.202 306.917 277.963C305.107 277.703 306.868 275.556 305.682 274.486C304.329 273.4 301.505 274.569 300.381 273.132C299.514 269.343 302.307 267.913 304.397 266.031C309.945 264.331 314.09 271.367 311.991 275.874C311.509 276.907 309.627 278.98 308.167 277.943Z" fill="#636363"/>
<path fill-rule="evenodd" clip-rule="evenodd" d="M316.284 270.235C317.995 269.721 319.157 270.047 320.134 270.655C320.31 272.487 320.258 274.172 319.653 275.5C316.322 276.541 315.178 272.544 316.284 270.235ZM318.972 274.649C319.147 273.604 319.398 271.702 318.935 270.913C318.295 271.05 317.655 271.188 317.016 271.325C317.3 272.915 317.238 274.67 318.972 274.649Z" fill="#636363"/>
<path fill-rule="evenodd" clip-rule="evenodd" d="M332.277 273.57C333.225 275.355 333.793 275.43 333.752 276.994C333.714 278.47 331.44 279.4 331.48 280.477C331.552 282.422 337.23 283.541 334.04 286.663C330.916 287.448 329.51 285.601 327.768 284.268C325.962 285.009 323.415 286.943 322.102 284.739C321.65 283.98 321.406 281.21 321.863 280.05C322.054 279.567 322.972 279.263 323.53 278.444C323.974 277.793 323.965 276.74 324.326 276.277C326.508 273.472 330.165 272.323 332.277 273.57ZM324.653 280.199C323.925 280.478 323.845 279.513 323.403 280.218C322.7 281.375 322.87 283.387 324.071 284.565C324.961 284.52 325.172 284.038 325.649 283.727C324.918 280.582 327.818 276.455 332.314 277.303C331.633 271.171 323.555 276.96 324.653 280.199ZM326.557 283.282C330.275 281.504 330.224 287.108 333.447 285.043C332.396 282.84 328.536 281.93 330.597 278.672C327.59 279.138 326.842 281.061 326.557 283.282Z" fill="#636363"/>
<path fill-rule="evenodd" clip-rule="evenodd" d="M317.404 297.769C323.967 297.569 331.815 299.177 338.238 299.266C338.521 300.274 336.36 300.258 335.706 300.308C329.774 300.761 322.709 298.685 317.404 297.769Z" fill="#636363"/>
<path fill-rule="evenodd" clip-rule="evenodd" d="M265.731 108.278C264.756 117.672 244.179 120.2 233.152 119.509C229.897 117.967 225.94 117.339 224.388 113.573C215.466 111.302 208.126 105.492 202.414 98.2335C200.06 95.2441 196.754 91.1841 196.158 88.4468C196.118 88.2621 196.062 86.5098 196.119 86.1827C196.532 83.7826 203.932 78.008 207.192 76.9483C208.215 76.6161 208.981 76.4984 209.684 76.8815C209.652 73.6297 214.723 71.468 217.734 73.329C219.471 70.0997 223.541 69.7118 227.164 68.8446C227.652 69.0766 228.327 69.0631 228.521 69.6783C231.434 67.1508 240.566 63.4199 243.747 67.477C245.517 66.9917 248.062 65.7599 249.621 66.4723C253.126 62.6657 261.532 62.0497 266.109 64.3606C272.726 62.8105 283.198 62.6532 287.94 66.8591C289.679 68.4021 290.148 72.8917 289.79 75.4469C287.869 89.1337 277.755 103.283 265.731 108.278ZM252.9 70.5902C256.648 71.5001 257.072 67.8882 258.607 66.3292C259.856 66.4371 260.328 67.5596 260.679 68.8378C262.236 67.907 265.229 67.6209 265.902 66.6559C264.467 64.9656 259.999 64.0399 256.845 64.2858C255.427 64.3977 252.224 65.1094 252.947 67.0541C253.861 66.9319 256.737 64.751 257.686 66.952C255.612 67.0455 253.462 68.6154 252.9 70.5902ZM229.3 71.8474C229.254 71.523 228.576 71.6198 228.561 71.9419C229.81 72.2271 230.003 73.445 230.355 74.2337C231.816 72.9902 234.169 72.4423 236.841 72.1436C238.136 70.6213 238.961 68.7326 241.596 68.2558C238.111 65.3902 230.538 68.7454 229.3 71.8474ZM219.52 73.6047C222.92 73.9467 224.338 71.9677 226.712 71.1714C227.455 70.9215 228.186 71.7128 228.371 70.4541C225.168 70.6664 220.969 70.9448 219.52 73.6047ZM287.114 68.2254C284.308 65.2618 274.067 64.1013 269.435 64.9425C268.74 65.0686 267.678 65.1697 267.562 65.9396C271.038 66.1614 276.081 64.2177 279.168 66.7227C279.127 68.0298 278.712 69.0462 278.628 70.3208C282.1 69.6525 283.375 71.8485 284.399 74.3723C287.463 73.5285 289.373 70.6106 287.114 68.2254ZM236.913 74.6548C240.771 73.2918 246.367 72.4694 250.297 73.6968C249.72 71.7506 249.11 69.2878 248.796 67.8385C242.862 68.4256 237.85 70.9184 236.913 74.6548ZM251.519 71.5233C251.074 69.9862 252.247 69.7098 252.122 68.4208C251.692 67.9209 251.321 67.3423 250.272 67.6491C250.672 68.9625 250.72 70.7331 251.519 71.5233ZM211.288 77.6843C213.905 77.3417 214.715 75.5916 215.828 74.0775C212.965 74.2286 210.921 75.0166 211.288 77.6843ZM253.09 72.0792C254.034 74.4349 257.318 77.488 259.79 77.524C260.934 77.5397 262.192 76.5148 263.386 76.3062C267.188 75.645 270.8 76.4792 274.008 77.2154C274.474 75.664 273.877 72.4883 272.753 71.3252C268.425 76.424 260.922 73.017 258.647 68.5937C257.823 70.4594 255.671 72.3066 253.09 72.0792ZM261.759 69.4556C263.513 73.1962 270.178 73.311 272.285 69.6205C273.194 70.0757 274.329 70.235 274.754 71.3214C276.385 70.4548 277.59 70.1354 277.54 67.6858C272.859 65.7535 267.081 68.295 261.759 69.4556ZM226.688 72.9387C225.212 73.2737 224.615 74.2017 223.155 74.651C221.076 75.2928 218.611 74.5796 216.971 75.1917C215.241 75.8371 214.813 77.8913 213.415 78.6724C215.648 79.0962 216.056 78.4429 218.432 78.7871C221.272 76.55 225.506 77.4482 230.364 76.2494C230.515 76.8228 231.548 76.2476 231.475 77.1166C232.879 76.0513 235.356 75.8234 235.555 73.8202C233.36 74.1935 231.974 75.1982 230.054 75.7846C229.729 73.7958 227.686 74.0505 226.688 72.9387ZM198.666 84.5955C195.226 89.072 203.345 91.3846 207.431 90.5331C205.558 90.1226 204.97 88.7575 204.708 86.8481C203.845 87.6645 203.162 88.6198 202.843 89.859C200.963 89.0245 202.484 86.3491 203.843 85.9496C202.52 81.2142 208.469 80.513 210.367 78.3062C206.5 78.2105 200.857 81.7458 198.666 84.5955ZM232.832 77.9503C234.267 79.4572 234.918 81.9855 235.873 84.1161C239.205 82.3064 243.535 78.621 247.891 80.3078C247.907 78.3115 248.485 76.7511 249.256 75.3431C244.881 73.1748 236.617 75.2981 232.832 77.9503ZM255.266 77.3466C253.613 76.6739 252.51 73.8445 251.066 73.8507C251.261 74.4721 253.113 75.4206 252.805 77.6618C253.635 77.3709 255.174 77.6333 255.266 77.3466ZM207.795 81.6617C208.839 81.9403 209.117 83.218 210.264 83.3625C210.568 81.8873 211.861 81.1833 212.59 80.0394C210.766 79.2991 208.779 80.4707 207.795 81.6617ZM221.941 78.8415C222.358 80.6131 223.533 82.4745 222.854 84.0192C225.207 83.1732 227.403 82.2055 230.324 81.802C229.096 79.4683 231.059 78.785 231.014 77.4273C227.115 77.8822 224.081 78.4575 221.941 78.8415ZM275.866 72.1865C275.011 73.5229 276.069 73.805 275.818 75.7226C279.109 74.6313 280.701 76.5826 283.082 75.8009C282.927 72.7903 279.737 70.4024 275.866 72.1865ZM221.528 83.4318C221.63 81.6644 221.273 80.2741 220.25 79.3092C219.694 80.0957 220.475 82.9469 221.528 83.4318ZM211.804 83.6697C212.418 83.9297 213.254 83.9004 213.868 84.1604C214.567 82.3987 217.277 82.2024 217.607 80.1522C215.968 80.4999 215.6 80.2655 214.13 80.3451C213.889 81.8703 211.89 82.0245 211.804 83.6697ZM250.019 81.2962C250.658 80.3415 251.775 77.5066 250.4 76.4576C249.72 77.4958 248.067 80.3107 250.019 81.2962ZM205.652 84.4577C205.833 83.8537 206.014 83.2502 206.446 82.843C205.792 82.944 204.793 83.9173 205.652 84.4577ZM234.087 83.8405C232.841 83.053 233.468 79.8221 231.578 79.8756C231.809 81.7993 232.899 84.1311 234.087 83.8405ZM217.218 90.7915C217.492 88.3252 219.46 87.1785 219.965 84.8937C219.344 84.0623 219.13 82.7005 218.567 81.7943C216.985 82.2933 216.391 83.9032 215.257 85.2446C214.856 85.7187 214.105 85.9317 213.661 86.4564C212.075 88.3399 212.048 90.3236 210.478 90.8979C210.638 90.8405 208.564 90.6058 209.986 90.9609C211.924 91.523 215.015 90.5773 217.218 90.7915ZM206.74 87.0915C207.133 86.2205 208.794 84.4168 207.557 83.7092C207.219 84.6416 206.131 86.1632 206.74 87.0915ZM215.41 107.916C221.639 112.176 230.362 113.781 239.685 113.883C255.397 114.054 270.252 105.516 278.368 97.5828C282.875 90.4521 287.079 83.0846 288.551 73.5878C288.517 73.4384 288.476 73.2978 288.273 73.371C278.224 82.9923 258.702 84.927 243.311 89.4661C231.149 89.7384 216.155 93.174 203.683 92.5242C202.647 91.5592 201.105 91.2552 199.491 91.0444C203.505 97.5318 209.045 103.562 215.41 107.916ZM252.503 79.2127C251.258 85.4208 247.661 80.6247 242.819 81.7147C245.683 84.8768 250.797 83.594 256.092 83.7962C256.762 82.2349 257.205 80.4957 257.981 79.0156C256.304 79.0314 253.81 78.7355 252.503 79.2127ZM207.7 88.7329C210.379 91.446 211.545 87.6033 212.797 85.5597C211.685 85.1748 210.666 84.6711 209.192 84.7596C209.34 86.5871 207.74 87.0526 207.7 88.7329ZM259.124 80.1302C258.033 81.4056 258.178 83.2194 257.203 84.6624C256.876 84.6704 255.418 84.853 256.251 85.0356C264.763 82.1778 273.523 81.9535 279.764 77.2355C276.689 75.6494 273.65 80.2651 271.342 79.8264C270.424 79.1148 271.926 79.1483 271.643 78.2755C267.823 77.9501 261.8 77.0021 259.124 80.1302ZM227.379 84.1958C228.424 84.377 229.46 84.5686 229.816 85.6494C229.358 85.9624 228.82 86.2122 228.713 86.7982C229.271 86.9401 229.085 88.0513 229.642 88.1922C229.707 86.5312 231.255 86.0253 232.245 85.0859C232.119 82.0558 228.714 83.4143 227.379 84.1958ZM218.973 90.8192C220.5 90.3959 221.087 90.5997 222.108 89.9128C221.336 87.1527 223.379 86.5862 224.243 85.1008C223.492 85.1866 223.353 85.7483 222.862 86.0349C222.432 85.7289 222.503 84.7669 221.719 84.9203C221.021 87.0567 219.232 88.3414 218.973 90.8192ZM241.16 82.4309C238.968 83.879 236.839 86.3699 233.571 85.6722C232.042 86.4149 231.249 87.7332 230.785 89.3067C233.639 89.7648 235.723 87.1662 238.779 87.2733C239.662 87.3061 240.514 88.1304 241.399 88.1998C245.949 88.5567 250.23 85.8457 254.282 85.2877C251.905 85.2764 248.381 84.7428 246.376 86.0491C245.212 84.0918 242.691 83.9081 241.16 82.4309ZM223.307 89.5073C224.675 90.4965 227.105 89.6424 229.801 89.4328C229.634 88.506 229.201 88.3769 228.475 88.8454C227.831 87.8876 226.675 86.9276 227.848 85.9012C225.437 85.4755 223.496 87.0083 223.307 89.5073ZM239.661 115.651C239.031 115.605 238.59 115.311 238.089 115.095C235.901 115.555 230.656 114.634 229.104 115.239C228.799 116.454 230.566 116.44 231.295 116.723C240.321 120.216 259.817 116.494 263.921 109.77C263.854 109.471 263.772 109.192 263.365 109.337C256.316 113.061 247.706 114.753 239.661 115.651Z" fill="#636363"/>
<path fill-rule="evenodd" clip-rule="evenodd" d="M449.098 114.445C445.725 114.897 441.59 113.011 437.23 112.719C433.069 112.441 429.17 111.694 426.226 110.777C426.191 110.527 426.274 110.394 426.442 110.346C433.089 111.674 443.122 111.594 449.098 114.445Z" fill="#636363"/>
<path fill-rule="evenodd" clip-rule="evenodd" d="M489.015 119.623C488.974 120.608 486.299 123.448 484.699 123.507C482.864 123.578 480.412 122.603 477.795 121.997C472.889 120.863 467.138 119.987 463.985 118.977C463.985 118.833 463.985 118.689 463.985 118.545C463.925 118.16 464.19 118.103 464.201 118.329C471.601 119.469 477.747 121.3 484.699 122.213C486.399 121.753 487.408 119.458 489.015 119.623Z" fill="#636363"/>
<path fill-rule="evenodd" clip-rule="evenodd" d="M460.102 89.6321C464.35 90.2019 468.365 91.0061 469.595 94.5945C480.357 94.7392 486.296 102.921 490.093 111.209C492.044 115.467 492.209 118.816 491.604 124.372C491.22 127.89 490.293 131.09 487.289 132.139C485.875 136.706 485.194 141.434 483.405 145.517C482.093 148.508 479.389 150.475 477.795 153.069C476.86 153.283 476.597 152.827 476.068 152.637C473.413 153.241 471.392 151.824 468.732 151.127C462.825 149.577 456.42 150.274 450.392 148.321C449.391 147.997 448.497 147.306 447.587 147.026C444.581 146.103 441.134 145.876 437.877 145.085C435.995 144.628 434.129 143.578 432.268 142.711C428.044 140.744 424.582 140.315 421.694 137.533C421.687 132.821 421.533 127.72 421.479 122.861C421.448 120.11 422.328 117.265 422.126 115.094C421.999 113.726 420.743 112.039 421.047 110.562C421.218 109.735 422.803 108.293 423.636 107.757C427.538 105.248 434.887 103.697 439.819 101.931C442.295 101.044 444.131 100.323 446.292 98.911C446.962 98.6275 446.907 98.969 447.802 98.911C448.686 96.702 450.666 95.5888 453.196 95.0268C454.776 93.0111 455.552 90.1912 458.59 89.6327C458.201 87.1446 455.721 85.5994 455.138 84.0226C458.162 83.6741 458.908 87.4354 460.102 89.6321ZM454.708 96.9681C456.785 98.3815 458.98 99.6048 461.396 99.5572C464.611 99.4941 465.808 95.6827 467.869 94.1631C464.86 89.5838 453.659 89.4142 454.708 96.9681ZM464.417 99.9886C461.079 100.747 456.727 100.469 454.492 98.6944C453.523 97.9252 453.791 96.8789 452.766 96.3204C446.783 97.5547 449.901 103.144 452.334 105.815C455.045 107.209 457.894 108.713 462.044 108.62C464.969 108.554 467.753 106.998 470.243 107.325C473.282 107.724 475.63 110.842 477.795 108.404C479.205 101.503 472.923 100.492 471.321 95.8893C467.522 94.9139 466.173 97.8095 464.417 99.9886ZM478.874 108.835C477.852 109.827 476.368 110.357 474.558 110.562C471.087 107.225 465.848 109.887 461.612 109.915C454.957 109.958 448.391 105.981 447.587 99.9883C445 100.318 442.926 102.209 440.251 103.225C434.596 105.37 429.113 106.261 424.715 108.835C423.558 109.513 421.676 110.748 422.558 112.503C429.431 113.882 437.803 114.007 444.35 115.525C446.523 116.028 448.196 117.197 450.392 117.897C452.021 118.418 453.829 118.615 455.57 119.192C457.289 119.764 459.033 120.19 460.749 120.703C464.38 121.789 468.069 122.255 471.537 123.291C475.093 124.355 478.902 126.659 478.873 130.412C480.851 129.585 481.879 127.808 484.483 127.607C485.475 128.629 486.124 129.994 487.72 130.412C490.54 127.606 491.683 118.808 490.309 114.661C489.549 112.366 487.987 108.693 486.21 106.031C485.542 105.032 484.245 104.067 483.404 103.01C480.63 99.52 477.225 97.4708 473.047 96.1053C475.116 100.131 480.784 102.188 478.874 108.835ZM476.501 127.607C473.14 124.729 468.902 124.55 464.201 123.291C462.677 122.884 461.223 122.26 459.67 121.781C456.574 120.825 453.333 120.173 450.177 119.192C447.609 118.395 445.575 117.147 443.057 116.603C437.155 115.33 429.458 114.741 423.422 114.014C423.198 116.02 423.141 118.192 422.99 120.271C425.599 120.337 426.71 120.833 428.816 121.566C429.777 121.9 430.958 122.063 431.836 122.43C434.367 123.485 436.698 126.069 438.956 126.314C442.575 126.703 446.013 122.993 449.53 123.724C452.425 124.326 453.807 127.832 456.002 129.334C457.739 130.522 460.205 131.292 461.828 131.276C463.493 131.258 464.522 129.757 467.006 129.334C474.312 128.09 475.283 137.072 481.895 135.375C482.348 133.669 483.174 131.19 482.758 129.334C481.327 130.205 480.372 131.551 478.442 131.923C477.623 130.656 476.969 129.223 476.501 127.607ZM422.774 126.528C426.165 127.123 429.022 127.357 432.268 128.254C435.272 129.085 437.803 131.284 440.467 131.276C441.695 131.271 442.886 130.528 443.919 130.412C448.183 129.939 452.48 130.851 455.355 133.649C456.369 134.637 457.171 136.621 458.376 137.317C461.999 139.412 464.191 137.578 466.79 136.454C468.3 135.802 469.949 135.09 471.753 135.375C475.019 135.892 476.819 140.953 480.6 140.122C481.236 139.32 481.096 137.741 481.463 136.67C475.384 137.325 473.734 131.343 469.811 130.628C466.915 130.102 464.652 132.495 460.965 132.354C454.97 132.128 452.86 125.094 448.018 124.803C446.174 124.692 445.093 125.919 443.487 126.529C438.194 128.541 436.041 126.049 432.052 124.156C429.36 122.878 426.178 121.548 422.773 121.566C423.083 122.806 423.157 125.3 422.774 126.528ZM470.459 136.454C467.661 136.368 465.8 139.069 463.122 139.474C461.394 139.737 458.926 139.212 457.513 138.396C455.967 137.502 455.509 135.576 453.845 134.08C451.403 131.886 447.17 131.045 443.703 131.492C442.274 131.675 441.043 132.496 439.388 132.353C437.637 132.204 435.89 130.822 433.778 129.98C430.645 128.731 426.627 128.208 422.99 127.823C423.014 129.309 422.874 130.959 423.206 132.139C426.465 134.147 429.862 134.011 433.778 134.944C435.995 135.471 438.162 136.51 440.467 136.886C453.467 139.003 466.575 143.281 478.874 146.379C479.203 144.622 480.014 143.348 480.384 141.632C475.641 142.241 474.596 136.58 470.459 136.454ZM483.405 134.512C483.536 134.884 484.429 134.496 484.484 134.944C483.545 136.163 482.291 137.066 482.326 139.259C484.629 138.928 485.677 135.681 484.915 133.649C486.724 132.416 485.897 130.499 484.268 129.766C483.722 131.09 483.833 133.07 483.405 134.512ZM426.874 139.474C430.064 139.845 432.696 141.888 435.72 143.142C438.458 144.278 441.988 144.347 445.214 145.084C447.249 145.55 448.958 146.584 451.04 147.242C454.299 148.273 458.576 148.71 462.476 149.184C467.614 149.808 472.41 151.524 476.716 151.126C477.498 149.822 477.957 148.196 478.658 146.81C478.053 147.068 477.169 147.047 476.285 147.026C459.521 142.52 442.804 137.392 424.069 134.296C423.897 133.821 423.635 133.434 422.99 133.434C422.381 137.351 425.467 137.573 426.874 139.474ZM479.737 148.321C481.492 146.121 482.832 143.504 483.621 140.338C480.567 141.097 480.827 146.318 479.737 148.321Z" fill="#636363"/>
<path fill-rule="evenodd" clip-rule="evenodd" d="M555.458 302.774C556.666 304.706 557.127 306.91 556.618 309.459C559.457 312.209 560.922 315.449 566.27 317.299C572.563 324.641 575.698 330.323 574.484 341.471C573.838 347.392 575.858 352.55 571.278 356.501C572.676 363.493 566.418 366.99 561.322 370.72C555.672 374.86 550.145 379.473 543.36 380.71C532.853 382.624 522.767 377.28 511.706 376.237C490.478 370.089 467.841 354.275 458.47 337.533C458.421 336.475 458.202 335.477 459.136 334.067C455.924 329.597 450.329 322.279 449.2 316.645C448.244 311.869 452.104 301.608 454.393 297.353C456.207 293.981 460.724 291.795 464.13 288.699C467.668 285.48 470.896 281.438 474.257 280.228C476.106 279.56 479.271 279.688 482.301 279.281C484.803 278.945 487.79 278.084 489.955 278.151C496.153 278.348 502.508 281.817 509.277 281.557C512.848 281.42 519.062 279.551 523.558 283.542C525.424 285.196 525.649 288.687 527.21 289.98C529.843 292.165 533.546 292.8 535.785 294.007C540.069 296.317 543.038 299.269 547.719 301.029C549.874 300.451 552.444 301.002 555.458 302.774ZM514.136 283.366C515.394 284.959 518.947 285.729 518.689 287.866C515.635 288 512.76 285.567 510.686 283.634C504.021 282.772 497.136 281.303 490.403 280.251C486.313 281.418 482.293 282.778 477.376 281.691C475.907 283.485 472.68 283.415 472.507 286.017C476.892 288.677 480.067 287.084 482.615 289.818C487.084 294.616 477.626 300.163 478.686 306.4C488.031 314.791 492.24 301.753 500.747 304.951C502.98 311.925 507.728 314.32 514.991 312.112C519.045 315.825 521.688 320.042 523.433 324.579C521.584 332.922 522.329 347.066 533.187 342.389C534.629 340.159 536.256 338.433 537.401 335.391C541.148 332.891 546.133 331.88 550.636 334.521C553.487 336.195 554.925 339.337 558.88 340.283C562.065 341.046 564.553 338.698 567.885 339.317C569.184 339.927 570.483 340.537 571.782 341.147C576.107 327.116 563.351 319.205 553.945 310.095C554.219 307.413 554.944 304.572 551.436 303.245C550.08 304.977 553.03 306.312 550.981 307.283C547.834 306.7 546.898 305.079 546.035 302.6C538.244 299.064 532.348 293.419 524.357 291.001C523.627 286.208 519.856 281.736 514.136 283.366ZM486.88 362.214C493.397 366.707 503.048 371.642 510.841 372.995C516.335 373.951 523.821 370.116 527.977 373.955C525.419 374.611 522.555 374.429 519.931 374.901C532.85 379.329 546.184 380.196 553.696 372.809C551.937 373.019 548.618 373.599 547.335 372.182C555.52 370.448 564.153 369.931 568.845 358.663C567.578 357.901 565.086 358.32 564.765 357.22C571.22 355.819 572.025 349.831 572.049 343.632C564.579 339.847 560.084 344.603 552.728 340.229C549.147 338.1 548.355 335.63 545.654 335.015C539.316 333.579 540.434 339.224 535.526 343.488C532.222 346.357 525.073 346.077 522.053 342.828C519.831 340.439 519.324 332.775 519.703 328.498C519.86 326.749 520.914 325.442 520.522 323.685C519.985 321.289 516.341 316.058 514.112 315.007C510.973 313.525 507.06 316.646 503.132 314.1C500.463 312.371 501.369 309.337 497.92 306.929C495.235 305.965 494.152 309.268 491.494 310.524C486.265 312.997 477.413 310.635 475.625 306.85C473.43 302.205 480.79 296.716 480.75 291.778C477.549 288.186 472.567 289.996 469.653 287.039C466.246 290.797 459.384 293.334 456.55 298.837C453.458 304.843 455.146 311.822 458.622 316.817C456.214 315.681 454.402 312.288 452.842 309.852C450.179 315.306 453.659 318.841 455.522 322.448C456.889 325.093 457.161 328.396 458.242 329.866C459.213 331.187 461.063 331.525 462.168 332.655C462.608 333.104 462.222 333.993 463.005 334.939C463.984 336.119 464.681 337.28 465.609 338.523C468.098 341.853 472.369 343.159 474.69 346.568C470.186 345.887 465.77 340.754 462.758 339.545C468.157 347.008 477.266 355.584 486.88 362.214Z" fill="#636363"/>
<path fill-rule="evenodd" clip-rule="evenodd" d="M524.595 293.783C523.549 293.843 521.601 291.997 520.672 290.998C522.288 289.753 525.694 291.61 524.595 293.783Z" fill="#636363"/>
<path fill-rule="evenodd" clip-rule="evenodd" d="M503.297 287.611C502.923 288.284 503.393 288.653 502.965 289.344C503.91 289.869 504.315 288.922 505.065 288.913C507.139 294.747 494.907 291.903 493.881 287.437C496.304 285.54 499.527 285.832 503.297 287.611ZM497.178 288.513C497.96 289.241 499.515 290.543 500.684 290.16C501.681 287.956 498.046 287.987 497.178 288.513Z" fill="#636363"/>
<path fill-rule="evenodd" clip-rule="evenodd" d="M525.174 301.664C525.257 303.571 524.087 305.927 523.633 308.025C517.752 308.124 513.032 301.645 510.45 297.585C514.355 292.521 521.314 298.634 525.174 301.664ZM513.721 297.703C515.332 300.783 517.723 303.583 521.837 305.765C522.259 304.861 522.68 303.958 523.101 303.054C520.466 300.26 517.782 298.417 513.721 297.703Z" fill="#636363"/>
<path fill-rule="evenodd" clip-rule="evenodd" d="M540.986 311.442C539.687 313.183 538.14 314.246 536.479 314.992C532.073 313.607 529.306 309.289 531.363 304.557C535.266 304.444 541.259 308.026 540.986 311.442ZM533.55 307.003C531.23 309.407 535.904 315.868 538.675 311.3C537.75 309.722 536.005 306.988 533.55 307.003Z" fill="#636363"/>
<path fill-rule="evenodd" clip-rule="evenodd" d="M565.668 323.501C566.941 328.064 561.636 332.254 556.776 328.3C556.102 326.821 556.312 325.023 555.102 323.734C557.981 321.904 561.147 320.85 565.668 323.501ZM558.04 325.587C557.577 326.939 560.003 327.252 561.188 328.012C562.377 327.413 563.721 326.71 563.594 324.889C561.277 323.85 559.362 323.91 558.04 325.587Z" fill="#636363"/>
<path fill-rule="evenodd" clip-rule="evenodd" d="M549.211 325.246C546.796 326.21 540.955 325.066 539.887 321.813C542.821 318.175 550.537 319.747 549.211 325.246ZM543.185 322.889C544.448 322.813 546.286 324.306 547.025 322.804C545.814 323.021 543.794 321.035 543.185 322.889Z" fill="#636363"/>
<path fill-rule="evenodd" clip-rule="evenodd" d="M492.362 318.989C496.247 322.595 499.835 324.543 504.513 327.522C500.407 326.869 492.718 323.864 491.253 320.355C491.715 320.151 492.077 319.677 492.362 318.989Z" fill="#636363"/>
<path fill-rule="evenodd" clip-rule="evenodd" d="M562.972 353.534C559.294 356.417 554.488 356.222 549.789 356.321C551.808 353.895 557.911 354.995 560.813 352.047C561.799 352.449 562.72 352.87 562.972 353.534Z" fill="#636363"/>
<path fill-rule="evenodd" clip-rule="evenodd" d="M479.75 327.759C475.347 326.754 468.255 322.207 471.216 318.562C474.298 320.286 475.092 325.533 479.75 327.759Z" fill="#636363"/>
<path fill-rule="evenodd" clip-rule="evenodd" d="M519.315 360.689C513.386 362.582 503.1 360.765 495.009 355.879C491.553 353.792 489.571 349.658 486.128 347.471C479.646 343.35 469.803 342.651 467.068 338.527C468.35 336.341 468.955 338.252 470.151 339.031C476.008 342.026 482.399 342.221 487.599 345.334C491.617 347.739 493.555 352.371 497.467 354.674C504.619 358.889 511.319 357.722 519.315 360.689Z" fill="#636363"/>
<path fill-rule="evenodd" clip-rule="evenodd" d="M548.707 366.758C546.008 369.077 541.843 367.393 538.357 367.563C541.269 366.328 545.872 365.3 548.707 366.758Z" fill="#636363"/>
<path fill-rule="evenodd" clip-rule="evenodd" d="M479.044 340.259C486.522 342.218 492.603 352.349 499.476 356.448C508.06 361.565 517.728 361.19 525.459 365.816C520.304 365.878 513.37 364.997 507.524 362.583C504.364 361.276 500.313 359.969 497.615 358.403C494.015 356.312 492.873 351.414 488.97 351.517C486.461 347.478 483.16 343.721 479.044 340.259Z" fill="#636363"/>
<path fill-rule="evenodd" clip-rule="evenodd" d="M100.775 181C104.591 185.016 112.223 180.549 118.593 182.843C120.567 183.554 122.43 185.589 124.43 185.915C127.801 186.465 131.576 184.694 135.488 185.609C137.881 186.798 140.466 187.798 142.247 189.601C143.151 189.941 144.991 189.887 145.933 190.216C152.895 192.642 162.84 201.283 166.516 208.648C167.688 210.998 167.957 214.266 168.973 217.863C169.853 220.98 171.384 224.945 169.895 227.385C168.117 230.298 161.255 230.045 159.144 229.843C150.81 229.048 142.603 226.724 133.645 226.465C115.767 225.947 95.9591 226.215 79.8867 226.771C70.7389 227.088 62.1591 229.238 53.7754 229.537C45.6306 229.827 37.8176 227.002 35.0371 222.778C34.6164 215.762 37.8319 208.892 41.795 204.039C48.583 195.727 56.7777 189.227 70.6711 188.066C72.0261 188.498 70.6761 186.227 71.5924 186.222C74.8888 186.138 78.688 183.401 83.5737 182.536C88.7952 181.611 94.7926 181.669 100.162 181.614C100.495 181.539 100.369 181.004 100.775 181ZM108.148 191.137C106.056 187.982 102.708 185.804 99.8539 183.458C90.258 182.39 81.1924 184.435 74.6638 187.451C77.5072 191.271 82.1927 196.501 79.8854 203.426C77.9328 204.32 77.6679 201.591 77.1211 200.661C74.794 196.704 71.5956 193.516 68.5192 190.83C59.841 190.019 55.0042 194.132 50.7022 197.896C49.6202 198.843 48.0276 199.336 47.3227 200.046C46.2102 201.167 45.1735 203.134 43.9442 204.654C40.533 208.871 36.6484 215.113 36.8788 221.549C37.985 225.291 43.9406 227.158 48.5516 227.693C57.1732 228.693 66.0763 226.307 74.9705 225.851C92.9276 224.929 112.477 224.107 130.573 224.928C140.985 225.402 150.807 227.629 159.756 228.308C164.145 228.64 166.049 228.26 168.357 226.771C169.565 223.768 168.543 220.793 167.744 218.17C165.903 219.611 163.237 221.853 160.064 220.936C162.296 219.277 165.562 218.651 167.128 216.328C164.538 204.685 156.721 198.268 147.469 193.289C146.809 197.204 149.557 203.89 145.625 205.268C144.159 199.406 142.058 192.736 137.946 190.524C137.723 189.583 138.476 189.618 138.254 188.68C135.86 187.679 132.937 186.68 129.958 187.144C130.864 189.629 131.073 193.44 130.881 196.36C130.768 198.064 131.673 200.974 129.652 201.275C126.6 197.569 124.556 192.854 122.894 187.759C120.786 187.809 120.37 185.228 118.593 184.379C116.205 183.239 113.139 183.699 109.992 183.764C110.751 185.217 112.621 187.094 113.37 189.601C114.231 192.487 115.429 197.121 112.756 198.817C110.296 196.891 109.817 193.653 108.148 191.137ZM105.383 184.994C107.731 188.686 111.005 191.453 112.756 195.746C112.13 190.451 111.032 184.273 105.383 184.994ZM125.044 188.066C126.15 191.465 127.377 194.743 129.345 197.281C130.08 193.614 129.241 189.863 127.808 187.451C127.167 187.936 126.192 188.089 125.044 188.066ZM73.435 188.986C71.9574 188.739 72.3251 190.335 70.6702 189.909C73.299 193.424 76.8234 196.044 78.9645 200.046C78.789 194.692 75.9816 191.97 73.435 188.986ZM142.554 192.366C144.164 194.237 144.468 197.415 146.24 199.123C146.411 196.496 146.003 194.446 145.625 192.366C144.738 191.846 143.31 191.471 142.554 192.366Z" fill="#636363"/>
<path fill-rule="evenodd" clip-rule="evenodd" d="M149.619 220.321C145.091 221.65 140.203 219.815 135.181 219.092C130.092 218.358 124.43 218.048 118.9 217.863C102.996 217.333 85.7835 217.473 71.2844 218.478C74.8924 216.926 79.2681 216.642 83.5724 216.328C98.9088 215.206 117.421 216.182 133.338 217.248C139.119 217.636 144.637 219.49 149.619 220.321Z" fill="#636363"/>
<path fill-rule="evenodd" clip-rule="evenodd" d="M201.522 364.35C201.808 365.793 202.17 366.879 202.013 369.017C201.427 376.942 197.957 379.565 192.936 383.262C186.915 387.697 178.805 390.881 170.614 392.84C164.17 394.382 157.223 395.561 151.726 396.77C150.867 396.729 150.954 397.635 150.5 397.998C149.834 398.174 150.675 396.839 150.009 397.015C148.82 397.129 147.622 397.839 146.33 397.998C144.009 398.284 140.54 397.183 138.48 398.98C137.543 399.182 138.191 397.797 137.253 397.998C131.587 398.492 127.369 397.853 122.781 395.542C116.437 392.348 110.128 390.714 108.062 383.508C100.387 381.209 102.822 371.098 106.345 366.07C110.339 361.803 114.425 356.643 119.837 353.299C127.265 348.708 136.88 346.302 147.555 343.965C151.782 343.041 158.535 341.974 164.235 342C169.912 342.028 177.298 343.576 183.369 344.703C186.648 345.311 190.985 345.48 193.181 346.667C194.339 347.293 196 348.974 197.596 350.105C200.502 352.168 205.177 355.678 203.728 361.649C203.372 363.123 202.44 363.107 201.522 364.35ZM167.425 343.229C166.802 344.815 165.156 345.378 164.482 346.914C175.109 346.848 184.883 347.57 190.729 352.808C191.815 351.534 195.267 352.307 194.408 354.281C195.509 354.079 195.504 354.985 196.125 355.264C196.125 354.609 196.125 353.953 196.125 353.3C193.563 350.38 190.519 347.942 186.313 346.668C186.079 347.125 187.048 347.488 186.313 347.65C185.024 347.412 185.164 346.388 184.596 345.93C179.041 344.927 173.094 343.338 167.425 343.229ZM152.953 350.843C155.093 350.447 157.409 350.23 160.067 350.352C160.756 347.277 163.79 346.548 164.727 343.72C156.978 342.266 156.157 347.747 152.953 350.843ZM133.329 349.124C132.406 349.638 131.451 350.49 131.366 351.58C133.041 351.571 134.37 350.069 136.027 350.843C139.629 348.18 146.944 348.937 151.48 347.895C151.969 348.143 152.041 348.808 152.462 349.124C153.23 347.274 154.862 346.288 155.896 344.703C147.866 345.303 138.592 346.19 133.329 349.124ZM161.783 350.352C165.366 350.04 167.782 350.895 169.143 352.808C169.523 350.897 170.944 350.028 171.841 348.633C168.268 348.601 162.945 347.06 161.783 350.352ZM174.048 348.633C170.329 351.457 169.324 357 168.162 362.385C170.948 362.707 173.474 363.289 175.766 364.105C177.168 358.96 178.668 353.913 180.917 349.615C178.877 349.037 176.272 349.026 174.048 348.633ZM131.367 353.544C131.541 354.132 133.1 352.828 133.084 354.035C131.644 357.023 129.168 361.079 128.668 365.825C131.367 365.16 133.276 365.21 136.273 364.842C138.338 360.279 140.503 355.815 143.632 352.316C144.559 351.96 144.103 352.992 144.858 352.808C146.672 351.431 150.848 352.419 151.481 349.86C144.002 349.234 137.052 351.059 131.367 353.544ZM129.895 350.597C129.867 350.298 129.821 350.016 129.404 350.106C124.251 351.577 120.751 354.705 118.611 359.194C120.623 358.916 122.239 358.242 124.253 357.965C125.074 354.448 127.448 352.486 129.895 350.597ZM181.653 351.334C183.156 350.983 184.583 351.992 185.577 351.334C184.285 351.072 183.65 350.153 182.143 350.106C182.181 350.717 181.758 350.866 181.653 351.334ZM165.218 351.58C154.235 351.765 142.643 351.603 139.952 360.667C140.9 360.619 141.759 360.659 142.405 360.913C148.114 357.607 158.097 357.887 165.463 356.983C166.589 356.756 166.648 357.597 167.671 357.474C168.156 356.16 168.683 354.886 168.897 353.3C167.073 353.325 166.124 352.474 165.218 351.58ZM197.597 355.509C195.42 357.017 196.505 359.739 195.88 362.14C194.973 365.624 191.57 367.063 188.766 369.263C186.063 369.389 182.46 370.867 180.426 372.455C179.092 373.499 178.44 375.125 176.992 375.649C175.251 376.277 174.001 375.816 172.822 376.14C170.649 376.736 169.683 377.594 168.161 378.596C163.933 380.804 159.841 381.331 153.688 381.789C151.083 381.983 148.306 382.851 145.838 383.016C142.757 383.223 140.21 382.313 137.743 382.525C133.937 382.853 131.509 384.937 128.177 384.735C125.862 384.596 121.708 382.978 119.837 382.28C116.453 381.017 115.189 379.62 113.459 377.122C110.416 376.7 107.559 374.269 105.855 371.719C102.268 376.247 105.737 383.298 111.987 382.524C115.554 384.651 118.777 389.675 124.497 389.402C126.949 389.285 129.161 387.319 131.611 387.437C136.391 387.667 140.045 391.947 144.857 391.612C150.443 391.222 152.803 386.079 159.085 386.209C159.935 386.34 160.391 386.865 161.292 386.945C161.834 386.588 161.777 385.63 162.518 385.472C163.476 385.92 162.135 387.152 163.5 387.191C170.512 387.362 170.226 380.872 177.482 380.315C180.316 380.098 183.02 380.821 185.331 380.069C188.284 379.108 191.015 376.252 191.219 372.947C194.487 370.211 201.982 370.783 200.049 363.614C200.75 362.597 201.904 362.033 202.502 360.913C202.382 356.203 200.469 353.287 197.105 351.825C197.257 353.066 197.559 354.156 197.597 355.509ZM125.97 357.229C127.751 357.25 128.946 355.797 130.385 356.246C130.48 355.44 131.102 355.163 131.367 354.527C130.436 354.714 129.092 354.95 129.159 353.544C129.508 352.736 130.091 353.31 130.14 352.562C128.579 352.992 127.138 355.594 125.97 357.229ZM178.709 359.684C185.386 359.062 190.331 361.467 194.163 362.877C194.924 360.968 194.315 358.447 195.144 356.246C191.692 353.644 186.163 353.122 180.917 352.316C180.245 354.837 179.212 356.995 178.709 359.684ZM111.252 363.123C114.429 361.31 117.517 359.408 118.856 355.755C115.869 357.595 112.876 360.737 111.252 363.123ZM108.063 367.789C107.929 367.432 108.35 366.52 107.818 366.561C107.525 367.824 106.511 368.364 106.346 369.754C107.723 371.568 108.56 373.924 111.252 374.42C111.256 373.433 111.959 371.865 111.498 371.228C111.05 371.845 110.902 372.76 109.535 372.455C109.545 372.117 109.419 371.916 109.289 371.719C112.646 365.827 121.521 365.464 127.932 362.631C128.09 360.74 129.557 358.859 129.404 357.474C121.256 360.413 112.766 361.494 108.063 367.789ZM148.537 359.93C148.96 361.704 147.81 363.697 146.82 364.842C145.816 369.075 144.406 372.904 142.404 376.14C142.211 378.321 141.352 379.835 140.688 381.544C144.924 382.219 148.142 380.968 151.971 380.56C152.57 376.084 153.061 372.16 153.934 368.28C154.694 364.905 156.102 361.387 158.103 359.44C158.929 360.063 158.175 360.807 158.594 361.65C154.696 365.986 154.591 373.485 153.688 380.316C157.027 380.882 160.281 380.1 162.764 379.087C161.771 377.196 163.1 374.029 163.5 371.965C161.875 370.883 157.032 373.533 156.877 370.982C163.8 370.217 172.927 370.549 177.973 373.193C178.827 371.592 180.843 371.154 181.897 369.754C177.349 365.226 169.867 362.866 161.047 363.369C160.315 363.656 158.183 365.214 157.858 363.614C159.724 361.813 163.433 361.928 166.689 362.14C166.602 360.825 167.418 360.415 167.18 358.948C161.084 357.571 154.559 359.637 148.537 359.93ZM120.328 377.368C126.446 375.143 132.126 372.479 140.442 372.455C141.192 372.687 141.211 373.65 142.16 373.684C144.3 369.277 145.262 363.692 148.292 360.175C145.114 360.842 142.532 362.104 138.971 362.385C138.623 363.103 138.051 363.594 137.989 364.596C139.552 365.413 143.348 362.824 143.386 365.824C136.727 366.065 128.694 366.269 124.007 369.509C123.055 370.167 122.736 371.521 121.309 371.474C120.681 371.298 121.166 369.642 120.818 370.736C120.06 372.351 120.406 375.072 120.328 377.368ZM178.218 361.404C177.832 362.572 177.434 363.729 176.992 364.842C179.837 365.596 181.523 367.511 183.615 369.018C187.093 367.915 191.151 367.394 192.691 364.351C188.929 362.066 183.852 360.476 178.218 361.404ZM121.309 369.754C123.092 367.936 126.023 367.269 128.178 365.824C127.21 366.137 127.541 365.152 127.196 364.842C120.723 366.63 112.258 366.423 112.724 375.157C116.025 376.846 116.754 381.109 121.8 381.051C121.775 380.044 121.752 379.038 122.045 378.35C121.13 378.743 120.417 379.34 118.856 379.087C118.804 374.04 118.6 368.841 121.555 366.807C123.25 367.549 120.996 369.119 121.309 369.754ZM198.578 371.474C198.846 373.846 198.038 374.998 198.578 376.631C198.952 374.302 200.498 371.842 200.295 369.754C199.911 370.517 198.942 370.691 198.578 371.474ZM164.236 378.841C167.39 377.906 169.405 375.829 172.577 374.912C172.523 374.121 173.011 373.872 172.822 372.947C169.794 372.042 167.68 372.237 164.973 371.965C164.445 373.896 163.32 376.992 164.236 378.841ZM195.634 372.21C195.543 374.656 195.862 377.513 195.39 379.579C198.015 378.489 197.023 375.058 197.352 371.965C196.501 371.767 196.409 372.33 195.634 372.21ZM192.445 374.175C193.074 376.61 192.174 379.185 192.2 381.789C193.162 381.605 193.533 380.831 194.408 380.56C194.056 377.919 194.867 374.958 193.672 372.947C193.203 373.297 192.795 373.705 192.445 374.175ZM174.048 374.42C174.986 374.459 175.835 374.408 176.256 373.929C175.71 373.413 173.892 372.993 174.048 374.42ZM134.31 374.42C134.043 377.428 131.885 379.85 132.347 382.771C134.889 382.287 136.565 380.936 139.706 381.051C139.478 378.567 141.221 376.275 141.914 373.929C139.59 374.366 136.882 373.828 134.31 374.42ZM124.253 377.122C123.414 378.165 123.316 379.95 123.026 381.544C125.184 382.412 126.964 383.658 130.385 383.262C130.469 380.116 132.91 376.836 132.348 374.666C129.84 375.676 127.041 376.394 124.253 377.122ZM188.766 384C189.836 383.924 190.346 383.289 190.974 382.771C190.84 380.483 191.512 378.921 190.974 377.368C189.315 378.543 188.174 381.366 188.766 384ZM185.577 381.297C185.85 382.865 185.083 385.506 185.823 385.964C186.431 385.673 186.637 384.977 187.54 384.981C187.627 382.657 187.944 379.167 185.577 381.297ZM175.275 389.894C176.025 390.071 176.169 389.642 176.747 389.648C176.078 387.37 177.206 384.22 176.011 381.789C174.789 383.512 176.092 387.765 175.275 389.894ZM177.973 389.157C179.47 388.989 178.792 387.218 178.709 385.719C178.632 384.31 179.021 381.921 177.728 381.789C178.331 383.737 177.28 386.698 177.973 389.157ZM180.181 388.42C180.475 387.178 181.485 383.04 179.936 381.789C180.048 384.686 180.061 387.236 180.181 388.42ZM181.898 382.034C182.025 384.208 181.758 385.988 181.653 387.929C182.792 387.596 183.714 387.045 184.351 386.21C184.411 384.594 183.919 383.531 184.106 381.789C183.119 381.619 182.705 382.024 181.898 382.034ZM172.577 390.631C173.067 390.631 173.558 390.631 174.048 390.631C174.466 387.996 174.279 385.128 174.048 383.016C172.109 384.104 173.196 388.221 172.577 390.631ZM109.78 384.491C110.394 384.532 110.548 384.114 110.762 383.754C110.068 383.956 110.126 383.407 109.535 383.508C109.48 383.972 109.811 384.05 109.78 384.491ZM114.195 389.648C113.995 387.847 111.835 386.821 112.724 384.735C111.969 384.919 112.253 384.062 111.498 384.245C111.192 387.252 112.647 388.497 114.195 389.648ZM168.407 387.683C168.34 389.172 168.033 390.419 167.916 391.859C169.03 391.582 170.308 391.47 171.35 391.121C171.413 389.325 172.052 386.91 171.35 385.473C170.688 386.528 169.477 387.036 168.407 387.683ZM118.856 392.105C118.748 388.857 116.041 388.209 114.441 386.456C115.044 389.06 116.22 392.347 118.856 392.105ZM155.16 395.051C155.945 394.691 156.748 394.348 157.859 394.314C158.275 392.577 158.162 389.934 157.859 388.174C153.933 387.153 155.203 393.804 155.16 395.051ZM159.086 394.069C160.066 394.068 160.558 393.578 161.539 393.578C161.199 392.165 161.454 390.185 161.293 388.665C160.718 388.423 160.088 388.235 159.331 388.174C158.976 390.368 159.182 391.617 159.086 394.069ZM162.764 388.91C162.519 390.212 162.552 391.373 162.519 393.332C163.853 392.703 165.728 392.614 166.934 391.858C166.934 390.63 166.934 389.402 166.934 388.173C165.476 388.351 164.276 388.787 162.764 388.91ZM132.593 396.771C133.165 396.771 133.737 396.771 134.31 396.771C133.396 394.575 133.2 391.66 132.593 389.157C131.819 389.277 131.727 388.715 130.876 388.91C131.111 391.867 132.029 394.143 132.593 396.771ZM127.196 389.894C127.08 392.793 128.326 394.329 128.914 396.525C129.649 396.525 130.385 396.525 131.121 396.525C130.393 394.225 129.573 392.016 129.404 389.157C128.33 389.064 128.143 389.858 127.196 389.894ZM151.236 395.542C152.136 395.379 153.101 395.281 153.934 395.051C153.477 393.282 154.298 391.131 153.689 389.157C151.502 389.914 151.866 393.227 151.236 395.542ZM123.026 394.314C123.15 392.635 122.281 391.949 122.291 390.385C121.261 390.515 120.92 389.956 120.083 389.894C119.856 392.576 121.269 393.617 123.026 394.314ZM135.537 397.015C135.567 396.474 136.577 396.911 137.009 396.77C136.781 394.541 136.498 392.368 136.027 390.384C135.482 390.194 135.071 389.868 134.31 389.894C134.837 392.688 134.84 394.494 135.537 397.015ZM127.196 395.542C126.398 394.213 125.556 392.928 125.725 390.631C125.07 390.631 124.416 390.631 123.762 390.631C124.357 392.656 124.399 396.54 127.196 395.542ZM138.48 396.771C139.467 396.613 141.088 397.09 141.669 396.525C141.002 395.718 140.744 394.503 140.688 393.086C140.251 392.868 140.064 392.401 139.216 392.595C140.082 391.743 137.721 391.095 137.499 391.367C138.249 392.744 138.191 394.931 138.48 396.771ZM146.575 393.823C146.641 394.657 146.385 395.814 146.821 396.28C148.421 396.49 149.095 395.773 150.5 395.788C149.955 394.403 150.961 392.826 150.009 392.105C149.288 393.1 147.684 393.215 146.575 393.823ZM142.16 396.771C143.657 396.96 144.455 396.449 145.839 396.525C145.475 395.742 145.838 394.234 145.349 393.578C144.065 394.461 143.452 393.501 142.16 393.578C141.505 394.559 142.911 395.752 142.16 396.771Z" fill="#636363"/>
</svg>
