<svg width="696" height="177" viewBox="0 0 696 177" fill="none" xmlns="http://www.w3.org/2000/svg">
<path fill-rule="evenodd" clip-rule="evenodd" d="M73.7808 30.6701C73.9597 15.4481 67.2699 0.145181 55.0322 0.0010213C42.7945 -0.143138 35.7471 14.998 35.5683 30.22C35.3895 45.442 39.0869 56.0254 48.5575 63.1634L45.519 159.157C45.519 159.157 49.1631 163.513 52.1512 163.919C52.8925 164.02 53.3184 164.025 54.0619 163.942C57.0587 163.606 60.8041 159.337 60.8041 159.337L60.0213 63.2985C69.657 56.3855 73.602 45.8922 73.7808 30.6701ZM55.4364 55.6463C53.7972 55.714 52.0812 55.3207 50.6654 54.0783L51.1631 53.5095C52.3979 54.5931 53.9073 54.9525 55.4052 54.8906C56.9076 54.8286 58.3778 54.3422 59.4872 53.7612C62.6465 52.1067 65.261 48.946 67.11 44.9665C68.9573 40.9909 70.0261 36.2272 70.1134 31.4144C70.3507 18.347 66.6025 10.3885 62.0297 5.05387L62.6027 4.56129C67.3053 10.0472 71.1089 18.1898 70.8685 31.4281C70.7794 36.3384 69.6898 41.2071 67.7947 45.2856C65.9015 49.3602 63.1898 52.6755 59.8372 54.4313C58.6495 55.0533 57.071 55.5787 55.4364 55.6463ZM47.6796 117.454L46.571 157.551L46.6629 157.66L46.702 157.628C46.663 157.661 46.6629 157.66 46.6629 157.66L46.6638 157.662L46.6659 157.664L46.6732 157.673L46.7007 157.705C46.7247 157.733 46.7598 157.774 46.8051 157.825C46.8958 157.928 47.0275 158.075 47.1932 158.252C47.5241 158.605 47.9925 159.081 48.5416 159.568C49.0899 160.055 49.7246 160.558 50.3883 160.964C51.0482 161.367 51.7599 161.688 52.4588 161.783C53.1107 161.872 53.4988 161.876 54.1526 161.803C54.8535 161.724 55.5725 161.42 56.2417 161.033C56.9148 160.643 57.5611 160.154 58.1206 159.681C58.6811 159.207 59.1605 158.742 59.4997 158.397C59.6695 158.224 59.8045 158.08 59.8976 157.979C59.9441 157.929 59.9802 157.889 60.0048 157.862L60.0331 157.83L60.0406 157.821L60.0427 157.819L60.0433 157.818C60.0434 157.818 60.0436 157.818 59.76 157.568C59.4763 157.319 59.4763 157.319 59.4763 157.319L59.4747 157.321L59.4687 157.328L59.4434 157.356C59.4291 157.372 59.4103 157.393 59.3871 157.418C59.3738 157.433 59.359 157.449 59.3428 157.466C59.2544 157.562 59.1247 157.7 58.9611 157.867C58.6334 158.201 58.1713 158.648 57.6332 159.103C57.0943 159.559 56.4852 160.018 55.8636 160.378C55.2382 160.74 54.6232 160.989 54.0685 161.051C53.4765 161.118 53.1508 161.114 52.5604 161.033C52.0074 160.958 51.3984 160.695 50.7817 160.318C50.1687 159.944 49.5706 159.471 49.0425 159.002C48.5153 158.534 48.0638 158.076 47.7441 157.735C47.5843 157.564 47.4579 157.423 47.3718 157.325L47.3339 157.282L48.4345 117.475L47.6796 117.454Z" fill="white"/>
<path fill-rule="evenodd" clip-rule="evenodd" d="M83.9689 161.075L81.7853 161.049L76.7625 115.425C76.7891 113.161 77.9075 110.909 80.1177 108.67L86.7483 101.953C87.4306 101.261 87.8666 99.7008 87.8666 99.7008L86.7738 6.82053C86.7738 6.82053 91.032 2.34058 94.4695 2.38108C97.907 2.42157 102.059 7.00058 102.059 7.00058L102.004 8.56128C101.728 8.30138 101.419 8.02295 101.084 7.7432C100.421 7.18986 99.6505 6.62554 98.8396 6.18945C98.0316 5.75498 97.1606 5.43548 96.301 5.3987L96.2688 6.15429C96.9714 6.18435 97.7278 6.45003 98.4823 6.85574C99.2337 7.25982 99.961 7.79067 100.6 8.32414C101.135 8.77083 101.604 9.21532 101.968 9.58109L100.724 44.8337L100.518 48.5L100.595 48.5044L98.7845 99.8294C98.7845 99.8294 99.1838 101.4 99.8497 102.107L106.321 108.978C108.478 111.269 109.543 113.546 109.516 115.811L103.307 161.315L101.124 161.289L103.924 127.071C103.924 127.071 103.938 125.938 101.754 125.913C99.5704 125.887 99.5571 127.019 99.5571 127.019L96.9473 161.234L94.7637 161.208L95.1899 126.968C95.1899 126.968 95.1406 125.835 93.0196 125.81C90.8987 125.785 90.8228 126.916 90.8228 126.916L90.3877 161.153L88.2041 161.128L86.4556 126.865C86.4556 126.865 86.4689 125.732 84.2853 125.707C82.1018 125.681 82.0885 126.813 82.0885 126.813L83.9689 161.075ZM81.7285 109.997C79.85 111.785 78.8248 113.657 78.7414 115.611L79.4959 115.643C79.5682 113.951 80.4563 112.252 82.249 110.545L87.7557 105.301L87.2353 104.753L81.7285 109.997Z" fill="white"/>
<path d="M27.3258 25.0467C10.6719 38.3493 0 58.8445 0 81.8358C0 106.768 12.5497 128.765 31.6683 141.837L31.3445 133.127C16.3759 121.068 6.79687 102.572 6.79687 81.8358C6.79687 62.861 14.8178 45.7621 27.6496 33.754L27.3258 25.0467Z" fill="white"/>
<path d="M117.378 129.892C130.194 117.885 138.203 100.797 138.203 81.8358C138.203 61.1131 128.636 42.628 113.685 30.5677L113.361 21.8543C132.463 34.9291 145 56.9163 145 81.8358C145 104.815 134.34 125.3 117.702 138.603L117.378 129.892Z" fill="white"/>
<path d="M218.11 85.688C212.377 85.688 207.389 84.4267 203.146 81.904C198.961 79.3813 195.721 75.798 193.428 71.154C191.135 66.51 189.988 61.0347 189.988 54.728C189.988 48.364 191.106 42.86 193.342 38.216C195.635 33.5147 198.903 29.9313 203.146 27.466C207.389 24.9433 212.377 23.682 218.11 23.682C223.901 23.682 228.917 24.9433 233.16 27.466C237.403 29.9313 240.642 33.5147 242.878 38.216C245.171 42.86 246.318 48.3353 246.318 54.642C246.318 60.9487 245.171 66.4527 242.878 71.154C240.642 75.798 237.403 79.3813 233.16 81.904C228.917 84.4267 223.901 85.688 218.11 85.688ZM218.11 78.464C224.187 78.464 228.917 76.4 232.3 72.272C235.683 68.144 237.374 62.2673 237.374 54.642C237.374 47.0167 235.683 41.1687 232.3 37.098C228.975 32.97 224.245 30.906 218.11 30.906C212.09 30.906 207.389 32.97 204.006 37.098C200.681 41.1687 199.018 47.0167 199.018 54.642C199.018 62.2673 200.681 68.144 204.006 72.272C207.389 76.4 212.09 78.464 218.11 78.464ZM279.642 85.602C275.571 85.602 271.988 84.7133 268.892 82.936C265.853 81.1587 263.474 78.636 261.754 75.368C260.091 72.1 259.26 68.316 259.26 64.016C259.26 59.6587 260.12 55.8173 261.84 52.492C263.617 49.1667 266.082 46.5867 269.236 44.752C272.389 42.9173 276.001 42 280.072 42C282.25 42 284.429 42.3153 286.608 42.946C288.844 43.5767 290.822 44.4367 292.542 45.526C294.376 46.7873 295.294 48.2493 295.294 49.912C295.294 50.8867 295.036 51.718 294.52 52.406C294.004 53.0367 293.344 53.352 292.542 53.352C292.026 53.352 291.51 53.2373 290.994 53.008C290.478 52.7213 289.818 52.32 289.016 51.804C287.582 50.8867 286.235 50.1987 284.974 49.74C283.77 49.224 282.308 48.966 280.588 48.966C276.689 48.966 273.65 50.2847 271.472 52.922C269.35 55.5593 268.29 59.2287 268.29 63.93C268.29 68.6313 269.35 72.272 271.472 74.852C273.593 77.3747 276.603 78.636 280.502 78.636C282.222 78.636 283.741 78.378 285.06 77.862C286.378 77.346 287.726 76.658 289.102 75.798C289.732 75.3967 290.363 75.0527 290.994 74.766C291.624 74.4793 292.198 74.336 292.714 74.336C293.516 74.336 294.176 74.68 294.692 75.368C295.208 75.9987 295.466 76.8013 295.466 77.776C295.466 78.5787 295.236 79.324 294.778 80.012C294.376 80.6427 293.66 81.302 292.628 81.99C290.908 83.1367 288.901 84.0253 286.608 84.656C284.314 85.2867 281.992 85.602 279.642 85.602ZM340.392 74.422C341.195 74.422 341.854 74.7373 342.37 75.368C342.886 75.9987 343.144 76.8013 343.144 77.776C343.144 79.4387 342.112 80.8433 340.048 81.99C338.041 83.1367 335.834 84.0253 333.426 84.656C331.075 85.2867 328.811 85.602 326.632 85.602C319.981 85.602 314.735 83.6813 310.894 79.84C307.053 75.9413 305.132 70.638 305.132 63.93C305.132 59.63 305.963 55.8173 307.626 52.492C309.346 49.1667 311.725 46.5867 314.764 44.752C317.86 42.9173 321.357 42 325.256 42C330.875 42 335.318 43.806 338.586 47.418C341.854 51.03 343.488 55.9033 343.488 62.038C343.488 64.3313 342.456 65.478 340.392 65.478H313.818C314.391 74.3647 318.663 78.808 326.632 78.808C328.753 78.808 330.588 78.5213 332.136 77.948C333.684 77.3747 335.318 76.6293 337.038 75.712C337.21 75.5973 337.669 75.368 338.414 75.024C339.217 74.6227 339.876 74.422 340.392 74.422ZM325.428 48.364C322.103 48.364 319.437 49.4247 317.43 51.546C315.423 53.6673 314.219 56.6487 313.818 60.49H336.006C335.834 56.5913 334.831 53.61 332.996 51.546C331.219 49.4247 328.696 48.364 325.428 48.364ZM370.786 85.43C369.467 85.43 368.406 85.0573 367.604 84.312C366.801 83.5667 366.4 82.5633 366.4 81.302V49.74H355.22C354.188 49.74 353.356 49.4247 352.726 48.794C352.095 48.1633 351.78 47.3607 351.78 46.386C351.78 45.4113 352.095 44.6087 352.726 43.978C353.356 43.3473 354.188 43.032 355.22 43.032H386.266C387.355 43.032 388.215 43.3473 388.846 43.978C389.476 44.6087 389.792 45.4113 389.792 46.386C389.792 47.3607 389.476 48.1633 388.846 48.794C388.215 49.4247 387.355 49.74 386.266 49.74H375.086V81.302C375.086 82.5633 374.684 83.5667 373.882 84.312C373.136 85.0573 372.104 85.43 370.786 85.43ZM429.518 45.268C430.321 44.1213 431.095 43.3187 431.84 42.86C432.585 42.4013 433.589 42.172 434.85 42.172C436.226 42.172 437.315 42.5733 438.118 43.376C438.921 44.1213 439.322 45.1533 439.322 46.472V81.216C439.322 82.4773 438.949 83.5093 438.204 84.312C437.459 85.0573 436.455 85.43 435.194 85.43C433.99 85.43 432.987 85.0573 432.184 84.312C431.439 83.5093 431.066 82.4773 431.066 81.216V53.868L410.426 82.506C409.623 83.6527 408.821 84.4267 408.018 84.828C407.273 85.2293 406.327 85.43 405.18 85.43C403.861 85.43 402.772 85.0573 401.912 84.312C401.109 83.5093 400.708 82.4773 400.708 81.216V46.386C400.708 45.182 401.081 44.1787 401.826 43.376C402.629 42.5733 403.661 42.172 404.922 42.172C406.126 42.172 407.101 42.5733 407.846 43.376C408.649 44.1787 409.05 45.182 409.05 46.386V73.476L429.518 45.268ZM459.785 85.43C458.466 85.43 457.405 85.0573 456.603 84.312C455.8 83.5667 455.399 82.5633 455.399 81.302V46.3C455.399 45.0387 455.8 44.0353 456.603 43.29C457.405 42.5447 458.466 42.172 459.785 42.172C461.103 42.172 462.135 42.5447 462.881 43.29C463.683 44.0353 464.085 45.0387 464.085 46.3V60.06H484.725V46.3C484.725 45.0387 485.126 44.0353 485.929 43.29C486.731 42.5447 487.792 42.172 489.111 42.172C490.429 42.172 491.461 42.5447 492.207 43.29C493.009 44.0353 493.411 45.0387 493.411 46.3L493.497 81.044C493.497 82.3627 493.095 83.4233 492.293 84.226C491.49 85.0287 490.429 85.43 489.111 85.43C487.792 85.43 486.731 85.0287 485.929 84.226C485.126 83.4233 484.725 82.3627 484.725 81.044V66.94H464.085V81.302C464.085 82.5633 463.683 83.5667 462.881 84.312C462.135 85.0573 461.103 85.43 459.785 85.43ZM527.648 85.602C523.577 85.602 519.994 84.7133 516.898 82.936C513.859 81.1587 511.48 78.636 509.76 75.368C508.097 72.1 507.266 68.316 507.266 64.016C507.266 59.6587 508.126 55.8173 509.846 52.492C511.623 49.1667 514.088 46.5867 517.242 44.752C520.395 42.9173 524.007 42 528.078 42C530.256 42 532.435 42.3153 534.614 42.946C536.85 43.5767 538.828 44.4367 540.548 45.526C542.382 46.7873 543.3 48.2493 543.3 49.912C543.3 50.8867 543.042 51.718 542.526 52.406C542.01 53.0367 541.35 53.352 540.548 53.352C540.032 53.352 539.516 53.2373 539 53.008C538.484 52.7213 537.824 52.32 537.022 51.804C535.588 50.8867 534.241 50.1987 532.98 49.74C531.776 49.224 530.314 48.966 528.594 48.966C524.695 48.966 521.656 50.2847 519.478 52.922C517.356 55.5593 516.296 59.2287 516.296 63.93C516.296 68.6313 517.356 72.272 519.478 74.852C521.599 77.3747 524.609 78.636 528.508 78.636C530.228 78.636 531.747 78.378 533.066 77.862C534.384 77.346 535.732 76.658 537.108 75.798C537.738 75.3967 538.369 75.0527 539 74.766C539.63 74.4793 540.204 74.336 540.72 74.336C541.522 74.336 542.182 74.68 542.698 75.368C543.214 75.9987 543.472 76.8013 543.472 77.776C543.472 78.5787 543.242 79.324 542.784 80.012C542.382 80.6427 541.666 81.302 540.634 81.99C538.914 83.1367 536.907 84.0253 534.614 84.656C532.32 85.2867 529.998 85.602 527.648 85.602ZM577.476 62.124C579.482 62.812 581.088 63.7867 582.292 65.048C583.553 66.3093 585.044 68.4307 586.764 71.412L591.408 79.238C591.809 79.9833 592.01 80.7 592.01 81.388C592.01 82.5347 591.58 83.5093 590.72 84.312C589.86 85.0573 588.856 85.43 587.71 85.43C586.219 85.43 585.015 84.6847 584.098 83.194L578.078 72.874C576.702 70.5807 575.383 69.0327 574.122 68.23C572.918 67.37 571.14 66.94 568.79 66.94H564.662V81.302C564.662 82.5633 564.26 83.5667 563.458 84.312C562.655 85.0573 561.594 85.43 560.276 85.43C558.957 85.43 557.896 85.0573 557.094 84.312C556.348 83.5667 555.976 82.5633 555.976 81.302V46.386C555.976 45.0673 556.348 44.0353 557.094 43.29C557.896 42.5447 558.957 42.172 560.276 42.172C561.594 42.172 562.655 42.5733 563.458 43.376C564.26 44.1213 564.662 45.1247 564.662 46.386V60.318H569.564L582.98 43.978C583.954 42.8313 585.044 42.258 586.248 42.258C587.222 42.258 588.054 42.602 588.742 43.29C589.487 43.978 589.86 44.8093 589.86 45.784C589.86 46.816 589.487 47.7907 588.742 48.708L577.476 62.124ZM622.743 42C628.305 42 632.433 43.4047 635.127 46.214C637.879 49.0233 639.255 53.2947 639.255 59.028V81.302C639.255 82.6207 638.883 83.6527 638.137 84.398C637.392 85.086 636.36 85.43 635.041 85.43C633.78 85.43 632.777 85.0573 632.031 84.312C631.286 83.5667 630.913 82.5633 630.913 81.302V78.12C629.824 80.528 628.19 82.3913 626.011 83.71C623.89 84.9713 621.396 85.602 618.529 85.602C615.777 85.602 613.255 85.0573 610.961 83.968C608.725 82.8213 606.948 81.2733 605.629 79.324C604.311 77.3747 603.651 75.1673 603.651 72.702C603.594 69.606 604.368 67.198 605.973 65.478C607.579 63.7007 610.187 62.4393 613.799 61.694C617.411 60.8913 622.428 60.49 628.849 60.49H630.827V57.996C630.827 54.7853 630.168 52.4633 628.849 51.03C627.531 49.5967 625.409 48.88 622.485 48.88C620.479 48.88 618.587 49.138 616.809 49.654C615.032 50.17 613.083 50.9153 610.961 51.89C609.413 52.75 608.324 53.18 607.693 53.18C606.833 53.18 606.117 52.8647 605.543 52.234C605.027 51.6033 604.769 50.8007 604.769 49.826C604.769 48.966 604.999 48.2207 605.457 47.59C605.973 46.902 606.776 46.2427 607.865 45.612C609.872 44.5227 612.223 43.6627 614.917 43.032C617.612 42.344 620.221 42 622.743 42ZM620.077 79.152C623.231 79.152 625.811 78.0913 627.817 75.97C629.824 73.7913 630.827 71.0107 630.827 67.628V65.392H629.279C624.807 65.392 621.367 65.5927 618.959 65.994C616.551 66.3953 614.831 67.0833 613.799 68.058C612.767 68.9753 612.251 70.3227 612.251 72.1C612.251 74.164 612.997 75.8553 614.487 77.174C615.978 78.4927 617.841 79.152 620.077 79.152ZM685.021 85.43C683.702 85.43 682.641 85.0573 681.839 84.312C681.093 83.5667 680.721 82.5633 680.721 81.302V69.95H676.421C672.407 69.95 669.225 71.756 666.875 75.368L661.199 83.796C660.224 85.172 658.991 85.86 657.501 85.86C656.411 85.86 655.437 85.4873 654.577 84.742C653.774 83.9967 653.373 83.108 653.373 82.076C653.373 81.2733 653.631 80.442 654.147 79.582L656.985 75.11C658.246 73.1033 659.651 71.4407 661.199 70.122C662.747 68.746 664.323 67.8573 665.929 67.456C662.202 66.768 659.45 65.392 657.673 63.328C655.953 61.264 655.093 58.7987 655.093 55.932C655.093 51.804 656.411 48.622 659.049 46.386C661.686 44.15 665.269 43.032 669.799 43.032H684.935C686.311 43.032 687.371 43.4047 688.117 44.15C688.919 44.8953 689.321 45.9273 689.321 47.246V81.302C689.321 82.5633 688.919 83.5667 688.117 84.312C687.371 85.0573 686.339 85.43 685.021 85.43ZM680.721 49.31H672.035C666.244 49.31 663.349 51.718 663.349 56.534C663.349 59.114 664.18 60.9773 665.843 62.124C667.505 63.2133 669.598 63.758 672.121 63.758H680.721V49.31Z" fill="white"/>
<path d="M204.5 130.04C205.9 130.52 207.02 131.2 207.86 132.08C208.74 132.96 209.78 134.44 210.98 136.52L214.22 141.98C214.5 142.5 214.64 143 214.64 143.48C214.64 144.28 214.34 144.96 213.74 145.52C213.14 146.04 212.44 146.3 211.64 146.3C210.6 146.3 209.76 145.78 209.12 144.74L204.92 137.54C203.96 135.94 203.04 134.86 202.16 134.3C201.32 133.7 200.08 133.4 198.44 133.4H195.56V143.42C195.56 144.3 195.28 145 194.72 145.52C194.16 146.04 193.42 146.3 192.5 146.3C191.58 146.3 190.84 146.04 190.28 145.52C189.76 145 189.5 144.3 189.5 143.42V119.06C189.5 118.14 189.76 117.42 190.28 116.9C190.84 116.38 191.58 116.12 192.5 116.12C193.42 116.12 194.16 116.4 194.72 116.96C195.28 117.48 195.56 118.18 195.56 119.06V128.78H198.98L208.34 117.38C209.02 116.58 209.78 116.18 210.62 116.18C211.3 116.18 211.88 116.42 212.36 116.9C212.88 117.38 213.14 117.96 213.14 118.64C213.14 119.36 212.88 120.04 212.36 120.68L204.5 130.04ZM247.602 117.92C247.842 117.32 248.182 116.88 248.622 116.6C249.102 116.32 249.602 116.18 250.122 116.18C250.882 116.18 251.542 116.44 252.102 116.96C252.702 117.48 253.002 118.1 253.002 118.82C253.002 119.22 252.922 119.6 252.762 119.96L236.082 155.36C235.842 155.92 235.482 156.34 235.002 156.62C234.562 156.94 234.082 157.1 233.562 157.1C232.842 157.1 232.182 156.86 231.582 156.38C231.022 155.9 230.742 155.3 230.742 154.58C230.742 154.26 230.842 153.86 231.042 153.38L235.182 144.56L223.602 119.96C223.442 119.64 223.362 119.28 223.362 118.88C223.362 118.12 223.682 117.48 224.322 116.96C224.962 116.44 225.682 116.18 226.482 116.18C227.682 116.18 228.542 116.74 229.062 117.86L238.362 138.5L247.602 117.92ZM288.204 141.44C288.804 142.04 289.104 142.74 289.104 143.54C289.104 144.3 288.824 144.96 288.264 145.52C287.744 146.04 287.104 146.3 286.344 146.3C285.584 146.3 284.884 145.96 284.244 145.28L275.064 134.96L265.944 145.28C265.304 145.96 264.604 146.3 263.844 146.3C263.084 146.3 262.424 146.02 261.864 145.46C261.344 144.9 261.084 144.24 261.084 143.48C261.084 142.72 261.364 142.04 261.924 141.44L271.404 131L262.404 120.98C261.804 120.3 261.504 119.62 261.504 118.94C261.504 118.18 261.784 117.54 262.344 117.02C262.904 116.46 263.544 116.18 264.264 116.18C265.024 116.18 265.724 116.52 266.364 117.2L275.064 127.04L283.764 117.2C284.404 116.52 285.124 116.18 285.924 116.18C286.644 116.18 287.284 116.46 287.844 117.02C288.404 117.54 288.684 118.18 288.684 118.94C288.684 119.7 288.384 120.38 287.784 120.98L278.784 131L288.204 141.44ZM304.007 146.3C303.087 146.3 302.347 146.04 301.787 145.52C301.227 145 300.947 144.3 300.947 143.42V119C300.947 118.12 301.227 117.42 301.787 116.9C302.347 116.38 303.087 116.12 304.007 116.12C304.927 116.12 305.647 116.38 306.167 116.9C306.727 117.42 307.007 118.12 307.007 119V128.6H321.407V119C321.407 118.12 321.687 117.42 322.247 116.9C322.807 116.38 323.547 116.12 324.467 116.12C325.387 116.12 326.107 116.38 326.627 116.9C327.187 117.42 327.467 118.12 327.467 119L327.527 143.24C327.527 144.16 327.247 144.9 326.687 145.46C326.127 146.02 325.387 146.3 324.467 146.3C323.547 146.3 322.807 146.02 322.247 145.46C321.687 144.9 321.407 144.16 321.407 143.24V133.4H307.007V143.42C307.007 144.3 306.727 145 306.167 145.52C305.647 146.04 304.927 146.3 304.007 146.3ZM362.453 146.3C361.533 146.3 360.793 146.04 360.233 145.52C359.713 145 359.453 144.3 359.453 143.42V135.5H356.453C353.653 135.5 351.433 136.76 349.793 139.28L345.833 145.16C345.153 146.12 344.293 146.6 343.253 146.6C342.493 146.6 341.813 146.34 341.213 145.82C340.653 145.3 340.373 144.68 340.373 143.96C340.373 143.4 340.553 142.82 340.913 142.22L342.893 139.1C343.773 137.7 344.753 136.54 345.833 135.62C346.913 134.66 348.013 134.04 349.133 133.76C346.533 133.28 344.613 132.32 343.373 130.88C342.173 129.44 341.573 127.72 341.573 125.72C341.573 122.84 342.493 120.62 344.333 119.06C346.173 117.5 348.673 116.72 351.833 116.72H362.393C363.353 116.72 364.093 116.98 364.613 117.5C365.173 118.02 365.453 118.74 365.453 119.66V143.42C365.453 144.3 365.173 145 364.613 145.52C364.093 146.04 363.373 146.3 362.453 146.3ZM359.453 121.1H353.393C349.353 121.1 347.333 122.78 347.333 126.14C347.333 127.94 347.913 129.24 349.073 130.04C350.233 130.8 351.693 131.18 353.453 131.18H359.453V121.1Z" fill="white"/>
</svg>
