<svg width="40" height="40" viewBox="0 0 40 40" fill="none" xmlns="http://www.w3.org/2000/svg">
<path d="M4.99322 22.406C3.66686 21.0729 3.66893 18.9171 4.99943 17.5865L21.589 0.999435C22.9215 -0.333144 25.0821 -0.333145 26.4147 0.999434L27.9227 2.50746C29.2553 3.84004 29.2553 6.00058 27.9227 7.33316L19.6708 15.5851H33.0838C34.9684 15.5851 36.4961 17.1128 36.4961 18.9974V21.13C36.4961 23.0146 34.9684 24.5423 33.0838 24.5423H19.797L27.9215 32.6668C29.254 33.9994 29.254 36.16 27.9215 37.4925L26.4135 39.0006C25.0809 40.3331 22.9203 40.3331 21.5878 39.0006L5.00064 22.4135L4.99943 22.4122L4.99322 22.406Z" fill="white"/>
</svg>
